<svg width="30" height="30" viewBox="0 0 30 30" fill="none" xmlns="http://www.w3.org/2000/svg">
  <path fill-rule="evenodd" clip-rule="evenodd" d="M15 0C6.71573 0 0 6.71573 0 15C0 23.2843 6.71573 30 15 30C23.2843 30 30 23.2843 30 15C30 6.71573 23.2843 0 15 0ZM14.9957 19.2679C14.2914 19.2679 13.6904 19.1454 13.1928 18.9004C12.7029 18.6555 12.3201 18.3033 12.0445 17.844C11.7766 17.377 11.6311 16.822 11.6082 16.1789C11.6005 15.8497 11.5967 15.4976 11.5967 15.1225C11.5967 14.7397 11.6005 14.3799 11.6082 14.043C11.6311 13.4076 11.7766 12.8641 12.0445 12.4124C12.3201 11.9608 12.7067 11.6124 13.2043 11.3675C13.7096 11.1225 14.3067 11 14.9957 11C15.5546 11 16.0445 11.0766 16.4656 11.2297C16.8866 11.3751 17.2349 11.5665 17.5105 11.8038C17.7938 12.0335 18.0043 12.2823 18.1421 12.5502C18.2876 12.8182 18.3641 13.067 18.3718 13.2966C18.3794 13.3655 18.3603 13.423 18.3144 13.4689C18.2684 13.5148 18.2072 13.5378 18.1306 13.5378H16.9478C16.8713 13.5378 16.8139 13.5225 16.7756 13.4919C16.7373 13.4612 16.7029 13.4153 16.6723 13.3541C16.611 13.1933 16.5153 13.0364 16.3852 12.8832C16.255 12.7225 16.079 12.5885 15.8569 12.4813C15.6349 12.3742 15.3479 12.3206 14.9957 12.3206C14.4751 12.3206 14.0579 12.4584 13.744 12.734C13.4378 13.0096 13.2732 13.4651 13.2503 14.1005C13.2273 14.7665 13.2273 15.4402 13.2503 16.1215C13.2732 16.7722 13.4416 17.2392 13.7555 17.5225C14.077 17.8057 14.4981 17.9473 15.0187 17.9473C15.3632 17.9473 15.6694 17.8861 15.9373 17.7636C16.2129 17.6411 16.4273 17.4497 16.5804 17.1894C16.7411 16.9292 16.8215 16.5961 16.8215 16.1904V15.8344H15.4206C15.344 15.8344 15.279 15.8076 15.2254 15.754C15.1718 15.7005 15.145 15.6316 15.145 15.5473V14.9387C15.145 14.8545 15.1718 14.7856 15.2254 14.732C15.279 14.6785 15.344 14.6517 15.4206 14.6517H18.1651C18.2493 14.6517 18.3143 14.6785 18.3603 14.732C18.4139 14.7856 18.4407 14.8545 18.4407 14.9387V16.1445C18.4407 16.7875 18.299 17.3426 18.0158 17.8095C17.7402 18.2765 17.3421 18.6363 16.8215 18.889C16.3086 19.1416 15.7 19.2679 14.9957 19.2679ZM4.2756 19.1531C4.19904 19.1531 4.13397 19.1263 4.08038 19.0727C4.02679 19.0191 4 18.954 4 18.8775V11.4019C4 11.3177 4.02679 11.2488 4.08038 11.1952C4.13397 11.1416 4.19904 11.1148 4.2756 11.1148H7.60573C8.22582 11.1148 8.73108 11.2105 9.12151 11.4019C9.51194 11.5856 9.79902 11.8421 9.98275 12.1713C10.1741 12.5005 10.2698 12.8832 10.2698 13.3196C10.2698 13.6105 10.2162 13.867 10.1091 14.089C10.0095 14.3033 9.88323 14.4794 9.73012 14.6172C9.58466 14.755 9.43921 14.8622 9.29376 14.9387C9.59232 15.0765 9.85643 15.3062 10.0861 15.6277C10.3158 15.9493 10.4306 16.332 10.4306 16.7761C10.4306 17.2354 10.3272 17.6449 10.1205 18.0048C9.91385 18.3646 9.60763 18.6478 9.20189 18.8545C8.79615 19.0536 8.29472 19.1531 7.69759 19.1531H4.2756ZM5.59617 17.9359H7.51386C7.92726 17.9359 8.24113 17.8249 8.45548 17.6028C8.66984 17.3732 8.77701 17.0976 8.77701 16.7761C8.77701 16.4392 8.66601 16.1598 8.444 15.9378C8.22965 15.7158 7.9196 15.6048 7.51386 15.6048H5.59617V17.9359ZM5.59617 14.4105H7.39903C7.80477 14.4105 8.10716 14.3148 8.3062 14.1234C8.5129 13.9244 8.61625 13.6679 8.61625 13.3541C8.61625 13.0325 8.5129 12.7837 8.3062 12.6076C8.10716 12.4239 7.80477 12.3321 7.39903 12.3321H5.59617V14.4105ZM19.9931 19.0727C20.0467 19.1263 20.1118 19.1531 20.1884 19.1531H21.1529C21.2372 19.1531 21.3061 19.1263 21.3596 19.0727C21.4132 19.0191 21.44 18.954 21.44 18.8775V13.9397L24.7357 18.9693C24.7587 18.9847 24.7931 19.0191 24.839 19.0727C24.885 19.1263 24.9615 19.1531 25.0687 19.1531H25.9644C26.041 19.1531 26.106 19.1263 26.1596 19.0727C26.2132 19.0191 26.24 18.9502 26.24 18.866V11.4019C26.24 11.3177 26.2132 11.2488 26.1596 11.1952C26.106 11.1416 26.0371 11.1148 25.9529 11.1148H24.9883C24.9041 11.1148 24.8352 11.1416 24.7816 11.1952C24.7357 11.2488 24.7127 11.3177 24.7127 11.4019V16.443L21.4056 11.2986C21.3903 11.2756 21.3558 11.2411 21.3022 11.1952C21.2563 11.1416 21.1797 11.1148 21.0726 11.1148H20.1884C20.1118 11.1148 20.0467 11.1416 19.9931 11.1952C19.9396 11.2488 19.9128 11.3177 19.9128 11.4019V18.8775C19.9128 18.954 19.9396 19.0191 19.9931 19.0727Z" fill="#D20F3E"/>
</svg>
