<svg width="30" height="30" viewBox="0 0 30 30" fill="none" xmlns="http://www.w3.org/2000/svg">
  <path fill-rule="evenodd" clip-rule="evenodd" d="M15 0C6.71573 0 0 6.71573 0 15C0 23.2843 6.71573 30 15 30C23.2843 30 30 23.2843 30 15C30 6.71573 23.2843 0 15 0ZM21.5986 8.21865V7H20.7523V8.21865C19.6465 8.3202 18.7438 8.65307 18.0442 9.21726C17.3559 9.77016 17.0118 10.577 17.0118 11.6376C17.0118 12.6306 17.3616 13.3979 18.0612 13.9395C18.772 14.4698 19.6691 14.814 20.7523 14.972V19.1018C19.3419 18.9777 18.6366 18.2217 18.6366 16.8338C18.6366 16.7661 18.6423 16.704 18.6536 16.6476H16.724V16.7999C16.724 18.0073 17.0964 18.9382 17.8411 19.5927C18.5971 20.2471 19.5675 20.5744 20.7523 20.5744V22.03H21.5986V20.5744C22.7947 20.5744 23.7595 20.2415 24.4929 19.5757C25.2376 18.91 25.61 18.0468 25.61 16.9861C25.61 15.034 24.2729 13.838 21.5986 13.3979V9.67425C22.2079 9.74195 22.6649 9.91685 22.9696 10.1989C23.2855 10.4698 23.4435 10.8985 23.4435 11.4853V11.6038H25.2715V11.3499C25.2715 10.4133 24.9386 9.66297 24.2729 9.09878C23.6184 8.53459 22.727 8.24121 21.5986 8.21865ZM20.7523 9.69118V13.2117C20.143 13.065 19.6691 12.8676 19.3306 12.6193C19.0034 12.3711 18.8397 11.9818 18.8397 11.4514C18.8397 10.9437 19.009 10.5375 19.3475 10.2328C19.686 9.91685 20.1543 9.73631 20.7523 9.69118ZM21.5986 19.1188V15.1582C22.9978 15.4402 23.6974 16.0834 23.6974 17.0877C23.6974 17.6744 23.5056 18.154 23.1219 18.5264C22.7383 18.8987 22.2305 19.0962 21.5986 19.1188ZM14.2922 19.3049C15.24 18.4135 15.7703 17.2287 15.8832 15.7506H13.7675C13.508 17.8042 12.4811 18.831 10.687 18.831C10.0664 18.831 9.51914 18.7013 9.04523 18.4417C8.58259 18.1822 8.21587 17.838 7.94506 17.4093C7.67425 16.9692 7.47114 16.4896 7.33574 15.9706C7.20033 15.4515 7.13263 14.8986 7.13263 14.3119C7.13263 13.5333 7.24547 12.8168 7.47114 12.1623C7.7081 11.4966 8.10303 10.938 8.65594 10.4867C9.22012 10.0353 9.90279 9.80966 10.7039 9.80966C11.4825 9.80966 12.137 10.0184 12.6673 10.4359C13.1976 10.8421 13.5362 11.4063 13.6828 12.1285H15.7816C15.5898 10.797 15.02 9.78145 14.0721 9.08185C13.1243 8.37098 12.0129 8.01554 10.7378 8.01554C9.55299 8.01554 8.52053 8.30892 7.6404 8.89567C6.76027 9.47114 6.10017 10.2328 5.6601 11.1806C5.22003 12.1172 5 13.1609 5 14.3119C5 16.2188 5.51341 17.7478 6.54023 18.8987C7.56705 20.0497 8.93239 20.6251 10.6362 20.6251C12.137 20.6251 13.3556 20.1851 14.2922 19.3049Z" fill="#5C76C8"/>
</svg>
