<svg width="30" height="30" viewBox="0 0 30 30" fill="none" xmlns="http://www.w3.org/2000/svg">
  <path fill-rule="evenodd" clip-rule="evenodd" d="M15 0C6.71573 0 0 6.71573 0 15C0 23.2843 6.71573 30 15 30C23.2843 30 30 23.2843 30 15C30 6.71573 23.2843 0 15 0ZM21.5462 17.6663H22.4766C22.6212 17.6663 22.7559 17.724 22.8556 17.8286C22.954 17.9323 23.0064 18.0733 22.9994 18.2159C22.9077 20.0702 21.5034 21.5224 19.8023 21.5224H18.9765C17.211 21.5224 15.7746 19.9536 15.7746 18.0253V15.6118C15.7746 13.6835 17.2111 12.1147 18.9765 12.1147H19.8023C21.5034 12.1147 22.9077 13.5671 22.9994 15.421C23.0064 15.5639 22.954 15.7051 22.8555 15.8085C22.7561 15.9131 22.6213 15.971 22.4766 15.971H21.5462C21.2727 15.971 21.0436 15.7566 21.0249 15.4829C20.9714 14.7018 20.4343 14.0897 19.8024 14.0897H18.9766C18.3 14.0897 17.7497 14.7726 17.7497 15.6119V18.0254C17.7497 18.8647 18.3001 19.5475 18.9766 19.5475H19.8024C20.4344 19.5475 20.9713 18.9354 21.0249 18.1543C21.0436 17.8806 21.2727 17.6663 21.5462 17.6663ZM14.0018 21.5224C13.8941 21.5224 13.7896 21.4764 13.715 21.3964L9.42006 16.7772V21.112C9.42006 21.3384 9.24119 21.5225 9.02144 21.5225H7.39862C7.17886 21.5225 7 21.3384 7 21.112V8.40935C7 8.1836 7.17886 8 7.39862 8H9.02144C9.24119 8 9.42006 8.1835 9.42006 8.40935V13.5761L13.19 8.63327C13.2646 8.53475 13.3816 8.47616 13.5032 8.47616H15.5189C15.6666 8.47616 15.8019 8.55989 15.8718 8.69466C15.9464 8.83804 15.9302 9.0141 15.8303 9.14327L11.1859 15.1411L16.2185 20.8362C16.3277 20.961 16.3529 21.1404 16.2825 21.2927C16.2156 21.4314 16.0742 21.5224 15.9235 21.5224H14.0018ZM21.0022 8.39011C21.1571 8.39011 21.2986 8.4749 21.3715 8.61161C21.4448 8.74648 21.4375 8.91132 21.352 9.04068L20.1524 10.8649C20.0744 10.9831 19.9437 11.0536 19.8024 11.0536H18.9857C18.8459 11.0536 18.7158 10.9847 18.6376 10.8694L17.4233 9.04175C17.3368 8.91055 17.3299 8.74493 17.4046 8.6088C17.478 8.47413 17.6189 8.39011 17.7722 8.39011H18.6276C18.7733 8.39011 18.9063 8.46417 18.9833 8.58811L19.3937 9.24816L19.804 8.58811C19.8809 8.46417 20.0139 8.39011 20.1595 8.39011H21.0022Z" fill="#0052B4"/>
</svg>
