<svg width="30" height="30" viewBox="0 0 30 30" fill="none" xmlns="http://www.w3.org/2000/svg">
  <path fill-rule="evenodd" clip-rule="evenodd" d="M15 0C6.71573 0 0 6.71573 0 15C0 23.2843 6.71573 30 15 30C23.2843 30 30 23.2843 30 15C30 6.71573 23.2843 0 15 0ZM15.4118 23.5714C17.1232 23.5714 18.6527 23.2726 20 22.6749V19.601C18.6527 20.2841 17.1961 20.6256 15.6303 20.6256C12.8495 20.6256 11.0996 19.4171 10.3805 17H17V15H10.0371C10.0152 14.6894 10.0042 14.3659 10.0042 14.0296C10.0042 13.6705 10.0189 13.3273 10.0483 13H17V11H10.4821C11.2567 8.96387 12.9727 7.94581 15.6303 7.94581C17.1961 7.94581 18.6527 8.28736 20 8.97044V5.89655C18.6527 5.29885 17.1232 5 15.4118 5C9.80392 5 7 8.00985 7 14.0296C7 20.3908 9.80392 23.5714 15.4118 23.5714Z" fill="#0F8FF8"/>
</svg>
