<svg width="30" height="30" viewBox="0 0 30 30" fill="none" xmlns="http://www.w3.org/2000/svg">
  <path fill-rule="evenodd" clip-rule="evenodd" d="M0 15C0 6.71573 6.71573 0 15 0C23.2843 0 30 6.71573 30 15C30 23.2843 23.2843 30 15 30C6.71573 30 0 23.2843 0 15ZM21 15.6118L20.4291 14.0434L19.2552 14.4707V5H17.5861V15.0782L15.8413 15.7133L16.4122 17.2817L17.5861 16.8544V22.751H19.2552V16.2469L21 15.6118ZM16.7734 8.57411V10.031L10.9945 21.0819H16.7734V22.7509H9V21.2941L14.7789 10.2432H9V8.57411H16.7734Z" fill="#F2BC1A"/>
</svg>
