<svg width="30" height="30" viewBox="0 0 30 30" fill="none" xmlns="http://www.w3.org/2000/svg">
  <path fill-rule="evenodd" clip-rule="evenodd" d="M15 0C6.71573 0 0 6.71573 0 15C0 23.2843 6.71573 30 15 30C23.2843 30 30 23.2843 30 15C30 6.71573 23.2843 0 15 0ZM21.3263 15.95C20.2547 17.0431 18.8012 17.6571 17.2857 17.6571H13V19.1143H16.9286C17.2127 19.1143 17.4853 19.2294 17.6862 19.4344C17.8871 19.6393 18 19.9173 18 20.2071C18 20.497 17.8871 20.775 17.6862 20.9799C17.4853 21.1849 17.2127 21.3 16.9286 21.3H13V23.1214C13 23.4113 12.8871 23.6892 12.6862 23.8942C12.4853 24.0991 12.2127 24.2143 11.9286 24.2143C11.6444 24.2143 11.3719 24.0991 11.171 23.8942C10.97 23.6892 10.8571 23.4113 10.8571 23.1214V21.3H9.07143C8.78727 21.3 8.51475 21.1849 8.31381 20.9799C8.11288 20.775 8 20.497 8 20.2071C8 19.9173 8.11288 19.6393 8.31381 19.4344C8.51475 19.2294 8.78727 19.1143 9.07143 19.1143H10.8571V17.6571H9.07143C8.78727 17.6571 8.51475 17.542 8.31381 17.3371C8.11288 17.1321 8 16.8541 8 16.5643C8 16.2744 8.11288 15.9965 8.31381 15.7915C8.51475 15.5866 8.78727 15.4714 9.07143 15.4714H10.8571V7.09286C10.8572 6.80302 10.97 6.52505 11.171 6.32011C11.3719 6.11516 11.6444 6.00001 11.9286 6H17.2857C18.8012 6 20.2547 6.61408 21.3263 7.70715C22.398 8.80022 23 10.2827 23 11.8286C23 13.3744 22.398 14.8569 21.3263 15.95ZM17.2857 8.18571H13V15.4714H17.2857C18.2329 15.4714 19.1413 15.0876 19.8111 14.4045C20.4809 13.7213 20.8571 12.7947 20.8571 11.8286C20.8571 10.8624 20.4809 9.93585 19.8111 9.25268C19.1413 8.56951 18.2329 8.18571 17.2857 8.18571Z" fill="#F11D00"/>
</svg>
