<svg width="30" height="30" viewBox="0 0 30 30" fill="none" xmlns="http://www.w3.org/2000/svg">
  <path fill-rule="evenodd" clip-rule="evenodd" d="M15 0C6.71582 0 0 6.7157 0 15C0 23.2843 6.71582 30 15 30C23.2842 30 30 23.2843 30 15C30 6.7157 23.2842 0 15 0ZM14.2776 25V22.5999H10.5247C10.3574 22.5999 10.228 22.5571 10.137 22.4718C10.0457 22.3722 10 22.2513 10 22.1091V8.17847C10 8.02197 10.0457 7.90112 10.137 7.8158C10.228 7.71619 10.3574 7.6665 10.5247 7.6665H14.2776V5H15.2776V7.6665H16.7756C17.9163 7.6665 18.844 7.84424 19.5588 8.19983C20.2891 8.54114 20.8213 9.0105 21.1558 9.60779C21.5056 10.2051 21.6807 10.8735 21.6807 11.6132C21.6807 12.1963 21.5742 12.7012 21.3611 13.1278C21.1636 13.5403 20.9126 13.8816 20.6084 14.1519C20.4619 14.2751 20.3171 14.3853 20.1741 14.4822C20.0203 14.5864 19.8684 14.6754 19.7185 14.7491C20.3118 15.0194 20.8364 15.4602 21.2927 16.0718C21.7642 16.6833 22 17.4229 22 18.2905C22 19.0726 21.8098 19.7909 21.4297 20.4452C21.0493 21.0994 20.479 21.6256 19.7185 22.0238C18.9734 22.4078 18.0457 22.5999 16.9353 22.5999H15.2776V25H14.2776ZM16.6387 20.8718H15.2776V15.6877H16.6387C17.6274 15.6877 18.3877 15.9366 18.9202 16.4344C19.4524 16.918 19.7185 17.5367 19.7185 18.2905C19.7185 19.0157 19.4524 19.6273 18.9202 20.1251C18.3877 20.6229 17.6274 20.8718 16.6387 20.8718ZM14.2776 20.8718V15.6877H12.2358V20.8718H14.2776ZM16.4333 13.9811H15.2776V9.39441H16.4333C17.4067 9.39441 18.1445 9.58643 18.6465 9.97046C19.1482 10.3545 19.3992 10.9092 19.3992 11.6345C19.3992 12.3597 19.1482 12.9358 18.6465 13.3624C18.1445 13.7749 17.4067 13.9811 16.4333 13.9811ZM14.2776 13.9811V9.39441H12.2358V13.9811H14.2776Z" fill="#329964"/>
</svg>
