<svg width="30" height="30" viewBox="0 0 30 30" fill="none" xmlns="http://www.w3.org/2000/svg">
  <path fill-rule="evenodd" clip-rule="evenodd" d="M15 0C6.71573 0 0 6.71573 0 15C0 23.2843 6.71573 30 15 30C23.2843 30 30 23.2843 30 15C30 6.71573 23.2843 0 15 0ZM9 14.4979V16.7773L10.7753 15.9585V23H15.4449C16.8934 23 18.1514 22.7939 19.2228 22.379C20.2888 21.9627 21.1805 21.3776 21.8857 20.6183C22.595 19.8575 23.1246 18.9405 23.4745 17.8603C23.8244 16.7801 24 15.574 24 14.2407H19.28C19.28 14.9364 19.2133 15.5823 19.0853 16.1674C18.9573 16.7566 18.7422 17.2669 18.4468 17.6943C18.15 18.1245 17.7566 18.4578 17.2665 18.6985C16.775 18.9391 16.1719 19.0581 15.4476 19.0581V13.8119L17.924 12.6722V10.3928L15.4476 11.5325V9.98893L17.924 8.84924V6.56985L15.4476 7.70954V6H10.7753V9.85754L9 10.6763V12.9544L10.7753 12.1355V13.6791L9 14.4979Z" fill="#A8CC0A"/>
</svg>
