<svg width="40" height="40" viewBox="0 0 40 40" fill="none" xmlns="http://www.w3.org/2000/svg">
  <rect width="40" height="40" rx="15" fill="#2F8FFF"/>
  <path fill-rule="evenodd" clip-rule="evenodd" d="M20 5C11.7157 5 5 11.7157 5 20C5 28.2843 11.7157 35 20 35C28.2843 35 35 28.2843 35 20C35 11.7157 28.2843 5 20 5ZM16.0239 30.1939C16.6404 30.7244 17.3573 31.0971 18.3036 30.9824V21.8209C17.1136 21.6919 15.9809 21.5342 15.178 20.3872C15.4107 20.2783 15.6313 20.1643 15.8459 20.0534C16.253 19.8431 16.6382 19.6441 17.0419 19.5126C18.1745 19.1255 19.0921 19.5987 19.3359 20.76C19.5222 21.6059 19.6226 22.5378 19.4792 23.3837C19.3072 24.416 19.8377 24.8891 20.5115 25.3766C21.3287 24.8318 21.6728 24.2153 21.5008 23.1973C21.3574 22.3801 21.5151 21.4768 21.7015 20.6596C21.9309 19.656 22.7481 19.1685 23.7231 19.4409C24.2059 19.5665 24.6563 19.7896 25.1267 20.0227C25.3547 20.1356 25.5873 20.2509 25.8306 20.3585C25.0308 21.517 23.9258 21.6672 22.822 21.8174C22.7782 21.8233 22.7345 21.8293 22.6908 21.8353V30.9251C23.637 31.0685 24.4686 30.7531 25.3575 29.8785C27.0636 28.1867 27.9382 26.1221 27.9669 23.7135L27.9671 23.6992C27.9957 21.3814 28.0241 19.0778 27.9669 16.7599C27.8952 13.6487 26.6048 11.1683 23.7661 9.77763C18.9487 7.42631 13.4146 10.6665 13.1135 16.0143C12.9414 18.8244 12.9844 21.6632 13.1135 24.4733C13.2282 26.753 14.2605 28.7028 16.0239 30.1939ZM23.8234 22.1937C25.1281 21.9643 25.8306 21.4482 26.5762 20.2582C26.3408 20.1364 26.1135 20.0089 25.8886 19.8829C25.3192 19.5635 24.7659 19.2532 24.1388 19.0682C22.6478 18.5377 21.4148 19.1972 21.085 20.7456C20.9588 21.3315 20.9573 21.9456 20.9557 22.5631C20.9548 22.928 20.9539 23.294 20.9273 23.6561C20.9176 23.8982 20.8425 24.1338 20.7638 24.3805C20.726 24.4991 20.6874 24.6201 20.6549 24.7457C20.0097 24.459 19.9524 24.1006 19.9524 23.6274C19.9524 23.516 19.9527 23.4044 19.9531 23.2927C19.9559 22.3985 19.9587 21.4992 19.7803 20.6453C19.4792 19.2546 18.3609 18.595 17.0132 18.9965C16.3903 19.1814 15.8136 19.4919 15.2203 19.8113C14.9397 19.9624 14.6555 20.1155 14.3608 20.2582C15.092 21.4912 16.0526 22.0217 17.2283 22.2654C17.429 22.3084 17.7588 22.5665 17.7588 22.7242C17.793 24.7589 17.7909 26.7936 17.7886 28.9445C17.788 29.4914 17.7874 30.0458 17.7874 30.6097C17.5994 30.511 17.4222 30.4277 17.2563 30.3497C16.9161 30.1898 16.6233 30.0522 16.3824 29.8498C14.5615 28.3587 13.6583 26.3658 13.5436 24.0432C13.4719 22.5951 13.5006 21.1327 13.5436 19.6703C13.5436 19.4409 13.7873 19.1685 13.988 18.9965C14.1541 18.8606 14.3401 18.7525 14.525 18.6451C14.6913 18.5485 14.8567 18.4524 15.006 18.337C17.2426 16.6595 18.3609 16.6739 20.4685 18.466C20.4984 18.4421 20.5308 18.4207 20.5625 18.3997C20.6069 18.3703 20.6501 18.3417 20.6836 18.3083C22.189 16.8316 23.6084 16.7169 25.3718 17.9212C25.6125 18.0837 25.8583 18.2386 26.1038 18.3933C26.4432 18.6072 26.7822 18.8209 27.1067 19.0538C27.2644 19.1685 27.4077 19.4266 27.4077 19.613C27.4121 19.8494 27.4172 20.0862 27.4222 20.3233C27.4502 21.6384 27.4784 22.9606 27.3934 24.2726C27.25 26.4232 26.3611 28.287 24.7123 29.7208C24.4485 29.9553 24.1247 30.1232 23.7454 30.3199C23.5683 30.4118 23.3791 30.5099 23.1782 30.624V29.4914C23.1782 27.3408 23.1782 25.1902 23.1496 23.0396C23.1496 22.5235 23.2499 22.2941 23.8234 22.1937ZM20.7875 17.7193C20.7244 17.7723 20.6656 17.8217 20.6119 17.8638C20.417 17.7624 20.2245 17.6644 20.0343 17.5675C19.5526 17.3222 19.0856 17.0845 18.6333 16.8172C18.49 16.7312 18.3753 16.4445 18.3896 16.2581C18.4326 15.6129 19.809 14.3082 20.4542 14.2365C21.1854 14.1648 22.7768 15.7849 22.6478 16.5018C22.6334 16.6308 22.4901 16.7599 22.361 16.8316C22.2173 16.91 22.0646 16.9705 21.9125 17.0308C21.7308 17.1029 21.5499 17.1746 21.3861 17.276C21.1655 17.4021 20.9604 17.5742 20.7875 17.7193Z" fill="white"/>
</svg>
