<svg width="30" height="30" viewBox="0 0 30 30" fill="none" xmlns="http://www.w3.org/2000/svg">
  <path fill-rule="evenodd" clip-rule="evenodd" d="M15 0C6.71573 0 0 6.71573 0 15C0 23.2843 6.71573 30 15 30C23.2843 30 30 23.2843 30 15C30 6.71573 23.2843 0 15 0ZM16.0706 16.9458H18.331C18.3204 17.536 18.4807 18.0019 18.812 18.3436C19.1433 18.6853 19.5547 18.9027 20.0464 18.9959V15.75C19.9929 15.7292 19.9181 15.7085 19.8219 15.6878C19.7364 15.6568 19.6402 15.6309 19.5334 15.6102C19.1379 15.5066 18.7478 15.3876 18.3631 15.253C17.9784 15.108 17.631 14.9216 17.3211 14.6938C17.0218 14.4557 16.7814 14.1658 16.5997 13.8241C16.418 13.4721 16.3271 13.0372 16.3271 12.5195C16.3271 11.9915 16.4287 11.5255 16.6317 11.1217C16.8455 10.7179 17.1234 10.3814 17.4654 10.1122C17.8074 9.83265 18.2028 9.6204 18.6517 9.47544C19.1005 9.32013 19.5654 9.22695 20.0464 9.19588V8H20.9922V9.19588C21.4731 9.24765 21.922 9.35119 22.3388 9.5065C22.7663 9.65146 23.1404 9.85854 23.461 10.1277C23.7816 10.3866 24.0435 10.7127 24.2465 11.1062C24.4496 11.4996 24.5672 11.9656 24.5992 12.504H22.3228C22.3121 12.0898 22.1785 11.7378 21.922 11.4479C21.6655 11.158 21.3556 11.013 20.9922 11.013V13.762L21.377 13.8552C21.5159 13.8862 21.6602 13.9225 21.8098 13.9639C22.6007 14.171 23.2099 14.4298 23.6374 14.7404C24.0648 15.0407 24.3801 15.3565 24.5832 15.6878C24.7863 16.0192 24.9038 16.3505 24.9359 16.6818C24.9786 17.0131 25 17.3082 25 17.5671C25 17.7949 24.9412 18.0848 24.8237 18.4368C24.7061 18.7785 24.4923 19.115 24.1824 19.4463C23.8832 19.7776 23.477 20.0727 22.964 20.3316C22.451 20.5904 21.7938 20.7457 20.9922 20.7975V22.1176H20.0464V20.7975C18.8494 20.7147 17.9142 20.3575 17.2409 19.7259C16.5676 19.0943 16.1775 18.1676 16.0706 16.9458ZM20.9922 16.014V18.9959C21.1846 18.9752 21.3823 18.9338 21.5854 18.8717C21.7991 18.7992 21.9861 18.7008 22.1465 18.5766C22.3175 18.4523 22.4564 18.3022 22.5633 18.1262C22.6701 17.9398 22.7236 17.7224 22.7236 17.4739C22.7236 17.0701 22.59 16.7698 22.3228 16.5731C22.0663 16.366 21.6228 16.1796 20.9922 16.014ZM20.0464 13.5446V11.013C19.8647 11.013 19.6883 11.0389 19.5173 11.0907C19.3463 11.1424 19.1914 11.2253 19.0524 11.3392C18.9135 11.4427 18.8013 11.5773 18.7158 11.743C18.641 11.8983 18.6036 12.0846 18.6036 12.3021C18.6036 12.6438 18.7158 12.9078 18.9402 13.0942C19.1647 13.2805 19.5334 13.4307 20.0464 13.5446ZM10.5788 12.1934L9.08795 16.2625H12.0537L10.6109 12.1934H10.5788ZM5 20.549L9.32841 9.45991H11.9094L16.1898 20.549H13.5767L12.711 18.0796H8.43067L7.53292 20.549H5Z" fill="#6965FF"/>
</svg>
