<svg width="30" height="30" viewBox="0 0 30 30" fill="none" xmlns="http://www.w3.org/2000/svg">
  <path fill-rule="evenodd" clip-rule="evenodd" d="M15 0C6.71573 0 0 6.71573 0 15C0 23.2843 6.71573 30 15 30C23.2843 30 30 23.2843 30 15C30 6.71573 23.2843 0 15 0ZM18.2871 20.2793C18.5982 20.3467 18.925 20.383 19.2672 20.3882V21.944H20.224V20.3571C20.6441 20.3052 21.0408 20.2093 21.4142 20.0693C21.7876 19.9293 22.1143 19.7426 22.3943 19.5092C22.6795 19.2758 22.9051 18.9958 23.0711 18.6691C23.237 18.3372 23.32 17.9508 23.32 17.51C23.32 17.0692 23.2292 16.6907 23.0477 16.3743C22.8662 16.0528 22.6303 15.778 22.3399 15.5498C22.0495 15.3216 21.7202 15.1297 21.352 14.9741C20.9889 14.8186 20.6207 14.6837 20.2474 14.5696V11.5281C20.4496 11.5489 20.6389 11.58 20.8152 11.6215C20.9967 11.663 21.1627 11.72 21.3131 11.7926C21.4686 11.8652 21.6061 11.956 21.7253 12.0649C21.8446 12.1738 21.9431 12.306 22.0209 12.4616L23.1489 11.9482C23.0814 11.7148 22.9855 11.5126 22.861 11.3414C22.7366 11.1651 22.5914 11.0173 22.4254 10.898C22.2595 10.7736 22.0806 10.6725 21.8887 10.5947C21.702 10.5169 21.5101 10.4546 21.3131 10.408C21.1212 10.3561 20.9345 10.3198 20.753 10.2991C20.5715 10.2783 20.4055 10.2628 20.2551 10.2524V9H19.2906V10.2757C18.9016 10.3224 18.5308 10.408 18.1782 10.5324C17.8307 10.6569 17.5222 10.828 17.2525 11.0458C16.988 11.2585 16.7754 11.5203 16.6146 11.8315C16.4591 12.1375 16.3813 12.4927 16.3813 12.8972C16.3813 13.281 16.4279 13.618 16.5213 13.9084C16.6198 14.1937 16.7806 14.4504 17.0036 14.6786C17.2318 14.9015 17.53 15.1038 17.8982 15.2853C18.2663 15.4616 18.7227 15.6328 19.2672 15.7987V19.0814C18.9716 19.0658 18.7071 19.0191 18.4738 18.9414C18.2456 18.8584 18.0434 18.7598 17.867 18.6458C17.6907 18.5265 17.5403 18.3994 17.4159 18.2646C17.2914 18.1246 17.1877 17.9872 17.1047 17.8523C16.9543 17.9612 16.8039 18.0649 16.6535 18.1635C16.5083 18.2568 16.3579 18.3605 16.2024 18.4746C16.332 18.8169 16.5006 19.1099 16.708 19.3536C16.9154 19.5922 17.1514 19.7892 17.4159 19.9448C17.6855 20.0952 17.9759 20.2067 18.2871 20.2793ZM21.6631 17.0822C21.7461 17.2326 21.7876 17.4089 21.7876 17.6112C21.7876 17.7771 21.7565 17.9379 21.6942 18.0935C21.6372 18.249 21.5464 18.3916 21.422 18.5213C21.2975 18.6509 21.1367 18.7624 20.9397 18.8558C20.7478 18.9491 20.517 19.0114 20.2474 19.0425V16.1021C20.4548 16.1799 20.6519 16.2654 20.8386 16.3588C21.0252 16.4469 21.1886 16.5507 21.3286 16.6699C21.4686 16.7892 21.5801 16.9266 21.6631 17.0822ZM17.9759 13.3639C17.9085 13.2187 17.8748 13.045 17.8748 12.8427C17.8748 12.739 17.8904 12.6249 17.9215 12.5005C17.9578 12.3708 18.0252 12.2464 18.1237 12.1271C18.2275 12.0026 18.3701 11.8911 18.5516 11.7926C18.7383 11.6889 18.982 11.6085 19.2828 11.5515V14.2663C19.0805 14.1937 18.8938 14.1159 18.7227 14.0329C18.5516 13.9499 18.4012 13.854 18.2715 13.7451C18.1471 13.6362 18.0485 13.5091 17.9759 13.3639ZM7 9.70787V20.6916H8.52465V15.9698H10.4538C10.8531 15.9698 11.1798 16.0087 11.4339 16.0865C11.688 16.1591 11.8955 16.2758 12.0562 16.4366C12.217 16.5973 12.3389 16.8048 12.4218 17.0589C12.51 17.3078 12.5852 17.6086 12.6474 17.9612C12.7097 18.3087 12.7693 18.7106 12.8263 19.1669C12.8886 19.6181 12.9741 20.1263 13.0831 20.6916H14.7166C14.5507 20.1523 14.4314 19.6596 14.3588 19.2136C14.2862 18.7624 14.2239 18.3553 14.1721 17.9923C14.1202 17.6241 14.0632 17.2974 14.001 17.0122C13.9439 16.7218 13.8454 16.4677 13.7054 16.2499C13.5705 16.0269 13.3812 15.8402 13.1375 15.6898C12.899 15.5342 12.5722 15.4072 12.1574 15.3086C12.4685 15.1894 12.7486 15.0467 12.9975 14.8808C13.2464 14.7149 13.4564 14.5204 13.6276 14.2974C13.8039 14.0692 13.9387 13.8151 14.0321 13.5351C14.1254 13.2498 14.1721 12.9309 14.1721 12.5783C14.1721 12.0337 14.0632 11.5774 13.8454 11.2092C13.6276 10.841 13.3398 10.5454 12.9819 10.3224C12.6293 10.0994 12.2248 9.94124 11.7684 9.84789C11.3121 9.75455 10.8453 9.70787 10.3682 9.70787H7ZM10.3216 14.8186H8.51687V11.0536H10.1193C10.3994 11.0536 10.6846 11.0692 10.975 11.1003C11.2706 11.1262 11.5377 11.1988 11.7762 11.3181C12.0148 11.4322 12.2092 11.6033 12.3596 11.8315C12.51 12.0597 12.5852 12.3708 12.5852 12.765C12.5852 13.1435 12.5256 13.4651 12.4063 13.7295C12.2922 13.9888 12.1314 14.1989 11.924 14.3596C11.7218 14.5204 11.4832 14.6371 11.2084 14.7097C10.9335 14.7823 10.6379 14.8186 10.3216 14.8186Z" fill="#9AD718"/>
</svg>
