<svg width="30" height="30" viewBox="0 0 30 30" fill="none" xmlns="http://www.w3.org/2000/svg">
  <path fill-rule="evenodd" clip-rule="evenodd" d="M15 0C6.71573 0 0 6.71573 0 15C0 23.2843 6.71573 30 15 30C23.2843 30 30 23.2843 30 15C30 6.71573 23.2843 0 15 0ZM11.232 7H20.5923C20.8174 7 20.9999 7.18243 21 7.4073V9.61334C21 9.83832 20.8176 10.0207 20.5926 10.0207H13.308V12.5507H18.4053C18.6303 12.5507 18.8127 12.7331 18.8127 12.9581V15.1641C18.8127 15.3891 18.6303 15.5715 18.4053 15.5715H13.308V17.4566H16.0797C16.3048 17.4566 16.4872 17.639 16.4872 17.8641V20.0701C16.4872 20.2952 16.3048 20.4776 16.0797 20.4776H13.308V24.3101C13.308 24.5352 13.1256 24.7176 12.9005 24.7176H10.6945C10.4694 24.7176 10.287 24.5352 10.287 24.3101V20.4775H8.4075C8.18243 20.4775 8 20.2951 8 20.07V17.864C8 17.6389 8.18243 17.4565 8.4075 17.4565H10.287V7.94503C10.287 7.42307 10.7101 7 11.232 7Z" fill="#F4D42D"/>
</svg>
