<svg width="30" height="30" viewBox="0 0 30 30" fill="none" xmlns="http://www.w3.org/2000/svg">
  <path fill-rule="evenodd" clip-rule="evenodd" d="M15 0C6.71573 0 0 6.71573 0 15C0 23.2843 6.71573 30 15 30C23.2843 30 30 23.2843 30 15C30 6.71573 23.2843 0 15 0ZM21 22.6136V18.1825C21 18.0779 20.9647 17.9873 20.8941 17.9109C20.8235 17.8344 20.7333 17.7962 20.6235 17.7962H18.7176C18.6078 17.7962 18.5176 17.8344 18.4471 17.9109C18.3765 17.9873 18.3412 18.0779 18.3412 18.1825V20.3679H13.4706V15.7919H17.0588C17.1608 15.7919 17.249 15.7537 17.3235 15.6772C17.398 15.6007 17.4353 15.5102 17.4353 15.4055V13.8239C17.4353 13.7112 17.398 13.6186 17.3235 13.5462C17.249 13.4737 17.1608 13.4375 17.0588 13.4375H13.4706V10.8416C13.4706 10.2299 13.6745 9.73485 14.0824 9.35653C14.4902 8.97822 15.0275 8.78906 15.6941 8.78906C16.0471 8.78906 16.4118 8.86151 16.7882 9.00639C17.1647 9.15128 17.4353 9.28007 17.6 9.39276C17.7647 9.50544 17.8667 9.58191 17.9059 9.62216C17.9843 9.6946 18.0745 9.72277 18.1765 9.70668C18.2784 9.69863 18.3647 9.65033 18.4353 9.56179L19.6471 8.02841C19.7098 7.94792 19.7373 7.85736 19.7294 7.75675C19.7216 7.65613 19.6824 7.57363 19.6118 7.50923C18.4353 6.50308 17.1216 6 15.6706 6C14.1725 6 12.9392 6.44673 11.9706 7.3402C11.002 8.23366 10.5176 9.36861 10.5176 10.745V13.4375H9.4C9.2902 13.4375 9.2 13.4737 9.12941 13.5462C9.05882 13.6186 9.02353 13.7112 9.02353 13.8239V15.4055C9.02353 15.5102 9.05882 15.6007 9.12941 15.6772C9.2 15.7537 9.2902 15.7919 9.4 15.7919H10.5176V20.4162H9.37647C9.27451 20.4162 9.18627 20.4544 9.11176 20.5309C9.03726 20.6074 9 20.6979 9 20.8026V22.6136C9 22.7263 9.03529 22.8189 9.10588 22.8913C9.17647 22.9638 9.26667 23 9.37647 23H20.6235C20.7333 23 20.8235 22.9638 20.8941 22.8913C20.9647 22.8189 21 22.7263 21 22.6136Z" fill="#F26631"/>
</svg>
