<svg width="30" height="30" viewBox="0 0 30 30" fill="none" xmlns="http://www.w3.org/2000/svg">
  <path fill-rule="evenodd" clip-rule="evenodd" d="M15 0C6.71573 0 0 6.71573 0 15C0 23.2843 6.71573 30 15 30C23.2843 30 30 23.2843 30 15C30 6.71573 23.2843 0 15 0ZM23.3883 10.8542V10H22.7951V10.8542C22.02 10.9254 21.3873 11.1587 20.8969 11.5541C20.4145 11.9417 20.1732 12.5072 20.1732 13.2507C20.1732 13.9467 20.4184 14.4845 20.9088 14.8641C21.4071 15.2359 22.0358 15.4771 22.7951 15.5878V18.4826C21.8065 18.3956 21.3121 17.8657 21.3121 16.8928C21.3121 16.8454 21.3161 16.8019 21.324 16.7623H19.9715V16.8691C19.9715 17.7154 20.2325 18.3679 20.7545 18.8266C21.2845 19.2853 21.9646 19.5147 22.7951 19.5147V20.535H23.3883V19.5147C24.2267 19.5147 24.9029 19.2814 25.417 18.8147C25.939 18.3481 26.2 17.7431 26.2 16.9996C26.2 15.6313 25.2628 14.7929 23.3883 14.4845V11.8745C23.8154 11.9219 24.1357 12.0445 24.3493 12.2422C24.5707 12.4321 24.6814 12.7326 24.6814 13.1439V13.2269H25.9627V13.049C25.9627 12.3925 25.7294 11.8666 25.2628 11.4711C24.804 11.0756 24.1792 10.87 23.3883 10.8542ZM22.7951 11.8863V14.354C22.368 14.2512 22.0358 14.1128 21.7986 13.9388C21.5692 13.7648 21.4545 13.4919 21.4545 13.1202C21.4545 12.7642 21.5731 12.4795 21.8104 12.266C22.0477 12.0445 22.3759 11.918 22.7951 11.8863ZM23.3883 18.4944V15.7183C24.369 15.916 24.8594 16.3669 24.8594 17.0708C24.8594 17.4821 24.7249 17.8182 24.456 18.0792C24.1871 18.3402 23.8312 18.4786 23.3883 18.4944ZM10.8335 10.9016V19.3486H9.35054V15.5522H5.48297V19.3486H4V10.9016H5.48297V14.2591H9.35054V10.9016H10.8335ZM19.6563 10.9016L16.2752 14.2709L19.8699 19.3486H18.031L15.2549 15.3031L14.0448 16.5132V19.3486H12.5737V10.9016H14.0448V14.7336L17.7819 10.9016H19.6563Z" fill="#BB002C"/>
</svg>
