<svg width="30" height="30" viewBox="0 0 30 30" fill="none" xmlns="http://www.w3.org/2000/svg">
  <path fill-rule="evenodd" clip-rule="evenodd" d="M15 0C6.71573 0 0 6.71573 0 15C0 23.2843 6.71573 30 15 30C23.2843 30 30 23.2843 30 15C30 6.71573 23.2843 0 15 0ZM21.9488 16.6667H24.3333C24.5101 16.6667 24.6797 16.7369 24.8047 16.8619C24.9298 16.987 25 17.1565 25 17.3333C25 17.5101 24.9298 17.6797 24.8047 17.8047C24.6797 17.9298 24.5101 18 24.3333 18H21.4071L19.951 21.5842C19.9011 21.7071 19.8157 21.8123 19.7056 21.8864C19.5956 21.9604 19.466 22 19.3333 22C19.2007 22 19.0711 21.9604 18.961 21.8864C18.851 21.8123 18.7656 21.7071 18.7157 21.5842L17.2596 18H12.7404L11.2843 21.5842C11.2344 21.7071 11.149 21.8123 11.039 21.8864C10.9289 21.9604 10.7993 22 10.6667 22C10.534 22 10.4044 21.9604 10.2944 21.8864C10.1843 21.8123 10.0989 21.7071 10.049 21.5842L8.5929 18H5.66667C5.48986 18 5.32029 17.9298 5.19526 17.8047C5.07024 17.6797 5 17.5101 5 17.3333C5 17.1565 5.07024 16.987 5.19526 16.8619C5.32029 16.7369 5.48986 16.6667 5.66667 16.6667H8.05123L7.50956 15.3333H5.66667C5.48986 15.3333 5.32029 15.2631 5.19526 15.1381C5.07024 15.013 5 14.8435 5 14.6667C5 14.4899 5.07024 14.3203 5.19526 14.1953C5.32029 14.0702 5.48986 14 5.66667 14H6.9679L5.71566 10.9176C5.64933 10.7538 5.65074 10.5704 5.71956 10.4076C5.78838 10.2449 5.91899 10.1161 6.0827 10.0496C6.24641 9.98314 6.42981 9.98435 6.59263 10.053C6.75544 10.1217 6.88434 10.2521 6.95101 10.4158L8.4071 14H12.9262L14.3823 10.4158C14.4322 10.2929 14.5177 10.1877 14.6277 10.1136C14.7377 10.0396 14.8674 10 15 10C15.1326 10 15.2623 10.0396 15.3723 10.1136C15.4823 10.1877 15.5678 10.2929 15.6177 10.4158L17.0738 14H21.5929L23.049 10.4158C23.1157 10.2521 23.2446 10.1217 23.4074 10.053C23.5702 9.98435 23.7536 9.98314 23.9173 10.0496C24.081 10.1161 24.2116 10.2449 24.2804 10.4076C24.3493 10.5704 24.3507 10.7538 24.2843 10.9176L23.0321 14H24.3333C24.5101 14 24.6797 14.0702 24.8047 14.1953C24.9298 14.3203 25 14.4899 25 14.6667C25 14.8435 24.9298 15.013 24.8047 15.1381C24.6797 15.2631 24.5101 15.3333 24.3333 15.3333H22.4904L21.9488 16.6667ZM20.5096 16.6667L21.0513 15.3333H17.6154L18.1571 16.6667H20.5096ZM15.6346 14L15 12.4379L14.3654 14H15.6346ZM12.3846 15.3333H8.94873L9.4904 16.6667H11.8429L12.3846 15.3333ZM10.0321 18L10.6667 19.5621L11.3013 18H10.0321ZM13.8237 15.3333L13.2821 16.6667H16.7179L16.1763 15.3333H13.8237ZM18.6987 18L19.3333 19.5621L19.9679 18H18.6987Z" fill="#FF5B9A"/>
</svg>
