<svg width="30" height="30" viewBox="0 0 30 30" fill="none" xmlns="http://www.w3.org/2000/svg">
  <path fill-rule="evenodd" clip-rule="evenodd" d="M15 0C6.71573 0 0 6.71573 0 15C0 23.2843 6.71573 30 15 30C23.2843 30 30 23.2843 30 15C30 6.71573 23.2843 0 15 0ZM12.2658 22.6694C12.7532 22.775 13.265 22.8319 13.8012 22.84V25.2772H15.3001V22.7913C15.9581 22.71 16.5796 22.5597 17.1645 22.3404C17.7494 22.121 18.2612 21.8286 18.6999 21.463C19.1467 21.0974 19.5001 20.6587 19.7601 20.1469C20.02 19.627 20.15 19.0218 20.15 18.3313C20.15 17.6407 20.0078 17.0477 19.7235 16.5521C19.4392 16.0485 19.0695 15.6179 18.6146 15.2604C18.1597 14.903 17.6438 14.6024 17.067 14.3587C16.4983 14.115 15.9215 13.9038 15.3366 13.725V8.96038C15.6534 8.99288 15.95 9.04162 16.2262 9.10661C16.5105 9.1716 16.7705 9.26097 17.0061 9.3747C17.2498 9.48843 17.4651 9.6306 17.6519 9.8012C17.8388 9.9718 17.9931 10.179 18.115 10.4227L19.8819 9.61842C19.7763 9.25284 19.626 8.93601 19.431 8.66792C19.2361 8.39171 19.0086 8.16018 18.7486 7.97333C18.4887 7.77836 18.2084 7.61995 17.9078 7.49809C17.6154 7.37623 17.3148 7.27874 17.0061 7.20563C16.7055 7.12439 16.413 7.06752 16.1287 7.03503C15.8444 7.00253 15.5844 6.97816 15.3488 6.96191V5H13.8378V6.99847C13.2285 7.07159 12.6476 7.20563 12.0952 7.4006C11.5509 7.59557 11.0675 7.86366 10.6451 8.20486C10.2308 8.53794 9.89769 8.9482 9.64585 9.43563C9.40213 9.91494 9.28027 10.4714 9.28027 11.1051C9.28027 11.7062 9.35339 12.2343 9.49962 12.6892C9.65397 13.136 9.90581 13.5382 10.2551 13.8956C10.6126 14.245 11.0797 14.5618 11.6565 14.8461C12.2333 15.1223 12.9482 15.3904 13.8012 15.6504V20.7928C13.3381 20.7684 12.9238 20.6953 12.5583 20.5734C12.2008 20.4435 11.884 20.2891 11.6078 20.1104C11.3315 19.9235 11.096 19.7245 10.901 19.5133C10.706 19.2939 10.5435 19.0787 10.4136 18.8674C10.178 19.038 9.94237 19.2005 9.70678 19.3549C9.47931 19.5011 9.24372 19.6636 9 19.8423C9.2031 20.3785 9.46712 20.8375 9.79208 21.2193C10.117 21.593 10.4867 21.9017 10.901 22.1454C11.3234 22.381 11.7784 22.5557 12.2658 22.6694ZM17.5544 17.661C17.6844 17.8966 17.7494 18.1728 17.7494 18.4897C17.7494 18.7496 17.7007 19.0015 17.6032 19.2452C17.5138 19.4889 17.3716 19.7123 17.1767 19.9154C16.9817 20.1185 16.7299 20.2932 16.4211 20.4394C16.1206 20.5856 15.7591 20.6831 15.3366 20.7319V16.1256C15.6616 16.2475 15.9703 16.3815 16.2627 16.5278C16.5552 16.6659 16.8111 16.8283 17.0304 17.0152C17.2498 17.202 17.4244 17.4173 17.5544 17.661ZM11.7784 11.8362C11.6728 11.6088 11.6199 11.3366 11.6199 11.0198C11.6199 10.8573 11.6443 10.6786 11.6931 10.4836C11.7499 10.2805 11.8555 10.0855 12.0099 9.89869C12.1724 9.70372 12.3958 9.52905 12.6801 9.3747C12.9726 9.21222 13.3544 9.0863 13.8256 8.99694V13.2498C13.5087 13.136 13.2163 13.0142 12.9482 12.8842C12.6801 12.7542 12.4445 12.6039 12.2414 12.4333C12.0464 12.2627 11.8921 12.0637 11.7784 11.8362Z" fill="#73AF00"/>
  </svg>
