<svg width="30" height="30" viewBox="0 0 30 30" fill="none" xmlns="http://www.w3.org/2000/svg">
  <path fill-rule="evenodd" clip-rule="evenodd" d="M15 0C6.71573 0 0 6.71573 0 15C0 23.2843 6.71573 30 15 30C23.2843 30 30 23.2843 30 15C30 6.71573 23.2843 0 15 0ZM15.5686 15.7735H21.95C22.5301 15.7735 23 16.2443 23 16.8244C23 17.4042 22.53 17.8744 21.9499 17.8744H13.4873C12.9239 18.7636 12.6952 19.7892 13.1309 21.0179C14.0372 23.5735 17.5361 23.0746 19.4451 22.1441C20.6574 21.5538 21.7226 23.3643 20.5051 23.9576C18.0391 25.159 14.3956 25.6964 12.2716 23.5049C10.736 21.9209 10.5211 19.7693 11.2035 17.8741H9.05004C8.47008 17.8741 8 17.4039 8 16.8241C8 16.244 8.47013 15.7741 9.05004 15.7741H12.4284C12.602 15.5716 12.7866 15.3785 12.9833 15.1975C13.4327 14.7851 13.9127 14.4135 14.4014 14.0526H9.05004C8.47008 14.0526 8 13.5825 8 13.0026C8 12.4227 8.47013 11.9526 9.05004 11.9526H17.0993C17.9937 11.1039 18.769 10.0303 18.6655 8.75019C18.5738 7.6209 17.6949 6.66027 16.6367 6.31238C15.0898 5.80379 13.5194 6.13925 12.1049 6.88233C10.9073 7.51151 9.84591 5.69891 11.045 5.06889C13.8947 3.57182 17.987 3.34902 19.9789 6.36273C20.7687 7.5576 21.0043 9.12981 20.532 10.4952C20.3486 11.0247 20.0993 11.5046 19.8072 11.952H21.95C22.5301 11.952 23 12.422 23 13.002C23 13.5819 22.53 14.052 21.95 14.052H17.866C17.7295 14.1645 17.5912 14.2761 17.4491 14.3847C17.177 14.5932 16.884 14.8053 16.5826 15.0236C16.2494 15.265 15.9058 15.5138 15.5686 15.7735Z" fill="#EDC713"/>
</svg>
