<svg width="30" height="30" viewBox="0 0 30 30" fill="none" xmlns="http://www.w3.org/2000/svg">
  <path fill-rule="evenodd" clip-rule="evenodd" d="M15 0C6.71573 0 0 6.71573 0 15C0 23.2843 6.71573 30 15 30C23.2843 30 30 23.2843 30 15C30 6.71573 23.2843 0 15 0ZM14.1957 24.9607C14.2963 25.0702 14.4256 25.125 14.5837 25.125H16.3731C16.5169 25.125 16.639 25.0702 16.7396 24.9607C16.8546 24.8512 16.9121 24.7103 16.9121 24.5382V22.8951C17.9326 22.7543 18.8237 22.4648 19.5854 22.0267C20.3472 21.5885 20.9364 21.0174 21.3532 20.3132C21.7844 19.609 22 18.7953 22 17.8721C22 16.9175 21.8132 16.1273 21.4395 15.5014C21.0658 14.8598 20.4765 14.3434 19.6716 13.9522C18.8668 13.5454 17.8104 13.2089 16.5025 12.9429C15.712 12.7551 15.0868 12.5752 14.6269 12.4031C14.1669 12.2309 13.8364 12.0275 13.6352 11.7928C13.4483 11.5581 13.3549 11.2842 13.3549 10.9712C13.3549 10.4705 13.5345 10.1028 13.8939 9.86806C14.2532 9.61768 14.7418 9.4925 15.3599 9.4925C15.9491 9.4925 16.4306 9.62551 16.8043 9.89153C17.178 10.1419 17.408 10.4392 17.4942 10.7835C17.5804 10.9243 17.681 11.026 17.796 11.0886C17.911 11.1512 18.0475 11.1825 18.2056 11.1825H21.0514C21.1808 11.1825 21.2886 11.1356 21.3748 11.0417C21.461 10.9321 21.5041 10.8148 21.5041 10.6896C21.4898 10.1263 21.3029 9.53944 20.9436 8.92917C20.5987 8.31889 20.0884 7.7712 19.4129 7.28611C18.7374 6.80102 17.9038 6.46458 16.9121 6.27681V4.5868C16.9121 4.41468 16.8546 4.27384 16.7396 4.1643C16.639 4.05477 16.5169 4 16.3731 4H14.5837C14.4256 4 14.2963 4.05477 14.1957 4.1643C14.0951 4.27384 14.0448 4.41468 14.0448 4.5868V6.22986C12.5931 6.44893 11.4505 6.99662 10.6169 7.87292C9.79768 8.74921 9.38806 9.81329 9.38806 11.0651C9.38806 12.0353 9.58928 12.849 9.99171 13.5062C10.3941 14.1478 10.9762 14.672 11.738 15.0789C12.5141 15.4701 13.4483 15.7909 14.5406 16.0413C15.3886 16.229 16.0641 16.4168 16.5672 16.6046C17.0846 16.7767 17.4583 16.9801 17.6882 17.2149C17.9182 17.4339 18.0332 17.7156 18.0332 18.0599C18.0332 18.545 17.8176 18.9283 17.3864 19.21C16.9696 19.4917 16.3444 19.6325 15.5108 19.6325C15.0077 19.6325 14.5837 19.5699 14.2388 19.4447C13.9082 19.3039 13.6352 19.1239 13.4196 18.9049C13.2184 18.6858 13.0603 18.4589 12.9453 18.2242C12.8447 18.099 12.7441 17.9973 12.6434 17.919C12.5428 17.8408 12.3919 17.8017 12.1907 17.8017H9.47429C9.34494 17.8017 9.22996 17.8564 9.12935 17.966C9.04312 18.0599 9 18.1694 9 18.2946C9.02874 19.0144 9.22996 19.7029 9.60365 20.3601C9.97734 21.0017 10.5307 21.5494 11.2637 22.0032C12.0111 22.457 12.9381 22.7621 14.0448 22.9186V24.5382C14.0448 24.7103 14.0951 24.8512 14.1957 24.9607Z" fill="#62D64D"/>
</svg>
