<svg width="30" height="30" viewBox="0 0 30 30" fill="none" xmlns="http://www.w3.org/2000/svg">
  <path fill-rule="evenodd" clip-rule="evenodd" d="M15 0C6.71582 0 0 6.7157 0 15C0 23.2843 6.71582 30 15 30C23.2842 30 30 23.2843 30 15C30 6.7157 23.2842 0 15 0ZM19.5098 7.48816H21V5.40381H19.5098V4H16.9553V5.40381H13.7336V7.48816H16.9553V10.395C16.2646 9.32678 15.1387 8.79272 13.5774 8.79272C11.8933 8.79272 10.5427 9.3811 9.52563 10.5581C8.50854 11.735 8 13.3444 8 15.3862C8 17.3619 8.54175 18.9547 9.625 20.1648C10.7083 21.3748 12.0684 21.9797 13.7053 21.9797C15.1719 21.9797 16.2834 21.3889 17.0403 20.2073V21.6962H19.5098V7.48816ZM16.1604 18.8248C15.5928 19.5385 14.8406 19.8954 13.9038 19.8954C11.7183 19.8954 10.6255 18.4017 10.6255 15.4146C10.6255 13.9777 10.8975 12.8646 11.4417 12.0753C11.9856 11.286 12.7781 10.8912 13.8188 10.8912C15.9475 10.8912 17.012 12.4794 17.012 15.6556C17.012 17.0547 16.7283 18.1111 16.1604 18.8248ZM8.3833 25H19.5098V22.9156H8.3833V25Z" fill="#E34646"/>
</svg>
