<svg width="34" height="34" viewBox="0 0 34 34" fill="none" xmlns="http://www.w3.org/2000/svg">
  <circle cx="17" cy="17" r="17" fill="#35354C"/>
  <path fill-rule="evenodd" clip-rule="evenodd" d="M7.85478 12.8419C7.74976 12.7296 7.62597 12.6365 7.48895 12.5667C7.36134 12.504 7.20921 12.4728 7.03285 12.4728C6.86094 12.4728 6.71132 12.504 6.58371 12.5669C6.45554 12.6296 6.34911 12.7155 6.26329 12.8247C6.17692 12.9333 6.11228 13.0587 6.06826 13.2008C6.02368 13.3424 6.00195 13.4897 6.00195 13.643C6.00195 13.7962 6.02758 13.9411 6.07857 14.0785C6.12955 14.215 6.20172 14.3348 6.2945 14.4371C6.38728 14.5393 6.49873 14.6193 6.62884 14.6775C6.76734 14.7372 6.9169 14.7668 7.06767 14.7644C7.24404 14.7644 7.39506 14.7332 7.52044 14.6705C7.64582 14.6076 7.762 14.5159 7.86871 14.3953L8.31451 14.8411C8.16073 15.0163 7.96565 15.1504 7.74696 15.2311C7.52697 15.3107 7.29465 15.3508 7.06071 15.3495C6.80521 15.3495 6.57201 15.3078 6.36053 15.2242C6.1563 15.1452 5.9703 15.0255 5.81388 14.8723C5.65835 14.7183 5.53727 14.5332 5.45863 14.329C5.37505 14.1178 5.33325 13.8845 5.33325 13.6291C5.33325 13.3736 5.37505 13.1392 5.45863 12.9255C5.54222 12.7118 5.65924 12.5285 5.81025 12.3753C5.96127 12.222 6.14237 12.1022 6.35357 12.0167C6.56532 11.9303 6.80075 11.8877 7.06071 11.8877C7.30227 11.8877 7.53325 11.9306 7.75364 12.0167C7.97431 12.1025 8.166 12.234 8.32844 12.4101L7.85478 12.8419ZM8.97484 10H9.60174V12.4728H9.61567C9.69452 12.2964 9.83133 12.1535 10.0264 12.0445C10.2214 11.9353 10.4465 11.8807 10.7017 11.8807C10.8597 11.8807 11.0118 11.9049 11.1581 11.954C11.3044 12.0027 11.432 12.078 11.5412 12.1802C11.6505 12.2825 11.7374 12.4134 11.8023 12.5739C11.8675 12.7341 11.8998 12.9233 11.8998 13.1415V15.266H11.2729V13.3156C11.2729 13.1624 11.252 13.0314 11.2102 12.9222C11.1684 12.813 11.1127 12.7244 11.0431 12.6575C10.9751 12.5911 10.8928 12.5411 10.8026 12.5112C10.7117 12.4807 10.6163 12.4654 10.5204 12.4658C10.3905 12.4658 10.2696 12.4867 10.1582 12.5285C10.0467 12.5703 9.94918 12.6363 9.8656 12.7269C9.78201 12.8177 9.71709 12.9325 9.67056 13.0718C9.62431 13.2111 9.60091 13.3761 9.60091 13.5664V15.266H8.97401V10H8.97484ZM12.9853 12.3683C13.1623 12.2055 13.371 12.0809 13.5983 12.0025C13.822 11.9229 14.0575 11.8817 14.2949 11.8807C14.5361 11.8807 14.7434 11.9108 14.9179 11.9713C15.092 12.0317 15.2349 12.1128 15.3464 12.215C15.4578 12.3173 15.5403 12.4343 15.5935 12.5667C15.6473 12.6993 15.6743 12.8369 15.6743 12.9813V14.6669C15.6743 14.7831 15.6763 14.8898 15.681 14.9873C15.6857 15.0849 15.6927 15.1776 15.7019 15.266H15.1447C15.1307 15.0988 15.1235 14.9316 15.1235 14.7644H15.1095C14.9702 14.9781 14.8053 15.1289 14.615 15.2172C14.4244 15.3055 14.2037 15.3495 13.953 15.3495C13.7997 15.3495 13.6535 15.3286 13.5142 15.2869C13.3748 15.2451 13.2522 15.1824 13.148 15.0988C13.0436 15.0152 12.9592 14.9094 12.9009 14.789C12.8402 14.6658 12.8101 14.5229 12.8101 14.3604C12.8101 14.1467 12.8574 13.9681 12.9527 13.8241C13.048 13.68 13.1784 13.563 13.3428 13.4725C13.5077 13.3816 13.7006 13.3164 13.9209 13.2774C14.1419 13.2379 14.3779 13.2181 14.6286 13.2181H15.0884V13.0788C15.0872 12.9005 15.0172 12.7295 14.8931 12.6015C14.8238 12.5317 14.7406 12.4772 14.649 12.4416C14.5515 12.402 14.4353 12.3822 14.3007 12.3822C14.1801 12.3822 14.0742 12.3939 13.9836 12.417C13.8931 12.4402 13.8109 12.4691 13.7365 12.5043C13.6618 12.5391 13.5944 12.5795 13.5342 12.626C13.4738 12.6725 13.4158 12.7166 13.3601 12.7584L12.9839 12.3683H12.9853ZM14.7546 13.6778C14.6058 13.6778 14.4537 13.6862 14.2976 13.7021C14.1528 13.7161 14.0102 13.7477 13.873 13.7962C13.7551 13.8366 13.6479 13.9033 13.5596 13.9913C13.4788 14.0748 13.4381 14.1816 13.4381 14.3117C13.4381 14.502 13.5022 14.6391 13.6295 14.7226C13.7577 14.8062 13.9304 14.848 14.1489 14.848C14.3208 14.848 14.467 14.819 14.5877 14.7608C14.708 14.7029 14.8056 14.6271 14.8802 14.5346C14.9544 14.4418 15.0076 14.3384 15.0402 14.2245C15.0722 14.1147 15.0886 14.0011 15.0889 13.8868V13.6778H14.7546ZM16.7099 11.9643H17.3368V12.4728H17.3508C17.4299 12.2964 17.5667 12.1535 17.7617 12.0445C17.9568 11.9353 18.1825 11.8807 18.4374 11.8807C18.5954 11.8807 18.7475 11.9049 18.8938 11.954C19.0401 12.0027 19.1677 12.078 19.2769 12.1802C19.3864 12.2825 19.4733 12.4134 19.5382 12.5739C19.6034 12.7341 19.6358 12.9233 19.6358 13.1415V15.266H19.0089V13.3156C19.0089 13.1624 18.988 13.0314 18.9462 12.9222C18.9044 12.813 18.8487 12.7244 18.779 12.6575C18.7111 12.5911 18.629 12.5411 18.5388 12.5112C18.448 12.4807 18.3527 12.4653 18.2569 12.4658C18.127 12.4658 18.0061 12.4867 17.8947 12.5285C17.7832 12.5703 17.6857 12.6363 17.6021 12.7269C17.5185 12.8177 17.4536 12.9325 17.4071 13.0718C17.3608 13.2111 17.3374 13.3761 17.3374 13.5664V15.266H16.7105V11.9643H16.7099ZM24.0154 15.2381C24.0154 15.4889 23.9725 15.7173 23.8864 15.9243C23.8033 16.1266 23.6788 16.3093 23.5209 16.4607C23.3629 16.6111 23.1726 16.7287 22.9497 16.8123C22.7268 16.8959 22.4805 16.9377 22.2113 16.9377C21.8954 16.9377 21.6067 16.8937 21.344 16.8053C21.0821 16.717 20.8322 16.5638 20.5953 16.3456L21.0202 15.8162C21.1827 15.9926 21.359 16.1261 21.5496 16.2169C21.7399 16.3074 21.9558 16.3526 22.1974 16.3526C22.4295 16.3526 22.6223 16.3191 22.7756 16.2517C22.9288 16.1843 23.0506 16.0971 23.1411 15.9904C23.2317 15.8837 23.2955 15.7619 23.3328 15.6245C23.3699 15.488 23.3885 15.3495 23.3885 15.2102V14.7226H23.3676C23.2531 14.9169 23.0816 15.0712 22.8764 15.1648C22.6725 15.2596 22.4502 15.3084 22.2253 15.3078C21.9837 15.3078 21.76 15.2648 21.553 15.179C21.3534 15.0975 21.1722 14.9767 21.0202 14.8238C20.8697 14.6699 20.7513 14.4876 20.672 14.2874C20.587 14.0736 20.5444 13.8452 20.5466 13.6151C20.5466 13.3736 20.5856 13.147 20.665 12.9358C20.74 12.7309 20.8548 12.5428 21.0027 12.3822C21.151 12.2231 21.3314 12.0972 21.5321 12.013C21.7388 11.9247 21.9695 11.8807 22.2253 11.8807C22.4482 11.8807 22.6655 11.9295 22.8764 12.027C23.0882 12.1245 23.2537 12.2616 23.3746 12.4379H23.3885V11.9643H24.0154V15.2381ZM22.3019 12.4658C22.1347 12.4658 21.9837 12.4948 21.8491 12.553C21.7143 12.611 21.6006 12.6895 21.5078 12.7898C21.4148 12.8896 21.3429 13.01 21.2919 13.1521C21.2395 13.3008 21.2136 13.4575 21.2153 13.6151C21.2153 13.9495 21.3128 14.2175 21.5078 14.4198C21.7029 14.6218 21.9675 14.7226 22.3019 14.7226C22.6362 14.7226 22.9009 14.6218 23.096 14.4195C23.291 14.2175 23.3885 13.9495 23.3885 13.6151C23.3885 13.4479 23.3629 13.2936 23.3119 13.1521C23.2653 13.0179 23.1918 12.8946 23.096 12.7898C23.0001 12.6878 22.8838 12.6071 22.7547 12.553C22.6198 12.4945 22.4691 12.4658 22.3019 12.4658ZM25.5601 13.845C25.5601 13.989 25.5916 14.12 25.6543 14.2384C25.717 14.3571 25.7992 14.458 25.9014 14.5415C26.0037 14.6251 26.1221 14.69 26.2567 14.7366C26.3915 14.7831 26.5308 14.8062 26.6746 14.8062C26.8696 14.8062 27.0396 14.7611 27.1831 14.6703C27.3342 14.5733 27.4684 14.4522 27.5801 14.3117L28.0538 14.6739C27.7055 15.1244 27.2179 15.3495 26.591 15.3495C26.331 15.3495 26.0951 15.3055 25.8841 15.2172C25.6813 15.1349 25.4984 15.0102 25.3478 14.8514C25.1993 14.6925 25.0844 14.5054 25.0098 14.3011C24.9295 14.0814 24.8894 13.849 24.8914 13.6151C24.8914 13.3691 24.9343 13.1403 25.0204 12.9292C25.1019 12.7243 25.2226 12.5373 25.3757 12.3786C25.5289 12.2214 25.7125 12.097 25.9153 12.013C26.1316 11.9233 26.3638 11.8783 26.598 11.8807C26.8905 11.8807 27.1379 11.9317 27.3399 12.0339C27.5419 12.1362 27.7077 12.2697 27.8378 12.4346C27.968 12.599 28.0618 12.7851 28.1201 12.9918C28.178 13.198 28.207 13.4084 28.207 13.6221V13.845H25.5601ZM27.5383 13.3435C27.5353 13.2132 27.513 13.0841 27.4723 12.9604C27.435 12.8479 27.3745 12.7446 27.2945 12.6572C27.212 12.5688 27.111 12.4999 26.9986 12.4552C26.8802 12.4065 26.7423 12.3822 26.584 12.3822C26.3818 12.381 26.1837 12.4395 26.0146 12.5503C25.8455 12.6612 25.7129 12.8196 25.6334 13.0055C25.5862 13.112 25.5613 13.227 25.5601 13.3435H27.5383Z" fill="white"/>
  <path fill-rule="evenodd" clip-rule="evenodd" d="M15.991 24.3423C15.5096 24.3423 15.0665 24.2576 14.6625 24.0882C14.258 23.9188 13.9117 23.6856 13.6233 23.3883C13.3312 23.0851 13.1012 22.7277 12.9462 22.3362C12.7824 21.9322 12.701 21.4948 12.701 21.0256C12.701 20.5561 12.7824 20.1192 12.9462 19.7149C13.1092 19.3109 13.3352 18.9599 13.6233 18.6629C13.9117 18.3656 14.258 18.1324 14.6625 17.963C15.0665 17.7936 15.5096 17.7089 15.9907 17.7089C16.4722 17.7089 16.9149 17.7936 17.3192 17.963C17.7232 18.1324 18.0695 18.3656 18.3579 18.6629C18.646 18.9602 18.872 19.3107 19.0355 19.7149C19.1988 20.1189 19.2807 20.5564 19.2807 21.0256C19.2807 21.4951 19.1988 21.9319 19.0355 22.3362C18.872 22.7402 18.646 23.0913 18.3579 23.3883C18.0695 23.6856 17.7232 23.9188 17.3192 24.0882C16.9152 24.2576 16.4722 24.3423 15.9907 24.3423H15.991ZM15.991 23.5399C16.3532 23.5399 16.6803 23.473 16.9718 23.3393C17.2549 23.2112 17.5096 23.0278 17.7207 22.7998C17.9322 22.5682 18.0958 22.297 18.2022 22.0019C18.315 21.6954 18.3716 21.3702 18.3716 21.0256C18.3716 20.6809 18.3153 20.3555 18.2024 20.0493C18.0961 19.7542 17.9324 19.483 17.721 19.2513C17.5098 19.0233 17.2552 18.8399 16.972 18.7119C16.6806 18.5782 16.3535 18.5113 15.9913 18.5113C15.6285 18.5113 15.3017 18.5782 15.0105 18.7119C14.7273 18.8397 14.4726 19.0231 14.2616 19.2513C14.0498 19.4828 13.8859 19.7541 13.7796 20.0493C13.6667 20.3558 13.6105 20.6809 13.6105 21.0256C13.6105 21.3702 13.6667 21.6957 13.7799 22.0019C13.8862 22.2971 14.05 22.5683 14.2619 22.7998C14.4727 23.0281 14.7273 23.2115 15.0105 23.3393C15.3017 23.473 15.6285 23.5399 15.9913 23.5399H15.991ZM5.83105 17.8693H6.95446L10.4317 23.0584H10.4495V17.8693H11.3054V24.1818H10.2177L6.70481 18.9928H6.68698V24.1818H5.83105V17.8693ZM19.8739 17.8693H20.7655L22.1564 22.9158H22.1742L23.6629 17.8693H24.6436L26.1326 22.9158H26.1504L27.5416 17.8693H28.4332L26.5962 24.1818H25.6963L24.1624 19.0284H24.1446L22.6203 24.1818H21.7195" fill="#3BEE81"/>
</svg>
