<svg width="34" height="34" viewBox="0 0 34 34" fill="none" xmlns="http://www.w3.org/2000/svg">
  <circle cx="17" cy="17" r="17" fill="white"/>
  <path d="M10.9524 18.9626L11.6138 13.9934L5.8772 10.0111L11.1186 11.7865L12.3565 9.88728L16.8765 7.08264L26.8395 12.5717L27.3558 20.9467L22.9172 27.1147L19.4088 27.6523L21.2231 24.3313V21.1341L19.9039 18.6372L18.5635 17.7495L16.5016 19.875V22.1244L14.8923 23.6311L12.8481 23.8786L11.9427 24.3915L10.4573 23.9175L9.83835 21.6894L10.9524 20.1226V18.9626Z" fill="white"/>
  <path d="M20.1124 9.96863C19.0196 9.74228 17.8241 9.8024 17.8241 9.8024C17.8241 9.8024 17.4316 11.6168 14.9983 12.0942C15.016 12.0942 18.2132 13.1871 20.1124 9.96863Z" fill="#94A6C3"/>
  <path d="M21.1026 26.4321C22.4218 25.3993 23.4121 23.9776 23.8684 22.3683C23.8896 22.3082 24.0735 22.2021 24.1973 22.1208C24.4024 21.997 24.6111 21.8944 24.65 21.7282C24.7313 21.2543 24.7738 20.7591 24.7738 20.264C24.7738 20.0801 24.5863 19.8926 24.4024 19.7087C24.2574 19.5849 24.1124 19.4399 24.1124 19.3374C23.9073 17.4593 23.0408 15.7051 21.6579 14.4284L21.5129 14.5734C22.8533 15.8324 23.7198 17.5442 23.9073 19.3586C23.9285 19.5248 24.0912 19.6875 24.2574 19.8537C24.4024 19.9775 24.5686 20.1649 24.5686 20.2463C24.5686 20.7202 24.5262 21.1941 24.4449 21.6681C24.4236 21.7494 24.2397 21.8343 24.0947 21.9156C23.8896 22.0182 23.7021 22.1208 23.6632 22.287C23.1681 24.0412 22.0328 25.5691 20.5262 26.5594C20.7949 25.9829 21.6402 24.1049 22.0929 23.1535L22.0116 20.1013L19.3909 17.5654L17.9054 17.7706L16.275 20.4125C16.275 20.4125 17.0389 21.3816 15.9638 22.5169C14.9133 23.631 14.0857 23.8785 14.0857 23.8785L13.3218 23.4647C13.5482 23.1747 14.0044 22.7432 14.3545 22.4532C14.9522 21.9581 15.55 21.9156 15.55 21.3816C15.5747 20.264 14.3758 20.5717 14.3758 20.5717L13.9407 20.9855L13.7568 22.5133L12.8514 23.6486L12.7489 23.6274L11.2634 23.2985C11.2634 23.2985 12.1724 22.8246 12.3174 22.287C12.4624 21.7706 12.0274 20.0588 12.0061 19.9563C12.0274 19.9775 12.4412 20.3276 12.6251 20.9041C12.954 19.9952 13.389 19.1287 13.5128 19.0473C13.6366 18.966 15.3059 18.0783 15.3059 18.0783L14.7507 19.5425L15.1645 19.3161L16.1547 16.8829C16.1547 16.8829 17.1238 16.4089 17.8453 16.4089C19.1433 16.3877 21.0637 14.7997 20.1972 11.9526C20.4448 12.0552 24.7349 14.202 25.4776 18.4107C26.0329 21.6468 24.1973 24.6778 21.1026 26.4321Z" fill="#94A6C3"/>
  <path d="M16.1938 10.4213C16.6678 9.86251 16.4838 9.03845 16.4838 9.03845L15.101 11.0827C15.0798 11.0827 15.5926 11.1039 16.1938 10.4213Z" fill="#1B314F"/>
  <path d="M11.55 21.5833L11.7163 20.7593C11.7163 20.7593 11.0337 21.9547 10.9735 22.1209C10.9099 22.3084 11.016 22.6373 11.2812 22.6161C11.55 22.5948 11.8789 22.2023 11.8789 21.9158C11.8789 21.5444 11.55 21.5833 11.55 21.5833Z" fill="#1B314F"/>
  <path d="M23.8048 8.46193C23.8048 8.46193 24.8375 8.50437 25.9092 8.62816C23.4936 6.72893 21.2053 6.17366 19.3485 6.17366C16.7914 6.17366 15.0584 7.22761 14.9523 7.28773L15.7587 6.00743C15.7587 6.00743 12.5403 5.6962 11.405 9.10208C11.115 8.38058 10.8497 7.32664 10.8497 7.32664C10.8497 7.32664 9.17684 8.79438 9.962 11.2277C8.04155 10.5274 5.30057 9.55478 5.19447 9.5371C5.04946 9.51588 5.00702 9.57954 5.00702 9.57954C5.00702 9.57954 4.96458 9.63966 5.08837 9.74577C5.31826 9.92614 9.65076 13.1269 10.6021 13.7458C10.397 14.4885 10.397 14.8387 10.6021 15.1888C10.8922 15.6627 10.9098 15.9103 10.8709 16.2604C10.8285 16.6106 10.4571 19.6451 10.3758 20.0165C10.2945 20.3878 9.42795 21.707 9.46685 22.0996C9.50929 22.4922 10.0433 24.1615 10.5208 24.349C10.8709 24.4728 11.7374 24.7416 12.3139 24.7416C12.5191 24.7416 12.7065 24.6991 12.7879 24.6178C13.138 24.3101 13.2406 24.2464 13.4881 24.2464C13.5093 24.2464 13.5306 24.2464 13.5483 24.2464C13.6508 24.2464 13.7746 24.2676 13.9196 24.2676C14.2485 24.2676 14.6835 24.204 14.9912 23.9175C15.4439 23.4648 16.2291 22.8459 16.4767 22.5558C16.7879 22.1633 16.9506 21.6292 16.8693 21.0916C16.8056 20.5965 17.0744 20.1615 17.3856 19.73C17.7782 19.2136 18.4997 18.287 18.4997 18.287C19.925 19.3551 20.8127 20.9855 20.8127 22.7999C20.8127 26.0183 18.0081 28.6178 14.5421 28.6178C14.0045 28.6178 13.4917 28.5577 12.9753 28.4339C14.5633 28.9892 15.9037 29.1766 17.0001 29.1766C19.3308 29.1766 20.5687 28.3313 20.5687 28.3313C20.5687 28.3313 20.1372 28.8901 19.4334 29.5268C19.4546 29.5268 19.4546 29.5268 19.4546 29.5268C23.3132 28.9892 25.1912 25.8132 25.1912 25.8132C25.1912 25.8132 25.0462 26.8459 24.8623 27.5462C29.9941 23.6876 29.1276 18.8599 29.1064 18.6973C29.1488 18.7574 29.6652 19.3763 29.9304 19.7088C30.758 11.2064 23.8048 8.46193 23.8048 8.46193ZM15.9037 22.0395C15.8224 22.142 15.4722 22.4533 15.2247 22.6796C14.9771 22.906 14.7083 23.1323 14.5032 23.341C14.4218 23.4223 14.2556 23.4648 14.008 23.4648C13.9267 23.4648 13.8418 23.4648 13.7817 23.4648C13.7392 23.4648 13.7003 23.4648 13.6579 23.4648C13.6154 23.4648 13.5942 23.4648 13.5765 23.4648C13.5129 23.4648 13.4528 23.4648 13.3891 23.4648C13.7003 23.051 14.6057 22.1031 14.917 21.898C15.2883 21.6504 15.4758 21.4029 15.2459 20.9714C15.0195 20.5364 14.4218 20.6425 14.4218 20.6425C14.4218 20.6425 14.772 20.4975 15.0832 20.4975C14.6906 20.3949 14.1955 20.4975 13.9691 20.7238C13.7216 20.9502 13.764 21.7565 13.6614 22.2694C13.5589 22.807 13.2087 23.0757 12.6711 23.5709C12.3811 23.8397 12.176 23.921 12.0098 23.921C11.6596 23.8609 11.2458 23.7548 10.9558 23.6522C10.7507 23.3834 10.4395 22.4957 10.3581 22.1244C10.4182 21.9192 10.6658 21.4842 10.7896 21.2366C11.0372 20.7627 11.1822 20.4939 11.2246 20.2464C11.306 19.8962 11.5748 17.7282 11.6773 16.8228C11.9461 17.1729 12.3175 17.7529 12.2326 18.1243C12.8303 17.279 12.3988 16.4514 12.1901 16.1225C12.0062 15.7936 11.7587 15.1322 11.9638 14.4319C12.1689 13.7317 12.9116 11.79 12.9116 11.79C12.9116 11.79 13.1592 12.225 13.5093 12.1401C13.8595 12.0588 16.6853 7.80763 16.6853 7.80763C16.6853 7.80763 17.4493 9.47697 16.6429 10.6972C15.8188 11.9138 15.0125 12.1401 15.0125 12.1401C15.0125 12.1401 16.1478 12.3453 17.1982 11.5813C17.6297 12.5928 18.0435 13.6433 18.0647 13.7883C18.001 13.9333 17.1769 15.9138 17.0956 16.0376C17.0532 16.0801 16.7667 16.1614 16.558 16.2039C16.2079 16.3064 16.0028 16.3701 15.9179 16.4302C15.7729 16.554 15.1115 18.3683 14.8038 19.2561C14.4324 19.3586 14.0611 19.5673 13.7923 19.9776C13.9373 19.875 14.39 19.8113 14.7225 19.7724C15.0125 19.7512 15.8966 20.2251 16.1265 21.1129C16.1265 21.1341 16.1265 21.1341 16.1265 21.1553C16.1725 21.4807 16.0699 21.7919 15.9037 22.0395ZM13.9656 22.2871C14.153 22.0183 14.1318 21.5656 14.153 21.4205C14.1743 21.2755 14.2132 21.0068 14.3794 20.9678C14.5456 20.9254 14.9382 20.9891 14.9382 21.2755C14.9382 21.5443 14.6482 21.6045 14.443 21.7919C14.2945 21.9334 14.0045 22.2446 13.9656 22.2871ZM22.1956 18.3436C22.4007 17.2932 22.4219 16.3842 22.3618 15.6415C23.1647 16.7131 23.6598 18.0147 23.8048 19.3551C23.826 19.5213 23.9887 19.684 24.1549 19.8502C24.2999 19.974 24.4662 20.1402 24.4662 20.2428C24.4662 20.7167 24.4237 21.1907 24.3424 21.6681C24.3212 21.7282 24.1373 21.8343 23.9923 21.9157C23.7871 22.0183 23.5997 22.1208 23.5608 22.2871C23.1081 23.875 22.1355 25.2791 20.8375 26.2694C22.7544 24.2676 23.681 20.9643 22.1956 18.3436ZM20.8976 26.4533C22.238 25.4206 23.2708 23.9776 23.7235 22.3472C23.7447 22.2871 23.9286 22.1809 24.0524 22.0996C24.2575 21.997 24.4662 21.8733 24.5051 21.707C24.5864 21.2331 24.6289 20.738 24.6289 20.2428C24.6289 20.0589 24.4414 19.8715 24.2575 19.6875C24.1549 19.5638 23.9887 19.4188 23.9887 19.3162C23.8225 17.8095 23.2248 16.3878 22.2981 15.21C21.8844 12.7343 20.2362 11.9704 20.1938 11.9492C20.2362 12.0128 21.3079 13.5584 20.5651 15.3727C19.8012 17.2083 17.8419 16.9218 17.6756 16.9395C17.5094 16.9395 16.8728 17.7636 16.0664 19.2914C15.9638 19.249 15.5288 19.1464 15.0337 19.2313C15.405 18.1986 15.9638 16.7344 16.0664 16.6106C16.1089 16.5681 16.4165 16.4868 16.6252 16.4267C17.0178 16.3241 17.2017 16.2604 17.2654 16.1791C17.3078 16.1154 17.5129 15.6415 17.7181 15.1464C17.9055 15.1464 18.3794 15.1039 18.4183 15.0827C18.4608 15.0403 18.8534 14.0323 18.8534 13.9085C18.8534 13.8059 18.047 11.8042 17.7393 11.0402C17.8843 10.874 18.0293 10.6689 18.1708 10.4425C22.4007 10.8987 25.704 14.4885 25.704 18.8387C25.704 22.1809 23.7447 25.0917 20.8976 26.4533Z" fill="#1B314F"/>
  <path d="M15.4086 15.3126C15.8011 14.8599 15.596 14.0146 14.871 13.8696C15.0584 13.4382 15.3237 12.5717 15.3237 12.5717C15.3237 12.5717 13.2193 15.8714 13.0354 15.9351C12.848 15.9988 12.664 15.2737 12.664 15.2737C12.2715 16.7804 13.3254 16.9855 13.4492 16.5116C14.0257 16.363 15.016 15.7441 15.4086 15.3126Z" fill="#1B314F"/>
  <path d="M13.6121 16.1155L14.6837 14.2799C14.6837 14.2799 15.3026 14.5911 14.9914 15.0863C14.6023 15.6628 13.6121 16.1155 13.6121 16.1155Z" fill="#FFD923"/>
  <path d="M26.8783 24.6177C26.567 25.0315 26.2169 25.463 25.8066 25.8768C28.4663 20.7591 25.9304 16.0765 25.8279 15.8926C26.0153 16.08 26.1992 16.2852 26.3654 16.4691C28.4061 18.7361 28.6537 22.142 26.8783 24.6177Z" fill="#D82122"/>
  <path d="M29.3541 18.0359C28.4239 15.539 27.1047 13.4134 24.1975 11.4965C21.3929 9.6397 18.3796 9.78471 18.2133 9.80593C18.1921 9.80593 18.1709 9.80593 18.1709 9.80593C18.2735 9.76349 18.376 9.74227 18.4786 9.72458C19.1187 9.51945 19.9428 9.35323 20.7704 9.25066C22.9596 8.93589 25.1666 9.67861 26.6732 11.2701C26.6944 11.2914 26.6944 11.2914 26.7157 11.3126C28.4274 13.1269 29.3152 15.394 29.3541 18.0359Z" fill="#D82122"/>
  <path d="M23.536 7.82177C20.4625 7.24529 18.482 7.53176 17.0567 8.06935C17.0142 7.90312 16.8692 7.5742 16.7454 7.30541C16.3175 7.82177 15.8612 8.4407 15.5748 8.83328C14.7896 9.37087 14.4607 9.88723 14.4607 9.88723C14.9134 8.33814 16.2361 7.18516 17.8454 6.89515C18.2981 6.8138 18.7932 6.77136 19.3308 6.77136C20.7526 6.79258 22.1743 7.14272 23.536 7.82177Z" fill="#D82122"/>
  <path d="M12.1689 11.7829C9.75684 11.7016 10.5597 8.8934 10.6021 8.73071C10.6021 8.75193 10.7648 10.9376 12.1689 11.7829Z" fill="#D82122"/>
  <path d="M14.542 6.729C12.6852 7.84308 13.0565 10.5027 13.0565 10.5027C11.2811 7.80417 14.397 6.79267 14.542 6.729Z" fill="#D82122"/>
  <path d="M11.4899 12.5257C11.6137 12.6282 11.7375 12.8157 11.5925 13.0845C11.5111 13.2295 11.3873 13.2083 11.1999 13.1269C10.9523 13.0031 9.46689 12.1366 8.12646 11.2489C9.65434 11.7865 11.1999 12.363 11.4475 12.4868C11.4475 12.4868 11.4687 12.508 11.4899 12.5257Z" fill="white"/>
</svg>
