<svg width="34" height="34" viewBox="0 0 34 34" fill="none" xmlns="http://www.w3.org/2000/svg">
  <circle cx="17" cy="17" r="17" fill="#F7237B"/>
  <path d="M14.5609 10.9579C14.3203 10.9242 14.3089 10.913 14.4234 10.9017C14.6411 10.868 15.1451 10.913 15.5002 10.9917C16.325 11.1828 17.0696 11.6775 17.86 12.5432L18.0662 12.7793L18.364 12.7343C19.6355 12.5319 20.9414 12.6893 22.0297 13.184C22.3275 13.3189 22.7972 13.5888 22.8544 13.6562C22.8773 13.6787 22.9117 13.8249 22.9346 13.971C23.0148 14.4994 22.9804 14.8929 22.8086 15.1965C22.717 15.3651 22.717 15.4101 22.7742 15.5563C22.8201 15.6687 22.9575 15.7474 23.0835 15.7474C23.3585 15.7474 23.6448 15.3202 23.7823 14.7243L23.8396 14.4882L23.9427 14.6006C24.5269 15.2415 24.9851 16.1297 25.0538 16.7593L25.0767 16.9279L24.9736 16.7818C24.8018 16.5232 24.6414 16.3545 24.4238 16.2084C24.0343 15.9498 23.6219 15.8711 22.5337 15.8149C21.5485 15.7586 20.9872 15.6799 20.4374 15.5001C19.4981 15.1965 19.017 14.803 17.9058 13.3527C17.4132 12.7118 17.1039 12.3633 16.7947 12.071C16.1188 11.4301 15.4429 11.0928 14.5609 10.9579Z" fill="white"/>
  <path d="M23.0945 12.3859C23.1174 11.9587 23.1747 11.6776 23.3007 11.419C23.3465 11.3178 23.3923 11.2279 23.4038 11.2279C23.4152 11.2279 23.3923 11.3066 23.3579 11.3965C23.2663 11.6439 23.2548 11.9924 23.3121 12.3859C23.3923 12.8919 23.4267 12.9593 23.9765 13.5102C24.2285 13.7688 24.5264 14.0948 24.6409 14.2298L24.8357 14.4771L24.6409 14.2972C24.4004 14.0724 23.8505 13.6451 23.7245 13.5889C23.6443 13.5439 23.6329 13.5439 23.5756 13.6002C23.5298 13.6451 23.5183 13.7126 23.5183 14.0386C23.5069 14.5446 23.4381 14.8594 23.2663 15.1854C23.1747 15.3541 23.1632 15.3203 23.2434 15.1292C23.3007 14.983 23.3121 14.9156 23.3121 14.4321C23.3121 13.454 23.1976 13.2179 22.4988 12.8244C22.327 12.7232 22.0291 12.5771 21.8573 12.4984C21.674 12.4197 21.5366 12.3522 21.548 12.3522C21.5709 12.3297 22.2468 12.5208 22.5103 12.6333C22.9112 12.7907 22.9799 12.8019 23.0257 12.7907C23.0601 12.7569 23.083 12.667 23.0945 12.3859Z" fill="white"/>
  <path d="M15.03 14.0612C14.5489 13.4091 14.2396 12.3972 14.3084 11.6439L14.3313 11.4078L14.4458 11.4303C14.652 11.4641 15.0071 11.599 15.179 11.7002C15.6372 11.97 15.8434 12.341 16.0381 13.2629C16.0954 13.5327 16.1756 13.8475 16.2099 13.9487C16.2672 14.1174 16.4848 14.5109 16.6681 14.7582C16.7941 14.9381 16.7139 15.0281 16.4276 15.0056C15.9923 14.9606 15.4081 14.5671 15.03 14.0612Z" fill="white"/>
  <path d="M22.5104 18.9518C20.2423 18.0524 19.4404 17.2766 19.4404 15.9612C19.4404 15.7701 19.4519 15.6127 19.4519 15.6127C19.4633 15.6127 19.5435 15.6801 19.6466 15.7588C20.1048 16.1186 20.6203 16.276 22.0522 16.4784C22.8884 16.602 23.3695 16.692 23.8048 16.8381C25.1909 17.2879 26.0501 18.2098 26.2562 19.4577C26.3135 19.8175 26.2792 20.5033 26.1875 20.8631C26.1073 21.1442 25.8782 21.6614 25.8209 21.6726C25.8095 21.6726 25.7866 21.6164 25.7866 21.5264C25.7637 21.0542 25.5231 20.6045 25.1222 20.256C24.6411 19.8512 24.0225 19.5477 22.5104 18.9518Z" fill="white"/>
  <path d="M20.9068 19.3227C20.8839 19.1541 20.8267 18.9405 20.7923 18.8505L20.735 18.6819L20.8381 18.8056C20.987 18.9742 21.1016 19.1766 21.2047 19.4576C21.2849 19.6713 21.2849 19.7387 21.2849 20.0872C21.2849 20.4245 21.2734 20.5032 21.2047 20.6944C21.0901 20.9979 20.9527 21.2115 20.7236 21.4476C20.3112 21.8636 19.7728 22.0885 19.0053 22.1897C18.8678 22.2009 18.4784 22.2346 18.1347 22.2571C17.2756 22.3021 16.7028 22.392 16.1873 22.5719C16.1186 22.5944 16.0499 22.6169 16.0384 22.6057C16.0155 22.5832 16.3706 22.3808 16.657 22.2459C17.0579 22.0548 17.4703 21.9536 18.3753 21.7962C18.822 21.7287 19.2802 21.6388 19.3948 21.5938C20.5288 21.2453 21.0901 20.3796 20.9068 19.3227Z" fill="white"/>
  <path d="M21.9493 21.133C21.6515 20.4922 21.5828 19.885 21.7431 19.3116C21.766 19.2554 21.789 19.1992 21.8119 19.1992C21.8348 19.1992 21.9035 19.2329 21.9722 19.2779C22.1097 19.3679 22.3961 19.5253 23.1292 19.9188C24.0571 20.4135 24.584 20.7957 24.9506 21.2342C25.2713 21.6164 25.4661 22.0549 25.5577 22.5946C25.615 22.8981 25.5806 23.6289 25.5004 23.9325C25.2484 24.8881 24.6756 25.6526 23.8394 26.0911C23.7134 26.1586 23.6103 26.2035 23.5989 26.2035C23.5874 26.2035 23.6332 26.0911 23.702 25.9562C23.9769 25.3828 24.0113 24.8319 23.8051 24.2136C23.6791 23.8313 23.4156 23.3703 22.8886 22.5946C22.2586 21.6951 22.1097 21.459 21.9493 21.133Z" fill="white"/>
  <path d="M13.4154 24.5731C14.263 23.8761 15.3055 23.3814 16.2677 23.224C16.6801 23.1565 17.3674 23.179 17.7454 23.2802C18.3525 23.4376 18.9024 23.7749 19.1888 24.1909C19.4637 24.5956 19.5897 24.9441 19.7157 25.7199C19.7615 26.0235 19.8188 26.3383 19.8302 26.4057C19.9219 26.8105 20.1052 27.1253 20.3343 27.2939C20.6894 27.5525 21.308 27.5637 21.9151 27.3389C22.0182 27.3052 22.1098 27.2714 22.1098 27.2827C22.1327 27.3052 21.8234 27.5075 21.6172 27.6087C21.3309 27.7549 21.1018 27.7998 20.7925 27.7998C20.2426 27.7998 19.773 27.5188 19.3949 26.9566C19.3148 26.8442 19.1544 26.5182 19.0169 26.2146C18.616 25.3039 18.4098 25.0341 17.9401 24.7305C17.5278 24.4719 17.0008 24.4157 16.5999 24.6069C16.073 24.8542 15.9355 25.5175 16.3021 25.9223C16.451 26.0909 16.7259 26.2258 16.955 26.2596C17.3788 26.3158 17.7454 25.9897 17.7454 25.5738C17.7454 25.3039 17.6423 25.1465 17.3674 25.0228C17.0008 24.8654 16.5999 25.0453 16.6113 25.3939C16.6113 25.54 16.6801 25.63 16.829 25.6974C16.9206 25.7424 16.9206 25.7424 16.8519 25.7312C16.5197 25.6637 16.4395 25.259 16.703 25.0004C17.0237 24.6856 17.6996 24.8205 17.9287 25.259C18.0203 25.4388 18.0318 25.7986 17.9516 26.0235C17.7569 26.5182 17.207 26.7767 16.6457 26.6306C16.2677 26.5294 16.1073 26.4282 15.6491 25.9673C14.8473 25.1578 14.538 25.0004 13.3925 24.8317L13.1748 24.798L13.4154 24.5731Z" fill="white"/>
  <path fill-rule="evenodd" clip-rule="evenodd" d="M7.38998 6.48345C10.059 9.66519 14.1714 14.6121 14.3776 14.8819C14.5495 15.1068 14.4807 15.3204 14.1943 15.4778C14.034 15.5677 13.7018 15.6577 13.5414 15.6577C13.3581 15.6577 13.1405 15.5677 12.9916 15.4216C12.8885 15.3204 12.4417 14.6795 11.4337 13.1392C10.6662 11.9587 10.0132 10.9806 10.0018 10.9694C9.95594 10.9469 9.95594 10.9469 11.3535 13.3978C12.2355 14.9381 12.5219 15.489 12.5219 15.5565C12.5219 15.7026 12.4761 15.7813 12.2928 15.9837C11.9835 16.321 11.846 16.7032 11.7429 17.5015C11.6284 18.3897 11.3191 19.0193 10.4371 20.0874C9.92157 20.717 9.84139 20.8294 9.71538 21.088C9.55501 21.4028 9.50919 21.5827 9.48628 21.9874C9.46337 22.4146 9.50919 22.6845 9.63519 23.0892C9.74974 23.449 9.87575 23.6851 10.185 24.1461C10.4485 24.5508 10.6089 24.8544 10.6089 24.9668C10.6089 25.0567 10.6318 25.0567 11.0442 24.9668C12.0293 24.7419 12.8426 24.3597 13.2894 23.8875C13.5643 23.5952 13.633 23.4377 13.633 23.033C13.633 22.7744 13.6216 22.7182 13.5529 22.5608C13.4383 22.3135 13.2207 22.1111 12.751 21.7963C12.1324 21.3803 11.8689 21.043 11.8002 20.5933C11.7429 20.211 11.8117 19.9524 12.1553 19.2441C12.5104 18.5134 12.6021 18.2098 12.6594 17.4678C12.6937 16.9956 12.751 16.8044 12.8885 16.6583C13.0374 16.5009 13.1634 16.4447 13.5185 16.3997C14.1027 16.321 14.4807 16.1748 14.7786 15.8938C15.042 15.6577 15.1566 15.4216 15.168 15.073L15.1795 14.8144L15.0306 14.657C14.4922 14.0499 7.03487 6 7.00051 6C6.98905 6 7.17234 6.21362 7.38998 6.48345ZM10.9067 22.4709C11.0327 22.2572 10.964 21.9874 10.7578 21.8525C10.5631 21.7288 10.2652 21.785 10.2652 21.9537C10.2652 21.9987 10.2881 22.0436 10.3569 22.0661C10.46 22.1223 10.4714 22.1785 10.3912 22.3022C10.311 22.4259 10.311 22.5383 10.4141 22.617C10.5745 22.7407 10.7922 22.6732 10.9067 22.4709Z" fill="white"/>
  <path fill-rule="evenodd" clip-rule="evenodd" d="M15.5457 16.5571C15.2708 16.6358 15.0073 16.9282 14.9272 17.2205C14.8813 17.4004 14.9043 17.7264 14.9844 17.8276C15.1104 17.985 15.225 18.03 15.5457 18.03C16.1758 18.03 16.7142 17.7601 16.7714 17.4341C16.8287 17.1643 16.5882 16.7932 16.256 16.6246C16.0841 16.5347 15.729 16.5009 15.5457 16.5571ZM16.2789 17.1193C16.3705 16.9844 16.3361 16.8382 16.1643 16.737C15.855 16.5459 15.3854 16.7033 15.3854 16.9956C15.3854 17.1418 15.6259 17.2992 15.855 17.2992C16.0039 17.2992 16.2101 17.2092 16.2789 17.1193Z" fill="white"/>
</svg>
