<svg width="30" height="30" viewBox="0 0 30 30" fill="none" xmlns="http://www.w3.org/2000/svg">
  <path fill-rule="evenodd" clip-rule="evenodd" d="M30 15C30 23.2843 23.2843 30 15 30C6.71573 30 0 23.2843 0 15C0 6.71573 6.71573 0 15 0C23.2843 0 30 6.71573 30 15ZM7.79608 7L9.70956 12.6319L9.9632 11.923H11.883L12.1366 12.6319L14.0256 7.07192L13.9999 7H14.0501H15.796H15.8462L15.8204 7.07192L17.7095 12.6319L17.9631 11.923H19.8829L20.1365 12.6319L22.05 7H23.8461L20.9838 15L23.8461 23H22.05L20.1365 17.368L19.8829 18.0769H17.9631L17.7095 17.368L15.8204 22.928L15.8462 23H15.796H14.0501H13.9999L14.0256 22.928L12.1366 17.368L11.883 18.0769H9.9632L9.70956 17.368L7.79608 23H6L8.8623 15L6 7H7.79608ZM14.923 20.4199L16.8622 15L14.923 9.58007L12.9839 15L14.923 20.4199ZM18.514 15L18.8611 16.0216H18.9848L19.3319 15L18.9848 13.9783H18.8611L18.514 15ZM10.8612 16.0216L10.5141 15L10.8612 13.9783H10.9849L11.332 15L10.9849 16.0216H10.8612Z" fill="#03123D"/>
</svg>
