<svg width="40" height="40" viewBox="0 0 40 40" fill="none" xmlns="http://www.w3.org/2000/svg">
  <rect width="40" height="40" rx="15" fill="#1B191B"/>
  <path fill-rule="evenodd" clip-rule="evenodd" d="M20 36C28.8366 36 36 28.8366 36 20C36 11.1634 28.8366 4 20 4C11.1634 4 4 11.1634 4 20C4 28.8366 11.1634 36 20 36ZM29.4308 27.6287C29.7025 28.0937 29.9714 28.5587 30.2404 29.025L30.239 29.0237C30.2727 29.0823 30.3016 29.1429 30.3257 29.1935C30.3357 29.2143 30.3448 29.2335 30.3531 29.2501C30.2802 29.2141 30.2073 29.1749 30.1339 29.1355C29.9668 29.0457 29.7967 28.9542 29.6155 28.8949C29.276 28.7837 28.9199 28.8278 28.5695 28.8712C28.5568 28.8728 28.5442 28.8744 28.5315 28.8759C28.379 28.8945 28.227 28.9206 28.0752 28.9467C27.9945 28.9605 27.9139 28.9744 27.8333 28.9871C27.6214 29.021 27.4734 28.9274 27.362 28.7526C27.2397 28.5614 27.0835 28.4041 26.873 28.3079C26.6013 28.2415 26.3269 28.236 26.1109 28.4313C26.0164 28.5161 25.9449 28.6279 25.8741 28.7387C25.843 28.7872 25.8121 28.8355 25.7795 28.8813C25.7431 28.797 25.7004 28.6957 25.6559 28.5902C25.6388 28.5498 25.6215 28.5088 25.6042 28.4679C25.5174 28.3649 25.4305 28.2623 25.3436 28.1597C25.2566 28.0569 25.1696 27.9541 25.0826 27.851C25.0431 27.8281 25.0038 27.8041 24.9646 27.78C24.7854 27.6701 24.605 27.5595 24.3844 27.5528C24.2841 27.55 24.1826 27.5601 24.0811 27.5702C24.0354 27.5747 23.9898 27.5793 23.9443 27.5826C23.9041 27.6253 23.8618 27.6668 23.8194 27.7084C23.7244 27.8015 23.6291 27.8951 23.5558 28.0029C23.3806 28.2632 22.988 28.3187 22.7734 28.0232C22.6513 27.8568 22.5434 27.6808 22.4354 27.5049C22.386 27.4243 22.3365 27.3437 22.2857 27.264C22.2491 27.2148 22.2121 27.1659 22.1751 27.117C22.0941 27.01 22.0131 26.903 21.9366 26.7923C21.7723 26.5564 21.4816 26.3842 21.1787 26.5537C20.782 26.9888 20.3568 27.3915 19.8461 27.6951C19.8178 27.7121 19.7869 27.7244 19.7562 27.7367C19.7426 27.7422 19.729 27.7476 19.7157 27.7534C19.6237 27.8018 19.5323 27.8517 19.4409 27.9016C19.2327 28.0153 19.0245 28.1291 18.8083 28.2252C18.3057 28.4475 17.7786 28.598 17.2353 28.6902C17.1992 28.6966 17.1625 28.6937 17.1257 28.6907C17.1083 28.6893 17.091 28.6879 17.0736 28.6875C16.6258 28.7708 16.1978 28.6727 15.7697 28.5746C15.6616 28.5498 15.5534 28.525 15.445 28.5031L14.2727 28.3079C14.0044 28.3005 13.7365 28.2935 13.4688 28.2865C13.1942 28.2793 12.9198 28.2721 12.6453 28.2645C11.4133 28.3608 10.2383 28.6753 9.119 29.1999C9.02625 29.2434 8.93159 29.2825 8.8372 29.3215C8.79336 29.3396 8.74957 29.3577 8.70605 29.3762V29.3436C8.74933 29.273 8.79285 29.2027 8.83632 29.1325C8.93885 28.9669 9.04112 28.8018 9.13938 28.6333C9.43361 28.1279 9.7263 27.6216 10.019 27.1152C10.2006 26.801 10.3823 26.4868 10.5643 26.1727C10.6729 25.9849 10.7837 25.7987 10.8946 25.6124C10.9558 25.5096 11.0169 25.4069 11.0778 25.3038L11.8018 24.0457C12.011 23.6675 12.2202 23.2906 12.4307 22.9137C12.4371 22.9028 12.4496 22.8949 12.4625 22.8869C12.4688 22.8829 12.4752 22.8789 12.481 22.8744C12.5267 22.791 12.5719 22.7074 12.6171 22.6238C12.7127 22.4468 12.8083 22.2699 12.9089 22.0949C13.1411 21.6905 13.3771 21.288 13.6129 20.8859C13.6585 20.8081 13.7041 20.7303 13.7497 20.6525C13.7624 20.6301 13.7792 20.6106 13.7963 20.5908C13.803 20.583 13.8097 20.5752 13.8163 20.5671C13.8772 20.4576 13.9378 20.3477 13.9985 20.2376C14.0882 20.0752 14.1779 19.9126 14.2686 19.751C14.2888 19.7143 14.3122 19.6794 14.3357 19.6443C14.3469 19.6276 14.3582 19.6108 14.3691 19.5937C14.4266 19.4947 14.4841 19.3956 14.5418 19.2963C14.679 19.06 14.8164 18.8233 14.9532 18.5865C15.0565 18.4075 15.1601 18.2285 15.2637 18.0495C15.3673 17.8706 15.4708 17.6917 15.574 17.5128C15.6663 17.3556 15.7587 17.1988 15.851 17.0419C15.9434 16.8849 16.0358 16.728 16.1282 16.5706C16.176 16.4842 16.2234 16.3977 16.2708 16.3112C16.3728 16.1249 16.4748 15.9388 16.5806 15.7545C16.6445 15.6442 16.7128 15.5362 16.7809 15.4287C16.8139 15.3764 16.847 15.3243 16.8794 15.2719C16.9623 15.1241 17.0448 14.9763 17.1274 14.8285C17.2099 14.6808 17.2924 14.533 17.3752 14.3853L17.7664 13.7061C18.0007 13.301 18.2349 12.8957 18.4703 12.4885C18.8326 11.8615 19.1976 11.23 19.569 10.5881L19.6836 10.7855C19.8969 11.1525 20.0975 11.4978 20.2971 11.8421L20.298 11.8438C20.6645 12.475 21.0309 13.1061 21.396 13.7387C21.4089 13.7615 21.4182 13.7872 21.4276 13.8132C21.431 13.8227 21.4345 13.8323 21.4381 13.8417C21.4695 13.8953 21.5011 13.949 21.5326 14.0028C21.6089 14.1327 21.6855 14.2631 21.7614 14.3935C21.8327 14.5182 21.9037 14.6426 21.9747 14.7669C22.0456 14.8913 22.1166 15.0157 22.1879 15.1404L22.1884 15.1412C22.3594 15.4283 22.5304 15.7155 22.6987 16.0026C22.726 16.0488 22.7495 16.0975 22.7731 16.1467C22.7834 16.1682 22.7938 16.1899 22.8046 16.2114L23.1306 16.7645C23.2496 16.9687 23.3682 17.1729 23.4869 17.3771C23.6053 17.581 23.7237 17.7848 23.8424 17.9887L23.9443 18.1635C24.0475 18.3425 24.1508 18.5211 24.254 18.6997C24.3573 18.8783 24.4605 19.0569 24.5637 19.2359C24.6941 19.4636 24.8249 19.6911 24.9557 19.9185C25.0864 20.1459 25.2171 20.3733 25.3475 20.601C25.387 20.6669 25.4263 20.7327 25.4656 20.7984C25.563 20.9611 25.66 21.1234 25.7577 21.2856C25.8414 21.4322 25.9246 21.5784 26.0079 21.7246C26.091 21.8705 26.1742 22.0164 26.2576 22.1627C26.3813 22.3744 26.5047 22.5858 26.6281 22.7971C26.7513 23.008 26.8744 23.219 26.9979 23.4303C27.0808 23.5766 27.1639 23.7227 27.2471 23.8687C27.3303 24.0148 27.4136 24.1609 27.4965 24.3074C27.5617 24.4213 27.6269 24.5349 27.6922 24.6485C27.7573 24.762 27.8225 24.8754 27.8877 24.9893C28.0303 25.236 28.1743 25.4827 28.3183 25.7294C28.3386 25.7633 28.3587 25.7972 28.3787 25.8311C28.3988 25.865 28.4188 25.8989 28.4392 25.9328C28.6043 26.2156 28.7697 26.4983 28.9352 26.7811C29.1005 27.0636 29.2658 27.3462 29.4308 27.6287ZM19.6831 20.798C19.7249 20.7751 19.7669 20.7521 19.8094 20.7325C19.761 20.7548 19.7132 20.7809 19.6656 20.807C19.6438 20.8189 19.622 20.8308 19.6002 20.8423C19.6278 20.8283 19.6554 20.8131 19.6831 20.798Z" fill="white"/>
</svg>
