<?xml version="1.0" encoding="UTF-8"?>
<!DOCTYPE svg PUBLIC "-//W3C//DTD SVG 1.1//EN" "http://www.w3.org/Graphics/SVG/1.1/DTD/svg11.dtd">
<svg xmlns="http://www.w3.org/2000/svg" version="1.1" width="100px" height="100px" style="shape-rendering:geometricPrecision; text-rendering:geometricPrecision; image-rendering:optimizeQuality; fill-rule:evenodd; clip-rule:evenodd" xmlns:xlink="http://www.w3.org/1999/xlink">
<g><path style="opacity:1" fill="#40b034" d="M 39.5,1.5 C 74.0994,-0.71531 93.766,15.2847 98.5,49.5C 94.8472,79.1543 78.5138,95.4876 49.5,98.5C 15.4274,94.2062 -0.405969,74.5395 2,39.5C 7.34882,19.6518 19.8488,6.98517 39.5,1.5 Z"/></g>
<g><path style="opacity:1" fill="#cedcb9" d="M 49.5,64.5 C 48.5423,65.9616 47.3756,67.2949 46,68.5C 45.8333,70.1667 45.6667,71.8333 45.5,73.5C 46.7632,80.9489 48.4298,88.2822 50.5,95.5C 46.3597,95.4709 42.3597,94.8042 38.5,93.5C 36.8846,81.843 38.8846,71.0097 44.5,61C 45.1667,60.3333 45.8333,60.3333 46.5,61C 48.0629,61.7589 49.0629,62.9256 49.5,64.5 Z"/></g>
<g><path style="opacity:1" fill="#067a5f" d="M 25.5,29.5 C 26.3886,31.9098 27.0552,34.4098 27.5,37C 27.0523,41.178 25.7189,45.0113 23.5,48.5C 24.8716,51.3317 25.8716,54.3317 26.5,57.5C 24.9802,59.6621 23.9802,61.9954 23.5,64.5C 26.2431,64.0772 27.5765,65.2439 27.5,68C 25.611,72.231 23.2777,76.231 20.5,80C 21.697,81.5199 23.197,82.6866 25,83.5C 25.6552,85.6284 26.4886,87.6284 27.5,89.5C 22.8922,87.5505 19.2256,84.5505 16.5,80.5C 15.1306,64.4155 16.9639,48.7489 22,33.5C 23.0319,31.9733 24.1986,30.64 25.5,29.5 Z"/></g>
<g><path style="opacity:1" fill="#4ebd6e" d="M 65.5,24.5 C 63.9581,25.1635 62.2914,25.8302 60.5,26.5C 61.7701,27.2876 62.7701,28.2876 63.5,29.5C 65.5,32.1667 67.8333,34.5 70.5,36.5C 71.2623,38.2624 72.5956,39.2624 74.5,39.5C 85.87,43.7909 88.87,51.2909 83.5,62C 80.3924,63.7585 77.059,64.5919 73.5,64.5C 68.3819,64.0244 64.0486,62.0244 60.5,58.5C 58.8333,59.8333 57.1667,59.8333 55.5,58.5C 55.1667,58.6667 54.8333,58.8333 54.5,59C 59.3572,61.2586 64.3572,63.2586 69.5,65C 67.5273,65.4955 65.5273,65.6621 63.5,65.5C 59.5499,65.5361 55.7165,64.8694 52,63.5C 51.0979,63.7432 50.2646,64.0766 49.5,64.5C 49.0629,62.9256 48.0629,61.7589 46.5,61C 45.8333,60.3333 45.1667,60.3333 44.5,61C 38.8846,71.0097 36.8846,81.843 38.5,93.5C 34.534,92.9561 30.8674,91.6228 27.5,89.5C 26.4886,87.6284 25.6552,85.6284 25,83.5C 23.197,82.6866 21.697,81.5199 20.5,80C 23.2777,76.231 25.611,72.231 27.5,68C 27.5765,65.2439 26.2431,64.0772 23.5,64.5C 23.9802,61.9954 24.9802,59.6621 26.5,57.5C 25.8716,54.3317 24.8716,51.3317 23.5,48.5C 25.7189,45.0113 27.0523,41.178 27.5,37C 27.0552,34.4098 26.3886,31.9098 25.5,29.5C 29.463,26.1796 33.7964,23.3463 38.5,21C 41.5,20.3333 44.5,20.3333 47.5,21C 53.3951,22.7834 59.3951,23.9501 65.5,24.5 Z"/></g>
<g><path style="opacity:1" fill="#0561fa" d="M 50.5,95.5 C 48.4298,88.2822 46.7632,80.9489 45.5,73.5C 45.6667,71.8333 45.8333,70.1667 46,68.5C 47.3756,67.2949 48.5423,65.9616 49.5,64.5C 50.2646,64.0766 51.0979,63.7432 52,63.5C 55.7165,64.8694 59.5499,65.5361 63.5,65.5C 64.6216,66.1558 65.9549,66.4892 67.5,66.5C 69.8825,66.639 71.8825,65.9723 73.5,64.5C 77.059,64.5919 80.3924,63.7585 83.5,62C 88.87,51.2909 85.87,43.7909 74.5,39.5C 74.1097,35.4187 72.7764,31.752 70.5,28.5C 69.4206,26.457 67.754,25.1237 65.5,24.5C 59.3951,23.9501 53.3951,22.7834 47.5,21C 44.5,20.3333 41.5,20.3333 38.5,21C 33.7964,23.3463 29.463,26.1796 25.5,29.5C 24.1986,30.64 23.0319,31.9733 22,33.5C 16.9639,48.7489 15.1306,64.4155 16.5,80.5C 4.28596,67.2777 0.785964,51.9444 6,34.5C 13.9402,15.358 28.2736,5.02466 49,3.5C 71.6837,4.67414 86.6837,16.0075 94,37.5C 98.1557,70.8638 83.6557,90.1971 50.5,95.5 Z"/></g>
<g><path style="opacity:1" fill="#428059" d="M 73.5,64.5 C 71.8825,65.9723 69.8825,66.639 67.5,66.5C 65.9549,66.4892 64.6216,66.1558 63.5,65.5C 65.5273,65.6621 67.5273,65.4955 69.5,65C 64.3572,63.2586 59.3572,61.2586 54.5,59C 54.8333,58.8333 55.1667,58.6667 55.5,58.5C 57.1667,59.8333 58.8333,59.8333 60.5,58.5C 64.0486,62.0244 68.3819,64.0244 73.5,64.5 Z"/></g>
<g><path style="opacity:1" fill="#29372a" d="M 41.5,25.5 C 38.8574,28.2336 37.8574,31.5669 38.5,35.5C 35.4512,31.0366 36.4512,27.7033 41.5,25.5 Z"/></g>
<g><path style="opacity:1" fill="#445d51" d="M 67.5,28.5 C 68.7978,29.1157 69.7978,29.1157 70.5,28.5C 72.7764,31.752 74.1097,35.4187 74.5,39.5C 72.5956,39.2624 71.2623,38.2624 70.5,36.5C 71.4081,34.5479 71.2414,32.5479 70,30.5C 68.927,31.2797 67.7604,31.113 66.5,30C 67.056,29.6174 67.3893,29.1174 67.5,28.5 Z"/></g>
<g><path style="opacity:1" fill="#0a0d0d" d="M 67.5,28.5 C 67.3893,29.1174 67.056,29.6174 66.5,30C 67.7604,31.113 68.927,31.2797 70,30.5C 71.2414,32.5479 71.4081,34.5479 70.5,36.5C 67.8333,34.5 65.5,32.1667 63.5,29.5C 64.7079,28.7659 66.0413,28.4326 67.5,28.5 Z"/></g>
<g><path style="opacity:1" fill="#121412" d="M 50.5,27.5 C 54.8187,29.8342 57.1521,33.5008 57.5,38.5C 49.3943,40.726 46.061,37.726 47.5,29.5C 48.3569,28.5748 49.3569,27.9081 50.5,27.5 Z"/></g>
<g><path style="opacity:1" fill="#7ea17c" d="M 65.5,24.5 C 67.754,25.1237 69.4206,26.457 70.5,28.5C 69.7978,29.1157 68.7978,29.1157 67.5,28.5C 66.0413,28.4326 64.7079,28.7659 63.5,29.5C 62.7701,28.2876 61.7701,27.2876 60.5,26.5C 62.2914,25.8302 63.9581,25.1635 65.5,24.5 Z"/></g>
<g><path style="opacity:1" fill="#e9e6d2" d="M 41.5,25.5 C 44.8291,25.2153 47.8291,25.8819 50.5,27.5C 49.3569,27.9081 48.3569,28.5748 47.5,29.5C 46.061,37.726 49.3943,40.726 57.5,38.5C 54.0497,42.2947 49.7164,43.4614 44.5,42C 42.2941,39.9633 40.2941,37.7966 38.5,35.5C 37.8574,31.5669 38.8574,28.2336 41.5,25.5 Z"/></g>
<g><path style="opacity:1" fill="#0d1120" d="M 58.5,16.5 C 61.3456,16.0301 63.6789,16.8634 65.5,19C 62.888,18.9015 60.2213,18.5682 57.5,18C 58.056,17.6174 58.3893,17.1174 58.5,16.5 Z"/></g>
<g><path style="opacity:1" fill="#0e1324" d="M 35.5,14.5 C 43.8392,14.9592 44.1726,15.7925 36.5,17C 31.5579,19.9595 31.2246,19.1262 35.5,14.5 Z"/></g>
</svg>
