<svg width="30" height="30" viewBox="0 0 30 30" fill="none" xmlns="http://www.w3.org/2000/svg">
  <path fill-rule="evenodd" clip-rule="evenodd" d="M15 0C6.71573 0 0 6.71573 0 15C0 23.2843 6.71573 30 15 30C23.2843 30 30 23.2843 30 15C30 6.71573 23.2843 0 15 0ZM7.85201 19.12C7.10801 19.12 6.48401 19.012 5.98001 18.796C5.48401 18.572 5.10401 18.284 4.84001 17.932C4.58401 17.572 4.44801 17.196 4.43201 16.804C4.43201 16.732 4.45601 16.672 4.50401 16.624C4.55201 16.576 4.61201 16.552 4.68401 16.552H5.75201C5.85601 16.552 5.93201 16.576 5.98001 16.624C6.03601 16.664 6.08401 16.716 6.12401 16.78C6.17201 16.932 6.26401 17.084 6.40001 17.236C6.53601 17.38 6.72001 17.5 6.95201 17.596C7.19201 17.692 7.49201 17.74 7.85201 17.74C8.42801 17.74 8.85601 17.644 9.13601 17.452C9.42401 17.26 9.56801 17 9.56801 16.672C9.56801 16.44 9.49201 16.256 9.34001 16.12C9.18801 15.976 8.95201 15.848 8.63201 15.736C8.32001 15.616 7.90401 15.492 7.38401 15.364C6.78401 15.22 6.28001 15.048 5.87201 14.848C5.47201 14.64 5.16801 14.38 4.96001 14.068C4.76001 13.756 4.66001 13.36 4.66001 12.88C4.66001 12.416 4.78401 12.004 5.03201 11.644C5.28801 11.284 5.64801 11 6.11201 10.792C6.58401 10.584 7.14401 10.48 7.79201 10.48C8.31201 10.48 8.77201 10.552 9.17201 10.696C9.57201 10.832 9.90401 11.016 10.168 11.248C10.432 11.472 10.632 11.716 10.768 11.98C10.912 12.236 10.988 12.488 10.996 12.736C10.996 12.8 10.972 12.86 10.924 12.916C10.884 12.964 10.824 12.988 10.744 12.988H9.62801C9.56401 12.988 9.50001 12.972 9.43601 12.94C9.37201 12.908 9.32001 12.848 9.28001 12.76C9.23201 12.512 9.07601 12.3 8.81201 12.124C8.54801 11.948 8.20801 11.86 7.79201 11.86C7.36001 11.86 7.01201 11.94 6.74801 12.1C6.48401 12.26 6.35201 12.508 6.35201 12.844C6.35201 13.068 6.41601 13.256 6.54401 13.408C6.68001 13.552 6.89201 13.68 7.18001 13.792C7.47601 13.904 7.86401 14.024 8.34401 14.152C9.02401 14.304 9.58001 14.48 10.012 14.68C10.444 14.88 10.76 15.136 10.96 15.448C11.16 15.752 11.26 16.14 11.26 16.612C11.26 17.14 11.116 17.592 10.828 17.968C10.548 18.336 10.152 18.62 9.64001 18.82C9.12801 19.02 8.53201 19.12 7.85201 19.12ZM12.9232 19C12.8432 19 12.7752 18.972 12.7192 18.916C12.6632 18.86 12.6352 18.792 12.6352 18.712V10.9C12.6352 10.812 12.6632 10.74 12.7192 10.684C12.7752 10.628 12.8432 10.6 12.9232 10.6H18.2032C18.2912 10.6 18.3632 10.628 18.4192 10.684C18.4752 10.74 18.5032 10.812 18.5032 10.9V11.692C18.5032 11.772 18.4752 11.84 18.4192 11.896C18.3632 11.952 18.2912 11.98 18.2032 11.98H14.2552V14.104H17.9392C18.0272 14.104 18.0992 14.132 18.1552 14.188C18.2112 14.236 18.2392 14.304 18.2392 14.392V15.136C18.2392 15.224 18.2112 15.296 18.1552 15.352C18.0992 15.4 18.0272 15.424 17.9392 15.424H14.2552V17.62H18.2992C18.3872 17.62 18.4592 17.648 18.5152 17.704C18.5712 17.76 18.5992 17.832 18.5992 17.92V18.712C18.5992 18.792 18.5712 18.86 18.5152 18.916C18.4592 18.972 18.3872 19 18.2992 19H12.9232ZM20.1841 18.916C20.2401 18.972 20.3081 19 20.3881 19H21.4441C21.5321 19 21.6041 18.972 21.6601 18.916C21.7161 18.86 21.7441 18.792 21.7441 18.712V15.604L24.6481 18.784C24.6721 18.808 24.7201 18.852 24.7921 18.916C24.8721 18.972 24.9801 19 25.1161 19H26.3521C26.4161 19 26.4721 18.976 26.5201 18.928C26.5761 18.88 26.6041 18.82 26.6041 18.748C26.6041 18.692 26.5841 18.64 26.5441 18.592L23.0161 14.62L26.3161 10.996C26.3481 10.956 26.3641 10.908 26.3641 10.852C26.3641 10.78 26.3361 10.72 26.2801 10.672C26.2321 10.624 26.1761 10.6 26.1121 10.6H24.9241C24.7961 10.6 24.6921 10.628 24.6121 10.684C24.5401 10.732 24.4881 10.776 24.4561 10.816L21.7441 13.708V10.9C21.7441 10.812 21.7161 10.74 21.6601 10.684C21.6041 10.628 21.5321 10.6 21.4441 10.6H20.3881C20.3081 10.6 20.2401 10.628 20.1841 10.684C20.1281 10.74 20.1001 10.812 20.1001 10.9V18.712C20.1001 18.792 20.1281 18.86 20.1841 18.916Z" fill="#134F93"/>
</svg>
