<svg width="30" height="30" viewBox="0 0 30 30" fill="none" xmlns="http://www.w3.org/2000/svg">
  <path fill-rule="evenodd" clip-rule="evenodd" d="M15 0C6.71573 0 0 6.71573 0 15C0 23.2843 6.71573 30 15 30C23.2843 30 30 23.2843 30 15C30 6.71573 23.2843 0 15 0ZM4.22397 19C4.14397 19 4.07597 18.972 4.01997 18.916C3.96397 18.86 3.93597 18.792 3.93597 18.712V10.9C3.93597 10.812 3.96397 10.74 4.01997 10.684C4.07597 10.628 4.14397 10.6 4.22397 10.6H7.15197C7.95997 10.6 8.62397 10.724 9.14397 10.972C9.67197 11.22 10.068 11.588 10.332 12.076C10.604 12.564 10.744 13.16 10.752 13.864C10.768 14.216 10.776 14.528 10.776 14.8C10.776 15.072 10.768 15.38 10.752 15.724C10.736 16.468 10.6 17.084 10.344 17.572C10.088 18.052 9.69997 18.412 9.17997 18.652C8.66797 18.884 8.01197 19 7.21197 19H4.22397ZM5.60397 17.62H7.15197C7.59997 17.62 7.96397 17.556 8.24397 17.428C8.52397 17.3 8.72797 17.096 8.85597 16.816C8.99197 16.528 9.06397 16.152 9.07197 15.688C9.07998 15.448 9.08397 15.24 9.08397 15.064C9.09197 14.88 9.09197 14.7 9.08397 14.524C9.08397 14.34 9.07998 14.132 9.07197 13.9C9.05597 13.244 8.89197 12.76 8.57998 12.448C8.26797 12.136 7.77197 11.98 7.09197 11.98H5.60397V17.62ZM12.6615 19C12.5815 19 12.5135 18.972 12.4575 18.916C12.4015 18.86 12.3735 18.792 12.3735 18.712V10.9C12.3735 10.812 12.4015 10.74 12.4575 10.684C12.5135 10.628 12.5815 10.6 12.6615 10.6H13.7175C13.8055 10.6 13.8775 10.628 13.9335 10.684C13.9895 10.74 14.0175 10.812 14.0175 10.9V13.708L16.7295 10.816C16.7615 10.776 16.8135 10.732 16.8855 10.684C16.9655 10.628 17.0695 10.6 17.1975 10.6H18.3855C18.4495 10.6 18.5055 10.624 18.5535 10.672C18.6095 10.72 18.6375 10.78 18.6375 10.852C18.6375 10.908 18.6215 10.956 18.5895 10.996L15.2895 14.62L18.8175 18.592C18.8575 18.64 18.8775 18.692 18.8775 18.748C18.8775 18.82 18.8495 18.88 18.7935 18.928C18.7455 18.976 18.6895 19 18.6255 19H17.3895C17.2535 19 17.1455 18.972 17.0655 18.916C16.9935 18.852 16.9455 18.808 16.9215 18.784L14.0175 15.604V18.712C14.0175 18.792 13.9895 18.86 13.9335 18.916C13.8775 18.972 13.8055 19 13.7175 19H12.6615ZM20.0395 18.916C20.0955 18.972 20.1635 19 20.2435 19H21.2995C21.3875 19 21.4595 18.972 21.5155 18.916C21.5715 18.86 21.5995 18.792 21.5995 18.712V15.604L24.5035 18.784C24.5275 18.808 24.5755 18.852 24.6475 18.916C24.7275 18.972 24.8355 19 24.9715 19H26.2075C26.2715 19 26.3275 18.976 26.3755 18.928C26.4315 18.88 26.4595 18.82 26.4595 18.748C26.4595 18.692 26.4395 18.64 26.3995 18.592L22.8715 14.62L26.1715 10.996C26.2035 10.956 26.2195 10.908 26.2195 10.852C26.2195 10.78 26.1915 10.72 26.1355 10.672C26.0875 10.624 26.0315 10.6 25.9675 10.6H24.7795C24.6515 10.6 24.5475 10.628 24.4675 10.684C24.3955 10.732 24.3435 10.776 24.3115 10.816L21.5995 13.708V10.9C21.5995 10.812 21.5715 10.74 21.5155 10.684C21.4595 10.628 21.3875 10.6 21.2995 10.6H20.2435C20.1635 10.6 20.0955 10.628 20.0395 10.684C19.9835 10.74 19.9555 10.812 19.9555 10.9V18.712C19.9555 18.792 19.9835 18.86 20.0395 18.916Z" fill="#E43532"/>
</svg>
