<svg width="30" height="30" viewBox="0 0 30 30" fill="none" xmlns="http://www.w3.org/2000/svg">
  <path fill-rule="evenodd" clip-rule="evenodd" d="M15 0C6.71582 0 0 6.7157 0 15C0 23.2843 6.71582 30 15 30C23.2842 30 30 23.2843 30 15C30 6.7157 23.2842 0 15 0ZM23.4441 8V9.2439C25.0005 9.34546 26.281 9.95557 26.281 9.95557L26.3101 12.3292L25.8757 12.416C25.8757 12.416 25.7795 10.2938 23.4441 10.2155V19.8275L23.4731 19.8263C25.6206 19.7296 26.2522 18.5237 26.2522 18.5237V19.3921C26.2522 19.3921 25.7393 20.5476 23.4441 20.6854V22.5356H22.5469V20.6584C20.3413 20.3641 17.9126 18.3774 18.0024 14.8475C18.1116 10.6521 21.1396 9.54736 22.5469 9.29712V8H23.4441ZM22.5469 10.2899V19.7588C20.5034 19.3313 19.9023 17.0757 19.8259 14.9633C19.7471 12.7754 20.5911 10.7078 22.5469 10.2899ZM6.9021 13.0419C7.0083 13.2041 7.09155 13.3878 7.15186 13.5931H8.51929C8.48853 13.381 8.43872 13.1788 8.37012 12.9868C8.31519 12.8326 8.24805 12.6849 8.16846 12.5437C8.0647 12.3596 7.94434 12.1899 7.80713 12.0348C7.70825 11.9231 7.60083 11.819 7.48462 11.7224C7.3811 11.6356 7.27222 11.5564 7.15747 11.4847C7.07593 11.4337 6.99146 11.3865 6.90405 11.3431C6.84766 11.3152 6.79028 11.2888 6.73169 11.264C6.66919 11.2375 6.60547 11.2129 6.54028 11.1901C6.18579 11.0634 5.80347 11 5.39355 11C4.90869 11 4.46021 11.0913 4.04761 11.2738C3.63525 11.4537 3.27588 11.7174 2.96948 12.0647C2.66333 12.4094 2.42456 12.8289 2.25317 13.3232C2.15088 13.6227 2.07959 13.9467 2.03931 14.2953C2.01318 14.5222 2 14.7596 2 15.0076C2 15.8289 2.14355 16.5387 2.43042 17.1368C2.71997 17.7325 3.12158 18.1926 3.63525 18.5171C4.15137 18.839 4.75073 19 5.43335 19C6.0459 19 6.58862 18.8695 7.06128 18.6084C7.53394 18.3447 7.90552 17.9696 8.17554 17.4829C8.4458 16.9962 8.58081 16.4196 8.58081 15.7528V14.8175H5.57446V15.9202H7.28149C7.27515 16.2772 7.20068 16.5903 7.05762 16.8594C6.9082 17.1382 6.69482 17.3536 6.41724 17.5057C6.14233 17.6578 5.81689 17.7339 5.44043 17.7339C5.02563 17.7339 4.66138 17.6287 4.3479 17.4182C4.03442 17.2053 3.78955 16.8948 3.61353 16.4867C3.4375 16.0786 3.34937 15.5804 3.34937 14.9924C3.34937 14.4094 3.4375 13.915 3.61353 13.5095C3.79199 13.1014 4.03687 12.7921 4.3479 12.5818C4.65918 12.3713 5.01367 12.2661 5.41162 12.2661C5.63354 12.2661 5.83838 12.2966 6.02661 12.3574C6.21484 12.4158 6.3811 12.5032 6.52588 12.6198C6.6731 12.7363 6.79834 12.8771 6.9021 13.0419ZM9.87866 11.1064V18.8936H11.2209V15.5856H14.6543V18.8936H16V11.1064H14.6543V14.4031H11.2209V11.1064H9.87866Z" fill="#FBD55B"/>
</svg>
