<svg width="30" height="30" viewBox="0 0 30 30" fill="none" xmlns="http://www.w3.org/2000/svg">
  <path fill-rule="evenodd" clip-rule="evenodd" d="M15 0C6.71573 0 0 6.71573 0 15C0 23.2843 6.71573 30 15 30C23.2843 30 30 23.2843 30 15C30 6.71573 23.2843 0 15 0ZM17.4115 15.3115L22.7411 8.85157C22.8363 8.7364 22.9076 8.60377 22.9511 8.46125C22.9945 8.31872 23.0093 8.1691 22.9944 8.02094C22.9795 7.87278 22.9353 7.72898 22.8644 7.59775C22.7934 7.46653 22.6971 7.35045 22.5809 7.25617C22.4647 7.16188 22.3309 7.09123 22.1871 7.04824C22.0434 7.00526 21.8925 6.99079 21.7431 7.00567C21.5937 7.02054 21.4487 7.06447 21.3165 7.13493C21.1842 7.20539 21.0672 7.30101 20.9723 7.41632L15 14.6551L9.02774 7.41632C8.93276 7.30101 8.81579 7.20539 8.68352 7.13493C8.55126 7.06447 8.40628 7.02054 8.25689 7.00567C8.1075 6.99079 7.95662 7.00526 7.81286 7.04824C7.66911 7.09123 7.53531 7.16188 7.41911 7.25617C7.30291 7.35045 7.20658 7.46653 7.13563 7.59775C7.06468 7.72898 7.02051 7.87278 7.00563 8.02094C6.99075 8.1691 7.00545 8.31872 7.04891 8.46125C7.09237 8.60377 7.16372 8.7364 7.25889 8.85157L12.5885 15.3115H10.4289C10.1258 15.3115 9.83512 15.4309 9.62081 15.6434C9.40649 15.8559 9.28609 16.1442 9.28609 16.4448C9.28609 16.7453 9.40649 17.0336 9.62081 17.2461C9.83512 17.4586 10.1258 17.5781 10.4289 17.5781H13.8572V19.0891H10.4289C10.1258 19.0891 9.83512 19.2085 9.62081 19.421C9.40649 19.6336 9.28609 19.9218 9.28609 20.2224C9.28609 20.523 9.40649 20.8112 9.62081 21.0238C9.83512 21.2363 10.1258 21.3557 10.4289 21.3557H13.8572V24C13.8572 24.3006 13.9776 24.5889 14.1919 24.8014C14.4062 25.0139 14.6969 25.1333 15 25.1333C15.3031 25.1333 15.5938 25.0139 15.8081 24.8014C16.0224 24.5889 16.1428 24.3006 16.1428 24V21.3557H19.5711C19.8742 21.3557 20.1649 21.2363 20.3792 21.0238C20.5935 20.8112 20.7139 20.523 20.7139 20.2224C20.7139 19.9218 20.5935 19.6336 20.3792 19.421C20.1649 19.2085 19.8742 19.0891 19.5711 19.0891H16.1428V17.5781H19.5711C19.8742 17.5781 20.1649 17.4586 20.3792 17.2461C20.5935 17.0336 20.7139 16.7453 20.7139 16.4448C20.7139 16.1442 20.5935 15.8559 20.3792 15.6434C20.1649 15.4309 19.8742 15.3115 19.5711 15.3115H17.4115Z" fill="#ED3885"/>
</svg>
