<svg width="119" height="37" viewBox="0 0 119 37" fill="none" xmlns="http://www.w3.org/2000/svg">
  <path d="M0 33.2268V37H20.5122C30.9222 37 39.3612 28.7173 39.3612 18.5C39.3612 12.173 36.1251 6.58783 31.1889 3.25192C25.7275 15.6554 15.8688 25.7628 3.36667 31.6433L0 33.2268Z" fill="#3662CF"/>
  <path d="M26.458 0.93925C24.5888 0.329904 22.5898 0 20.5122 0H0V27.5236C11.8763 22.1692 21.2961 12.6876 26.458 0.93925Z" fill="#37A8D1"/>
  <path d="M50.8081 27.4769H46.4644V16.3967H50.764C51.9252 16.3967 52.9285 16.6185 53.7737 17.0622C54.6226 17.5022 55.2767 18.137 55.7361 18.9666C56.1991 19.7926 56.4306 20.7826 56.4306 21.9368C56.4306 23.091 56.201 24.0829 55.7416 24.9125C55.2822 25.7384 54.6318 26.3733 53.7902 26.8169C52.9487 27.2569 51.9546 27.4769 50.8081 27.4769ZM49.5292 24.9233H50.6978C51.2564 24.9233 51.7323 24.8349 52.1255 24.6582C52.5224 24.4815 52.8237 24.1767 53.0295 23.7439C53.239 23.311 53.3437 22.7087 53.3437 21.9368C53.3437 21.165 53.2372 20.5626 53.024 20.1298C52.8146 19.697 52.5059 19.3922 52.098 19.2155C51.6937 19.0387 51.1976 18.9504 50.6096 18.9504H49.5292V24.9233Z" fill="#3662CF"/>
  <path d="M61.9499 27.6284C61.0458 27.6284 60.2668 27.4589 59.6126 27.1199C58.9622 26.7772 58.4606 26.2867 58.1078 25.6483C57.7587 25.0063 57.5841 24.238 57.5841 23.3435C57.5841 22.4851 57.7605 21.7349 58.1133 21.0928C58.4661 20.4508 58.964 19.9513 59.6071 19.5942C60.2502 19.2371 61.0091 19.0586 61.8837 19.0586C62.5231 19.0586 63.1019 19.156 63.6201 19.3507C64.1383 19.5455 64.5811 19.8286 64.9486 20.2001C65.3161 20.568 65.599 21.0153 65.7975 21.5419C65.9959 22.0685 66.0951 22.6618 66.0951 23.3219V24.0144H60.5828V22.3697H63.2949C63.2912 22.1316 63.2287 21.9224 63.1075 21.7421C62.9899 21.5581 62.83 21.4156 62.6279 21.3147C62.4294 21.2101 62.2034 21.1578 61.9499 21.1578C61.7036 21.1578 61.4776 21.2101 61.2718 21.3147C61.0661 21.4156 60.9007 21.5563 60.7757 21.7367C60.6545 21.917 60.5902 22.128 60.5828 22.3697V24.1442C60.5828 24.4111 60.6398 24.6492 60.7537 24.8584C60.8676 25.0676 61.0311 25.2317 61.2443 25.3507C61.4574 25.4697 61.7147 25.5293 62.016 25.5293C62.2255 25.5293 62.4166 25.5004 62.5893 25.4427C62.7657 25.385 62.9164 25.302 63.0413 25.1938C63.1663 25.082 63.2581 24.9485 63.3169 24.7935H66.0951C65.9996 25.3706 65.7736 25.8719 65.4171 26.2975C65.0607 26.7195 64.5884 27.0477 64.0005 27.2822C63.4161 27.513 62.7326 27.6284 61.9499 27.6284Z" fill="#3662CF"/>
  <path d="M68.8697 19.1668L70.1045 21.7421L71.4054 19.1668H74.4261L72.1551 23.3219L74.5364 27.4769H71.5377L70.1045 24.8367L68.7154 27.4769H65.6726L68.0759 23.3219L65.8269 19.1668H68.8697Z" fill="#3662CF"/>
  <path d="M75.1551 18.8205V16.3967H84.9671V18.8205H81.5715V27.4769H78.5507V18.8205H75.1551Z" fill="#37A8D1"/>
  <path d="M85.2854 27.4769V19.1668H88.24V20.7466H88.3282C88.4826 20.1623 88.7269 19.7349 89.0614 19.4643C89.3994 19.1938 89.7945 19.0586 90.2465 19.0586C90.3788 19.0586 90.5093 19.0694 90.6379 19.091C90.7702 19.1091 90.897 19.1361 91.0182 19.1722V21.7204C90.8676 21.6699 90.682 21.6321 90.4615 21.6068C90.241 21.5816 90.0517 21.5689 89.8937 21.5689C89.5961 21.5689 89.3278 21.6357 89.0889 21.7691C88.8537 21.899 88.6681 22.0829 88.5322 22.321C88.3962 22.5554 88.3282 22.8313 88.3282 23.1487V27.4769H85.2854Z" fill="#37A8D1"/>
  <path d="M93.9811 27.6068C93.4409 27.6068 92.9632 27.5202 92.5479 27.3471C92.1363 27.1704 91.8129 26.9035 91.5777 26.5464C91.3425 26.1893 91.225 25.7348 91.225 25.183C91.225 24.7285 91.304 24.3408 91.462 24.0198C91.62 23.6952 91.8405 23.4301 92.1235 23.2245C92.4064 23.0189 92.7353 22.862 93.1102 22.7538C93.4887 22.6456 93.8966 22.5752 94.3339 22.5428C94.808 22.5067 95.1883 22.4634 95.475 22.4129C95.7653 22.3588 95.9747 22.2849 96.1034 22.1911C96.232 22.0937 96.2963 21.9657 96.2963 21.807V21.7853C96.2963 21.5689 96.2118 21.403 96.0427 21.2876C95.8737 21.1722 95.6569 21.1145 95.3923 21.1145C95.102 21.1145 94.8649 21.1776 94.6812 21.3038C94.5011 21.4265 94.3927 21.6158 94.3559 21.8719H91.5557C91.5924 21.367 91.756 20.9017 92.0463 20.4761C92.3403 20.0469 92.7684 19.7042 93.3307 19.4481C93.8929 19.1884 94.5948 19.0586 95.4364 19.0586C96.0427 19.0586 96.5866 19.1289 97.068 19.2696C97.5494 19.4066 97.9592 19.5996 98.2973 19.8485C98.6354 20.0937 98.8926 20.3823 99.069 20.7141C99.2491 21.0423 99.3391 21.3994 99.3391 21.7853V27.4769H96.4947V26.3083H96.4286C96.2595 26.6185 96.0537 26.8692 95.8112 27.0604C95.5723 27.2515 95.2986 27.3904 94.9899 27.4769C94.6849 27.5635 94.3486 27.6068 93.9811 27.6068ZM94.9733 25.724C95.2048 25.724 95.4217 25.6771 95.6238 25.5834C95.8296 25.4896 95.9968 25.3543 96.1254 25.1776C96.254 25.0008 96.3183 24.7862 96.3183 24.5338V23.8412C96.2375 23.8737 96.1511 23.9044 96.0593 23.9332C95.9711 23.9621 95.8755 23.9891 95.7726 24.0144C95.6734 24.0396 95.5668 24.0631 95.4529 24.0847C95.3427 24.1064 95.2269 24.1262 95.1056 24.1442C94.8704 24.1803 94.6775 24.2398 94.5268 24.3228C94.3798 24.4021 94.2696 24.5013 94.1961 24.6203C94.1263 24.7357 94.0914 24.8656 94.0914 25.0099C94.0914 25.2407 94.174 25.4174 94.3394 25.5401C94.5048 25.6627 94.7161 25.724 94.9733 25.724Z" fill="#37A8D1"/>
  <path d="M103.858 27.5851C103.255 27.5851 102.7 27.4301 102.193 27.1199C101.69 26.8097 101.285 26.339 100.98 25.7078C100.679 25.0766 100.528 24.2813 100.528 23.3219C100.528 22.3192 100.686 21.504 101.002 20.8764C101.322 20.2488 101.734 19.789 102.237 19.4968C102.744 19.2047 103.277 19.0586 103.836 19.0586C104.255 19.0586 104.622 19.1307 104.938 19.275C105.254 19.4157 105.519 19.605 105.732 19.8431C105.945 20.0775 106.107 20.3354 106.217 20.6167H106.261V16.3967H109.304V27.4769H106.283V26.1136H106.217C106.1 26.3949 105.93 26.6474 105.71 26.871C105.493 27.091 105.229 27.2659 104.916 27.3958C104.608 27.522 104.255 27.5851 103.858 27.5851ZM104.982 25.2912C105.262 25.2912 105.501 25.2118 105.699 25.0531C105.901 24.8908 106.055 24.6636 106.162 24.3715C106.272 24.0757 106.327 23.7258 106.327 23.3219C106.327 22.9107 106.272 22.559 106.162 22.2669C106.055 21.9711 105.901 21.7457 105.699 21.5906C105.501 21.4319 105.262 21.3525 104.982 21.3525C104.703 21.3525 104.464 21.4319 104.266 21.5906C104.071 21.7457 103.92 21.9711 103.814 22.2669C103.711 22.559 103.659 22.9107 103.659 23.3219C103.659 23.733 103.711 24.0865 103.814 24.3823C103.92 24.6744 104.071 24.8999 104.266 25.0586C104.464 25.2137 104.703 25.2912 104.982 25.2912Z" fill="#37A8D1"/>
  <path d="M114.855 27.6284C113.951 27.6284 113.172 27.4589 112.518 27.1199C111.867 26.7772 111.366 26.2867 111.013 25.6483C110.664 25.0063 110.489 24.238 110.489 23.3435C110.489 22.4851 110.666 21.7349 111.018 21.0928C111.371 20.4508 111.869 19.9513 112.512 19.5942C113.155 19.2371 113.914 19.0586 114.789 19.0586C115.428 19.0586 116.007 19.156 116.525 19.3507C117.043 19.5455 117.486 19.8286 117.854 20.2001C118.221 20.568 118.504 21.0153 118.703 21.5419C118.901 22.0685 119 22.6618 119 23.3219V24.0144L113.488 24V22.3553L116.2 22.3697C116.196 22.1316 116.134 21.9224 116.013 21.7421C115.895 21.5581 115.735 21.4156 115.533 21.3147C115.334 21.2101 115.108 21.1578 114.855 21.1578C114.609 21.1578 114.383 21.2101 114.177 21.3147C113.971 21.4156 113.806 21.5563 113.681 21.7367C113.56 21.917 113.495 22.128 113.488 22.3697V24.1442C113.488 24.4111 113.545 24.6492 113.659 24.8584C113.773 25.0676 113.936 25.2317 114.149 25.3507C114.362 25.4697 114.62 25.5293 114.921 25.5293C115.131 25.5293 115.322 25.5004 115.494 25.4427C115.671 25.385 115.821 25.302 115.946 25.1938C116.071 25.082 116.163 24.9485 116.222 24.7935H119C118.905 25.3706 118.679 25.8719 118.322 26.2975C117.966 26.7195 117.493 27.0477 116.906 27.2822C116.321 27.513 115.638 27.6284 114.855 27.6284Z" fill="#37A8D1"/>
  </svg>
