
<svg width="24" height="24" viewBox="0 0 24 24" fill="none" xmlns="http://www.w3.org/2000/svg">
  <circle cx="12" cy="12" r="10.7143" transform="rotate(90 12 12)" opacity="0.1" fill="currentColor" stroke="currentColor" stroke-width="1.42857"/>
  <path d="M6.78146 13.8591C6.50668 13.5809 6.50668 13.1335 6.78145 12.8552L7.259 12.3717C7.53865 12.0886 7.99576 12.0886 8.27541 12.3717L10.9418 15.0715L10.9418 5.57146C10.9418 5.17697 11.2616 4.85718 11.6561 4.85718L12.3439 4.85718C12.7384 4.85718 13.0582 5.17697 13.0582 5.57146L13.0582 15.0715L15.7246 12.3717C16.0043 12.0886 16.4614 12.0886 16.741 12.3717L17.2186 12.8552C17.4933 13.1335 17.4933 13.5809 17.2186 13.8591L12.5082 18.6283C12.2286 18.9115 11.7715 18.9115 11.4918 18.6283L6.78146 13.8591Z" fill="#C3CFF6"/>
</svg>
