<svg width="17" height="17" viewBox="0 0 17 17" fill="none" xmlns="http://www.w3.org/2000/svg">
  <path d="M16 8.5C16 4.35938 12.6406 1 8.5 1C4.35938 1 1 4.35938 1 8.5C1 12.6406 4.35938 16 8.5 16C12.6406 16 16 12.6406 16 8.5Z" stroke="#3965D1" stroke-width="1.5" stroke-miterlimit="10"/>
  <path d="M8.27562 4.9864L8.49984 9.75007L8.72367 4.9864C8.72505 4.95595 8.72021 4.92553 8.70944 4.89701C8.69867 4.86849 8.68219 4.84247 8.66103 4.82053C8.63986 4.7986 8.61444 4.78121 8.58632 4.76943C8.5582 4.75765 8.52798 4.75173 8.4975 4.75202V4.75202C8.46738 4.75231 8.43762 4.75866 8.41001 4.7707C8.38239 4.78273 8.35749 4.80021 8.33678 4.82209C8.31607 4.84396 8.29998 4.86979 8.28948 4.89802C8.27897 4.92625 8.27426 4.95631 8.27562 4.9864V4.9864Z" stroke="#4874DD" stroke-width="2" stroke-linecap="round" stroke-linejoin="round"/>
  <path d="M8.5 12.8715C8.34548 12.8715 8.19444 12.8257 8.06596 12.7399C7.93749 12.654 7.83735 12.532 7.77822 12.3892C7.71909 12.2465 7.70362 12.0894 7.73376 11.9379C7.76391 11.7863 7.83831 11.6471 7.94757 11.5378C8.05683 11.4286 8.19604 11.3542 8.34759 11.324C8.49913 11.2939 8.65622 11.3094 8.79897 11.3685C8.94173 11.4276 9.06374 11.5278 9.14959 11.6562C9.23543 11.7847 9.28125 11.9358 9.28125 12.0903C9.28125 12.2975 9.19894 12.4962 9.05243 12.6427C8.90592 12.7892 8.7072 12.8715 8.5 12.8715Z" fill="#4873DD"/>
</svg>  