<svg width="14" height="14" viewBox="0 0 14 14" fill="none" xmlns="http://www.w3.org/2000/svg">
  <g clip-path="url(#clip0_124_814)">
  <path d="M9.5 5C9.5 2.51472 7.48528 0.5 5 0.5C2.51472 0.5 0.5 2.51472 0.5 5C0.5 7.48528 2.51472 9.5 5 9.5C7.48528 9.5 9.5 7.48528 9.5 5Z" stroke="#7C7C7C" stroke-linecap="round" stroke-linejoin="round"/>
  <path d="M3.66954 3.75C3.48458 3.87297 3.32923 4.03548 3.21472 4.2258C3.1002 4.41612 3.02939 4.6295 3.00738 4.85052C2.98537 5.07154 3.01273 5.29469 3.08746 5.50385C3.1622 5.71302 3.28246 5.90297 3.43954 6.06" stroke="#7C7C7C" stroke-linecap="round" stroke-linejoin="round"/>
  <path d="M13.4997 13.5L8.42969 7.92" stroke="#7C7C7C" stroke-linecap="round" stroke-linejoin="round"/>
  </g>
  <defs>
  <clipPath id="clip0_124_814">
  <rect width="14" height="14" fill="white" transform="matrix(0 -1 1 0 0 14)"/>
  </clipPath>
  </defs>
</svg>
  