<svg width="10" height="11" viewBox="0 0 10 11" fill="none" xmlns="http://www.w3.org/2000/svg">
  <g clip-path="url(#clip0_124_867)">
  <path d="M2.4082 4.67858L4.22249 1.77858C4.2928 1.66395 4.3916 1.5695 4.50927 1.5044C4.62693 1.43931 4.75945 1.40581 4.89392 1.40715V1.40715C4.99982 1.40333 5.10541 1.42077 5.20445 1.45845C5.3035 1.49613 5.39398 1.55329 5.47056 1.62654C5.54713 1.69979 5.60825 1.78764 5.6503 1.88491C5.69234 1.98218 5.71446 2.0869 5.71535 2.19286V4.27143H8.85106C8.96693 4.27519 9.08069 4.30343 9.18486 4.3543C9.28903 4.40516 9.38126 4.47751 9.45547 4.56656C9.52969 4.65562 9.58421 4.75938 9.61546 4.87102C9.64671 4.98266 9.65397 5.09964 9.63677 5.21429L9.06535 8.9C9.04097 9.09698 8.9455 9.27827 8.79686 9.4098C8.64823 9.54133 8.45668 9.61405 8.2582 9.61429H3.57249C3.34943 9.61516 3.12927 9.56379 2.92963 9.46429L2.41535 9.20715" stroke="white" stroke-linecap="round" stroke-linejoin="round"/>
  <path d="M2.4082 4.67857V9.18572" stroke="white" stroke-linecap="round" stroke-linejoin="round"/>
  <path d="M0.714565 4.67857H2.40742V9.18572H0.714565C0.619845 9.18572 0.529004 9.14809 0.462027 9.08111C0.395049 9.01413 0.357422 8.92329 0.357422 8.82857V5.03572C0.357422 4.941 0.395049 4.85016 0.462027 4.78318C0.529004 4.7162 0.619845 4.67857 0.714565 4.67857V4.67857Z" stroke="white" stroke-linecap="round" stroke-linejoin="round"/>
  </g>
  <defs>
  <clipPath id="clip0_124_867">
  <rect width="10" height="10" fill="white" transform="translate(0 0.5)"/>
  </clipPath>
  </defs>
  </svg>
  