<svg width="34" height="34" viewBox="0 0 34 34" fill="none" xmlns="http://www.w3.org/2000/svg">
  <circle cx="17" cy="17" r="17" fill="white"/>
  <path fill-rule="evenodd" clip-rule="evenodd" d="M23.3978 22.0109C19.3831 22.0109 16.1289 18.759 16.1289 14.7472V7.49243H23.3978C27.4124 7.49243 30.6666 10.7443 30.6666 14.7561C30.6666 18.759 27.4124 22.0109 23.3978 22.0109Z" fill="#18FFFF"/>
  <path fill-rule="evenodd" clip-rule="evenodd" d="M10.6021 7.33337C14.6168 7.33337 17.8709 10.5852 17.8709 14.597V21.8607H10.6021C6.58744 21.8607 3.33325 18.6088 3.33325 14.597C3.33325 10.5852 6.58744 7.33337 10.6021 7.33337Z" fill="#EF4747"/>
  <path fill-rule="evenodd" clip-rule="evenodd" d="M17.8709 19.4571C16.7921 18.1934 16.1377 16.5498 16.1377 14.7472V9.88708C17.2165 11.1507 17.8709 12.7943 17.8709 14.597V19.4571Z" fill="#860EB5"/>
  <path fill-rule="evenodd" clip-rule="evenodd" d="M25.0601 24.1051L25.2723 24.6883H25.5729C25.9355 24.706 26.2273 25.0153 26.2273 25.3864C26.2273 25.7664 25.9178 26.0668 25.5464 26.0668C25.1839 26.0668 24.8832 25.784 24.8655 25.4217V25.3864V23.2214H24.2554V25.3864C24.2554 26.0845 24.8478 26.65 25.5464 26.65C26.2362 26.65 26.8021 26.1022 26.811 25.4129C26.811 25.4041 26.811 25.3952 26.811 25.3864C26.811 24.7148 26.3865 24.1493 25.6702 24.1051C25.626 24.1051 25.5818 24.0963 25.5376 24.0963L25.0601 24.1051Z" fill="black"/>
  <path fill-rule="evenodd" clip-rule="evenodd" d="M16.8452 26.1464L16.3058 25.9078C16.2439 25.9785 16.1732 26.0404 16.0847 26.0757C16.0052 26.1023 15.9167 26.1111 15.8283 26.1111C15.731 26.1111 15.6338 26.0934 15.5453 26.0404C15.4657 25.9962 15.395 25.9343 15.3331 25.8637C15.2712 25.793 15.227 25.7134 15.2005 25.6339C15.1739 25.5544 15.1562 25.4749 15.1562 25.3865C15.1562 25.2893 15.1739 25.1921 15.2093 25.0949C15.2447 25.0065 15.2889 24.927 15.3508 24.8651C15.4127 24.8033 15.4834 24.7502 15.5719 24.7149C15.6603 24.6795 15.7487 24.653 15.8371 24.653C15.9875 24.653 16.129 24.6972 16.2439 24.7944C16.3589 24.8828 16.4296 25.0065 16.4827 25.1391H15.4392L15.6161 25.6516H17.084C17.1017 25.5632 17.1105 25.4749 17.1105 25.3865C17.1105 25.2098 17.0751 25.0507 17.0132 24.8916C16.9513 24.7414 16.8541 24.6 16.7391 24.4851C16.6242 24.3703 16.4827 24.2731 16.3323 24.2112C16.1732 24.1405 16.014 24.114 15.8371 24.114C15.6603 24.114 15.4923 24.1494 15.3331 24.2112C15.1828 24.2731 15.0413 24.3703 14.9263 24.4851C14.8114 24.6 14.7141 24.7414 14.6522 24.8916C14.5815 25.0507 14.5549 25.2186 14.5549 25.3865C14.5549 25.5544 14.5903 25.7223 14.6522 25.8813C14.7141 26.0316 14.8114 26.1729 14.9263 26.2878C15.0413 26.4027 15.1828 26.4911 15.3331 26.5617C15.4923 26.6324 15.6603 26.6589 15.8371 26.6589C16.0405 26.6589 16.2351 26.6148 16.4208 26.5175C16.5799 26.4204 16.7303 26.2967 16.8452 26.1464Z" fill="black"/>
  <path fill-rule="evenodd" clip-rule="evenodd" d="M13.9713 25.7134C13.9183 25.8282 13.8387 25.9255 13.7326 25.9962C13.6264 26.0668 13.5026 26.1022 13.3788 26.1022C13.2904 26.1022 13.1931 26.0845 13.1136 26.0492C13.034 26.0138 12.9632 25.9608 12.9013 25.8989C12.8394 25.8282 12.7952 25.7576 12.7598 25.6692C12.7245 25.5808 12.7068 25.4836 12.7068 25.3864C12.7068 25.2892 12.7245 25.192 12.7598 25.1037C12.7952 25.0153 12.8394 24.9358 12.9013 24.8651C12.9632 24.7944 13.034 24.7414 13.1136 24.706C13.202 24.6618 13.2904 24.6441 13.3788 24.6441C13.5115 24.6441 13.6353 24.6883 13.7414 24.7679C13.8475 24.8474 13.9183 24.9446 13.9713 25.0595L14.4754 24.7325C14.3604 24.547 14.2101 24.3967 14.0156 24.2907C13.821 24.1758 13.6088 24.1228 13.3788 24.1228C13.202 24.1228 13.0428 24.1581 12.8836 24.22C12.7333 24.2819 12.5918 24.379 12.4769 24.4939C12.3619 24.6088 12.2646 24.7502 12.2027 24.9004C12.132 25.0595 12.1055 25.2185 12.1055 25.3952C12.1055 25.572 12.1408 25.731 12.2027 25.8901C12.2646 26.0403 12.3619 26.1817 12.4769 26.2966C12.5918 26.4114 12.7333 26.5087 12.8836 26.5705C13.0428 26.6412 13.2109 26.6677 13.3788 26.6677C13.6088 26.6677 13.821 26.6147 14.0156 26.4998C14.0863 26.4556 14.1482 26.4114 14.2101 26.3584C14.3162 26.2701 14.3958 26.164 14.4665 26.0492L13.9713 25.7134Z" fill="black"/>
  <path fill-rule="evenodd" clip-rule="evenodd" d="M11.1768 23.2214V23.7605H11.7869V23.2214H11.1768Z" fill="black"/>
  <path fill-rule="evenodd" clip-rule="evenodd" d="M11.1768 26.6147H11.7869V24.1493H11.1768V26.6147Z" fill="black"/>
  <path fill-rule="evenodd" clip-rule="evenodd" d="M10.1689 23.2214V26.6147H10.7791V23.2214H10.1689Z" fill="black"/>
  <path fill-rule="evenodd" clip-rule="evenodd" d="M17.5791 25.139V25.6427H18.2335V25.139H17.5791Z" fill="black"/>
  <path fill-rule="evenodd" clip-rule="evenodd" d="M22.7433 24.1051C22.5665 24.1051 22.4073 24.1404 22.2481 24.2023C22.0978 24.2642 21.9563 24.3613 21.8414 24.4762C21.7264 24.5911 21.6291 24.7325 21.5672 24.8827C21.4346 25.192 21.4346 25.5631 21.5672 25.8724C21.6291 26.0226 21.7264 26.164 21.8414 26.2789C21.9563 26.3937 22.0978 26.491 22.2481 26.5528C22.4073 26.6235 22.5753 26.65 22.7433 26.65C22.9202 26.65 23.0794 26.6147 23.2385 26.5528C23.3889 26.491 23.5304 26.3937 23.6453 26.2789C23.7603 26.164 23.8575 26.0226 23.9194 25.8724C23.9902 25.7133 24.0167 25.5543 24.0167 25.3775C24.0167 25.2097 23.9813 25.0418 23.9194 24.8827C23.8575 24.7325 23.7603 24.5911 23.6453 24.4762C23.5304 24.3613 23.3889 24.2642 23.2385 24.2023C23.0882 24.1404 22.9202 24.1051 22.7433 24.1051ZM22.7433 26.111C22.6549 26.111 22.5753 26.0933 22.4957 26.0491C22.4162 26.0138 22.3454 25.9519 22.2924 25.8901C22.2305 25.8194 22.1862 25.7399 22.1597 25.6515C22.1243 25.5543 22.1067 25.4571 22.1067 25.3599C22.1067 25.2627 22.1243 25.1655 22.1597 25.0771C22.1951 24.9887 22.2393 24.9181 22.2924 24.8474C22.3543 24.7855 22.4162 24.7325 22.4957 24.6883C22.5753 24.653 22.6549 24.6264 22.7433 24.6264C22.8318 24.6264 22.9114 24.6441 22.9909 24.6883C23.0705 24.7237 23.1324 24.7767 23.1943 24.8474C23.2562 24.9181 23.3004 24.9976 23.327 25.0771C23.3623 25.1655 23.38 25.2627 23.38 25.3599C23.38 25.4571 23.3623 25.5543 23.327 25.6515C23.2916 25.7399 23.2474 25.8194 23.1943 25.8901C23.1413 25.9608 23.0705 26.0138 22.9909 26.0491C22.9114 26.0933 22.8318 26.111 22.7433 26.111Z" fill="black"/>
  <path fill-rule="evenodd" clip-rule="evenodd" d="M9.08092 26.6147L8.88637 26.0668H8.58572C8.22317 26.0492 7.93134 25.7487 7.93134 25.3776C7.93134 24.9976 8.24085 24.6884 8.6211 24.6884C8.98365 24.6884 9.26662 24.9711 9.28433 25.3334V25.3688V26.5971H9.89448V25.3688C9.89448 24.6618 9.31967 24.0963 8.61225 24.0963C7.93134 24.0963 7.36542 24.6354 7.33887 25.3158V25.3246C7.33887 25.3334 7.33887 25.3334 7.33887 25.3423C7.33887 25.3511 7.33887 25.3599 7.33887 25.3688C7.33887 25.3776 7.33887 25.3865 7.33887 25.4041C7.33887 25.413 7.33887 25.4218 7.33887 25.4395C7.33887 25.4483 7.33887 25.4572 7.33887 25.4748C7.33887 25.4836 7.33887 25.4925 7.33887 25.5102C7.33887 25.519 7.33887 25.5278 7.33887 25.5455C7.33887 25.5543 7.33887 25.5632 7.34772 25.5809C7.34772 25.5897 7.34772 25.5985 7.35657 25.6162C7.35657 25.625 7.35657 25.6339 7.36542 25.6516C7.36542 25.6604 7.36542 25.6692 7.37424 25.6869C7.37424 25.6957 7.38309 25.7046 7.38309 25.7134C7.38309 25.7222 7.39195 25.7311 7.39195 25.7399C7.39195 25.7487 7.40077 25.7576 7.40077 25.7664C7.40077 25.7753 7.40962 25.7841 7.40962 25.7929C7.40962 25.8018 7.41847 25.8106 7.41847 25.8194C7.41847 25.8283 7.42732 25.8371 7.42732 25.846C7.42732 25.8548 7.43614 25.8636 7.43614 25.8724C7.43614 25.8813 7.44499 25.8901 7.44499 25.899C7.44499 25.9078 7.45385 25.9166 7.45385 25.9255C7.46267 25.9343 7.46267 25.9431 7.47152 25.952C7.48037 25.9608 7.48037 25.9697 7.48922 25.9785C7.49804 25.9873 7.49804 25.9962 7.50689 26.005C7.51575 26.0138 7.51575 26.0227 7.52457 26.0315C7.53342 26.0404 7.53342 26.0492 7.54227 26.058C7.55112 26.0668 7.55112 26.0757 7.55994 26.0845C7.5688 26.0934 7.5688 26.1022 7.57765 26.111C7.58647 26.1199 7.58647 26.1287 7.59532 26.1376C7.60417 26.1464 7.60417 26.1552 7.61302 26.1641C7.62184 26.1729 7.62184 26.1817 7.6307 26.1906C7.63955 26.1994 7.63955 26.2083 7.64837 26.2171C7.65722 26.2259 7.66607 26.2348 7.66607 26.2436C7.67492 26.2524 7.68374 26.2613 7.68374 26.2701C7.6926 26.279 7.70145 26.2878 7.70145 26.2878C7.71027 26.2966 7.71912 26.3054 7.71912 26.3054C7.72797 26.3143 7.73682 26.3231 7.74564 26.3231C7.7545 26.332 7.76335 26.3408 7.77217 26.3408C7.78987 26.3585 7.80754 26.3673 7.8164 26.3761C7.82525 26.385 7.83407 26.385 7.84292 26.3938C7.85177 26.4027 7.86062 26.4027 7.86944 26.4115C7.8783 26.4203 7.88715 26.4203 7.89597 26.4292C7.90482 26.438 7.91367 26.438 7.92252 26.4468C7.93134 26.4557 7.9402 26.4557 7.94905 26.4645C7.96672 26.4734 7.98442 26.4822 8.0021 26.491C8.14357 26.5705 8.35582 26.5971 8.59457 26.5971H9.08092V26.6147Z" fill="black"/>
  <path fill-rule="evenodd" clip-rule="evenodd" d="M19.4802 24.1051L19.6925 24.6883H19.9931C20.3557 24.706 20.6475 25.0153 20.6475 25.3864C20.6475 25.7664 20.338 26.0668 19.9666 26.0668C19.604 26.0668 19.3034 25.784 19.2857 25.4217V25.3864V23.2214H18.6755V25.3864C18.6755 26.0845 19.268 26.65 19.9666 26.65C20.6563 26.65 21.2223 26.1022 21.2311 25.4129C21.2311 25.4041 21.2311 25.3952 21.2311 25.3864C21.2311 24.7148 20.8067 24.1493 20.0904 24.1051C20.0462 24.1051 20.002 24.0963 19.9578 24.0963L19.4802 24.1051Z" fill="black"/>
</svg>
