<svg width="34" height="34" viewBox="0 0 34 34" fill="none" xmlns="http://www.w3.org/2000/svg">
  <circle cx="17" cy="17" r="17" fill="white"/>
  <path fill-rule="evenodd" clip-rule="evenodd" d="M14.8395 0.0848879C12.1523 0.451574 9.16278 1.66394 6.88702 3.31015C5.81461 4.08584 3.68508 6.31413 2.92411 7.45662C1.08321 10.2209 0.172193 12.9824 0.0180759 16.2653C-0.252924 22.039 2.54091 27.7276 7.21017 30.9093C8.17852 31.5691 9.3529 32.2488 9.3529 32.1493C9.3529 31.8845 8.74888 30.0958 8.30404 29.0434C7.06974 26.1234 6.73352 25.0183 6.45167 22.9545C6.00078 19.6517 6.42886 13.7395 7.30597 11.1569C7.94685 9.27 8.64186 8.56259 9.85483 8.56259C11.1224 8.56259 11.7042 9.33532 12.0102 11.4246C12.3386 13.6672 12.6913 15.2039 13.6694 18.6523C15.3379 24.5349 15.7359 26.743 15.8512 30.7538L15.9251 33.3254L15.5055 33.2418C14.9597 33.1329 13.8974 32.4251 13.5005 31.906C13.0061 31.2594 12.4598 29.9846 12.2514 28.9912C12.1456 28.4874 11.9232 25.8681 11.7552 23.1484C11.0726 12.1015 10.9971 11.2648 10.6334 10.711C10.2097 10.0659 9.18078 10.1193 8.75616 10.8086C8.22587 11.6691 7.69928 14.5358 7.47809 17.7654C7.20216 21.7944 7.66698 24.4294 9.45868 28.9912C10.0018 30.3741 10.4839 31.7897 10.5301 32.137C10.5974 32.6433 10.6735 32.7955 10.914 32.9049C11.3392 33.0981 11.3543 33.0867 11.2651 32.6414C11.0288 31.4637 10.752 30.6019 9.97726 28.6325C8.42943 24.6978 8.11996 23.1642 8.11996 19.4293C8.11996 16.1984 8.59994 12.623 9.1973 11.4046C9.47878 10.8301 9.97578 10.7304 10.1924 11.2047C10.3502 11.5503 10.6842 15.8171 11.0738 22.4625C11.4283 28.5088 11.6232 29.8437 12.3642 31.2992C13.3638 33.2624 15.4783 34.2782 17.848 33.9337C20.6466 33.5267 22.0899 31.6545 22.5371 27.8511C22.6111 27.2214 22.7835 24.7965 22.9204 22.4625C23.31 15.8171 23.644 11.5503 23.8018 11.2047C23.9116 10.9647 24.0235 10.8967 24.2632 10.9245C24.6761 10.9724 24.9414 11.5149 25.2566 12.9553C25.7494 15.2082 25.9077 17.1608 25.8377 20.1253C25.7492 23.8705 25.5998 24.5652 24.0023 28.6547C23.2011 30.7055 22.5566 32.8473 22.6981 32.9885C22.7321 33.0226 22.8954 32.9889 23.0607 32.9137C23.3054 32.8024 23.3861 32.6356 23.4942 32.0172C23.5673 31.5994 24.0521 30.188 24.5715 28.8806C26.3148 24.4941 26.7907 21.7737 26.5161 17.7654C26.2961 14.5516 25.7682 11.6691 25.2441 10.8183C24.7054 9.94384 23.5351 10.0955 23.1937 11.0842C23.0073 11.624 22.7173 15.2744 22.2455 23.0165C21.9453 27.9455 21.786 29.2606 21.3574 30.3516C20.8392 31.6707 19.947 32.6581 18.8623 33.1129C18.0316 33.4611 18.0623 33.5627 18.1435 30.7347C18.2583 26.7447 18.6495 24.5771 20.3268 18.639C21.3183 15.1285 21.6585 13.6476 21.984 11.4246C22.1795 10.0895 22.4412 9.42856 22.9689 8.93714C23.2264 8.6974 23.4572 8.62483 24.0908 8.5846C24.8058 8.53909 24.933 8.56775 25.317 8.8599C26.5005 9.76044 27.2655 12.347 27.6084 16.607C27.7901 18.8646 27.6985 22.3909 27.4212 23.8156C27.1279 25.3226 26.6986 26.6717 25.9411 28.4666C25.2958 29.9957 24.8798 31.1424 24.7148 31.846L24.6346 32.1886L25.1619 31.9207C26.8078 31.0846 28.8972 29.3692 30.1307 27.841C33.7153 23.4004 34.8793 17.7043 33.3287 12.1913C32.9119 10.7093 31.6145 8.12948 30.633 6.83125C29.1228 4.8336 26.7389 2.85146 24.4836 1.71843C23.4496 1.19885 21.4766 0.533743 20.1411 0.254639C18.9722 0.0102221 16.0681 -0.0826487 14.8395 0.0848879ZM17.3082 6.19001C17.3904 6.46801 17.5844 6.87283 17.7392 7.08969C18.0192 7.48209 19.0731 8.06711 19.504 8.06932C19.9192 8.07154 19.6367 8.36934 19.0461 8.55238C18.2028 8.81365 17.6391 9.35365 17.366 10.1617C17.2403 10.5338 17.0701 10.8382 16.9877 10.8382C16.9054 10.8382 16.7605 10.5729 16.6657 10.2487C16.4404 9.47776 15.7657 8.80491 14.9718 8.55939C14.3621 8.37082 14.068 8.07154 14.4902 8.06932C14.903 8.06711 15.97 7.48922 16.2217 7.13151C16.3581 6.93765 16.5402 6.55756 16.6264 6.28694C16.7124 6.01632 16.8085 5.7505 16.8397 5.69614C16.9591 5.48825 17.1645 5.70462 17.3082 6.19001Z" fill="black"/>
</svg>
