<svg width="34" height="34" viewBox="0 0 34 34" fill="none" xmlns="http://www.w3.org/2000/svg">
  <circle cx="17" cy="17" r="17" fill="#40C6D2"/>
  <path fill-rule="evenodd" clip-rule="evenodd" d="M9.31546 8.78549C8.93691 6.81703 10.4511 5 12.4196 5C14.1609 5 15.5994 6.43849 15.5994 8.17981V12.1167C16.0536 12.1167 16.5079 12.041 16.9621 12.041C17.4164 12.041 17.795 12.041 18.2492 12.1167V8.17981C18.2492 6.43849 19.6877 5 21.429 5C23.3975 5 24.9117 6.81703 24.6088 8.78549L23.776 13.4038C26.7287 14.6909 29 16.9621 29 19.7634V21.5047C29 23.8517 27.4858 25.8202 25.2902 27.1073C23.0946 28.47 20.2177 29.2271 16.9621 29.2271C13.7066 29.2271 10.8297 28.47 8.63407 27.1073C6.5142 25.8202 5 23.8517 5 21.5047V19.7634C5 16.9621 7.19558 14.6909 10.1483 13.4038L9.31546 8.78549ZM22.6404 14.0095L23.6246 8.55836C23.8517 7.19558 22.8675 5.90852 21.429 5.90852C20.2177 5.90852 19.2334 6.89274 19.2334 8.1041V13.1009C18.9306 13.0252 18.5521 13.0252 18.2492 13.0252C17.795 13.0252 17.4164 12.9495 16.9621 12.9495C16.5079 12.9495 16.0536 12.9495 15.5994 13.0252C15.2965 13.0252 14.918 13.1009 14.6151 13.1009V8.17981C14.6151 6.96845 13.6309 5.98423 12.4196 5.98423C11.0568 5.98423 9.99685 7.27129 10.2997 8.63407L11.2839 14.0852C8.1041 15.2965 5.98423 17.4164 5.98423 19.8391V21.5804C5.98423 25.2902 10.9054 28.3186 16.9621 28.3186C23.0189 28.3186 27.9401 25.2902 27.9401 21.5804V19.8391C28.0158 17.3407 25.8959 15.2208 22.6404 14.0095Z" fill="#633001"/>
  <path d="M28.0159 21.5048C28.0159 25.2145 23.0948 28.2429 17.038 28.2429C10.9812 28.2429 6.06006 25.2145 6.06006 21.5048V19.7634H28.0916V21.5048H28.0159Z" fill="#FEDC90"/>
  <path fill-rule="evenodd" clip-rule="evenodd" d="M10.2998 8.6341C9.99697 7.27132 11.0569 5.98425 12.4197 5.98425C13.631 5.98425 14.6153 6.96848 14.6153 8.17984V13.1767C15.3724 13.101 16.1295 13.0253 16.9623 13.0253C17.7194 13.0253 18.4765 13.101 19.2336 13.1767V8.17984C19.2336 6.96848 20.2178 5.98425 21.4291 5.98425C22.7919 5.98425 23.8519 7.27132 23.6247 8.6341L22.6405 14.0852C25.8203 15.2966 28.0159 17.4164 28.0159 19.8391C28.0159 23.5489 23.0948 26.5773 17.038 26.5773C10.9812 26.5773 6.06006 23.5489 6.06006 19.8391C6.06006 17.4164 8.17993 15.2966 11.3597 14.0852L10.2998 8.6341Z" fill="#D1884F"/>
  <path d="M13.9337 19.3091C13.9337 20.2933 13.4037 21.1261 12.7223 21.1261C12.041 21.1261 11.511 20.2933 11.511 19.3091C11.511 18.3249 12.041 17.4921 12.7223 17.4921C13.4037 17.4921 13.9337 18.3249 13.9337 19.3091Z" fill="#633001"/>
  <path d="M22.3375 19.3091C22.3375 20.2933 21.8075 21.1261 21.1262 21.1261C20.4448 21.1261 19.9148 20.2933 19.9148 19.3091C19.9148 18.3249 20.4448 17.4921 21.1262 17.4921C21.8075 17.4921 22.3375 18.3249 22.3375 19.3091Z" fill="#633001"/>
</svg>
