<svg width="20" height="20" viewBox="0 0 20 20" xmlns="http://www.w3.org/2000/svg">
  <circle cx="10" cy="10" r="10" opacity="0.1"/>
  <path d="M14.7727 14.0667C14.4966 14.0667 14.2727 13.8428 14.2727 13.5667V12.9667C14.2727 12.6905 14.0489 12.4667 13.7727 12.4667H13.1364C12.8602 12.4667 12.6364 12.2428 12.6364 11.9667V11.9C12.6364 11.6239 12.8602 11.4 13.1364 11.4H13.7727C14.0489 11.4 14.2727 11.1761 14.2727 10.9V10.3C14.2727 10.0239 14.4966 9.8 14.7727 9.8H14.8636C15.1398 9.8 15.3636 10.0239 15.3636 10.3V10.9C15.3636 11.1761 15.5875 11.4 15.8636 11.4H16.5C16.7761 11.4 17 11.6239 17 11.9V11.9667C17 12.2428 16.7761 12.4667 16.5 12.4667H15.8636C15.5875 12.4667 15.3636 12.6905 15.3636 12.9667V13.5667C15.3636 13.8428 15.1398 14.0667 14.8636 14.0667H14.7727ZM6.09091 14.6C5.79091 14.6 5.53409 14.4956 5.32045 14.2867C5.10682 14.0778 5 13.8267 5 13.5333V6.06667C5 5.77333 5.10682 5.52222 5.32045 5.31333C5.53409 5.10444 5.79091 5 6.09091 5H13.7273C14.0273 5 14.2841 5.10444 14.4977 5.31333C14.7114 5.52222 14.8182 5.77333 14.8182 6.06667V8.18788C14.8182 8.48912 14.574 8.73333 14.2727 8.73333C13.9715 8.73333 13.7273 8.48913 13.7273 8.18788V7.66667H6.09091V13.5333H12.6485C12.943 13.5333 13.1818 13.7721 13.1818 14.0667C13.1818 14.3612 12.943 14.6 12.6485 14.6H6.09091ZM6.09091 6.6H13.7273V6.06667H6.09091V6.6Z" fill="#3354A5"/>
</svg>
