<svg width="20" height="20" viewBox="0 0 20 20" xmlns="http://www.w3.org/2000/svg">
  <circle cx="10" cy="10" r="10" opacity="0.1"/>
  <path d="M11.0088 16H8.98764C8.85692 16 8.74127 15.9606 8.64072 15.8818C8.54016 15.803 8.47983 15.6995 8.45971 15.5714L8.21838 14.1084C8.04743 14.0493 7.8614 13.9631 7.66028 13.8498C7.45917 13.7365 7.28319 13.6207 7.13236 13.5025L5.75975 14.1232C5.63908 14.1823 5.51339 14.1921 5.38266 14.1527C5.25194 14.1133 5.15641 14.0345 5.09607 13.9163L4.07039 12.1281C4 12.0197 3.9824 11.9039 4.0176 11.7808C4.05279 11.6576 4.12067 11.5567 4.22123 11.4778L5.50333 10.5616C5.48322 10.4828 5.47065 10.3892 5.46562 10.2808C5.46059 10.1724 5.45808 10.0788 5.45808 10C5.45808 9.92118 5.46059 9.82759 5.46562 9.71921C5.47065 9.61084 5.48322 9.51724 5.50333 9.43842L4.22123 8.52217C4.12067 8.44335 4.05279 8.34236 4.0176 8.21921C3.9824 8.09606 4 7.9803 4.07039 7.87192L5.09607 6.08374C5.16646 5.96552 5.26451 5.8867 5.3902 5.84729C5.5159 5.80788 5.63908 5.81773 5.75975 5.87685L7.14744 6.49754C7.28822 6.37931 7.45917 6.26601 7.66028 6.15764C7.8614 6.04926 8.04743 5.96552 8.21838 5.9064L8.45971 4.41379C8.47983 4.29557 8.54016 4.19704 8.64072 4.11823C8.74127 4.03941 8.85692 4 8.98764 4H11.0088C11.1396 4 11.2552 4.03941 11.3558 4.11823C11.4563 4.19704 11.5167 4.29557 11.5368 4.41379L11.7781 5.89163C11.9491 5.96059 12.1376 6.0468 12.3437 6.15025C12.5499 6.25369 12.7233 6.36946 12.8641 6.49754L14.2367 5.87685C14.3574 5.81773 14.4831 5.80788 14.6138 5.84729C14.7445 5.8867 14.8401 5.96552 14.9004 6.08374L15.9261 7.85714C15.9965 7.96552 16.0166 8.08374 15.9864 8.21182C15.9563 8.3399 15.8859 8.44335 15.7753 8.52217L14.4932 9.40887C14.5133 9.49754 14.5258 9.59606 14.5309 9.70443C14.5359 9.81281 14.5384 9.91133 14.5384 10C14.5384 10.0887 14.5359 10.1847 14.5309 10.2882C14.5258 10.3916 14.5133 10.4877 14.4932 10.5764L15.7753 11.4778C15.8758 11.5567 15.9437 11.6576 15.9789 11.7808C16.0141 11.9039 15.9965 12.0197 15.9261 12.1281L14.9004 13.9163C14.83 14.0345 14.732 14.1133 14.6063 14.1527C14.4806 14.1921 14.3574 14.1823 14.2367 14.1232L12.849 13.5025C12.7083 13.6207 12.5398 13.7389 12.3437 13.8571C12.1477 13.9754 11.9591 14.0591 11.7781 14.1084L11.5368 15.5714C11.5167 15.6995 11.4563 15.803 11.3558 15.8818C11.2552 15.9606 11.1396 16 11.0088 16ZM9.99824 11.9212C10.5412 11.9212 11.0038 11.734 11.3859 11.3596C11.768 10.9852 11.9591 10.532 11.9591 10C11.9591 9.46798 11.768 9.01478 11.3859 8.64039C11.0038 8.26601 10.5412 8.07882 9.99824 8.07882C9.45523 8.07882 8.99267 8.26601 8.61055 8.64039C8.22843 9.01478 8.03737 9.46798 8.03737 10C8.03737 10.532 8.22843 10.9852 8.61055 11.3596C8.99267 11.734 9.45523 11.9212 9.99824 11.9212ZM9.99824 11.0345C9.69657 11.0345 9.44518 10.9335 9.24406 10.7315C9.04295 10.5296 8.94239 10.2857 8.94239 10C8.94239 9.71429 9.04295 9.47044 9.24406 9.26847C9.44518 9.0665 9.69657 8.96552 9.99824 8.96552C10.2899 8.96552 10.5387 9.0665 10.7449 9.26847C10.951 9.47044 11.0541 9.71429 11.0541 10C11.0541 10.2857 10.951 10.5296 10.7449 10.7315C10.5387 10.9335 10.2899 11.0345 9.99824 11.0345ZM9.36473 14.9951H10.6318L10.8429 13.3399C11.1748 13.2611 11.4915 13.1379 11.7932 12.9704C12.0949 12.803 12.3664 12.5961 12.6077 12.3498L14.2066 13.0296L14.7797 12.0099L13.3619 11.0049C13.4021 10.8374 13.4373 10.67 13.4675 10.5025C13.4976 10.335 13.5127 10.1675 13.5127 10C13.5127 9.83251 13.5001 9.66502 13.475 9.49754C13.4499 9.33005 13.4122 9.16256 13.3619 8.99507L14.7797 7.99015L14.2066 6.97044L12.6077 7.65025C12.3764 7.38424 12.1125 7.16256 11.8158 6.98522C11.5192 6.80788 11.1949 6.69951 10.8429 6.6601L10.6318 5.00493H9.36473L9.15356 6.6601C8.81167 6.71921 8.48988 6.83498 8.18821 7.00739C7.88654 7.1798 7.61503 7.39409 7.3737 7.65025L5.78992 6.97044L5.21674 7.99015L6.61952 8.99507C6.57929 9.16256 6.54661 9.33005 6.52147 9.49754C6.49633 9.66502 6.48376 9.83251 6.48376 10C6.48376 10.1675 6.49633 10.335 6.52147 10.5025C6.54661 10.67 6.57929 10.8374 6.61952 11.0049L5.21674 12.0099L5.78992 13.0296L7.3737 12.3498C7.62509 12.5961 7.90162 12.803 8.20329 12.9704C8.50496 13.1379 8.82172 13.2611 9.15356 13.3399L9.36473 14.9951Z"/>
</svg>
