<svg width="30" height="30" viewBox="0 0 30 30" fill="none" xmlns="http://www.w3.org/2000/svg">
  <circle cx="15" cy="15" r="12" transform="rotate(-90 15 15)" fill="#3662CF"/>
  <path d="M22.6575 11.473C22.2898 11.473 21.9716 11.268 21.7878 10.9569C21.0737 9.74771 20.0131 8.67296 18.6201 7.9306C15.9401 6.49538 12.5811 6.75739 10.1412 8.5609C5.6646 11.8921 5.80529 18.6383 10.557 21.7492C13.2299 23.5027 16.8081 23.4316 19.4177 21.5998C20.4219 20.8925 21.2069 20.0226 21.7727 19.0608C21.9566 18.7497 22.289 18.5446 22.6426 18.5445C23.4346 18.5444 23.8942 19.4 23.5052 20.0719C22.7342 21.3802 21.6521 22.5471 20.2448 23.4595C16.822 25.6662 12.275 25.5182 9.00113 23.1072C3.45043 19.0275 3.51498 10.8033 9.1585 6.8002C12.4824 4.45209 17.0223 4.39501 20.3952 6.6646C21.7387 7.56961 22.771 8.70094 23.5133 9.95252C23.9022 10.6243 23.4354 11.4729 22.6575 11.473Z" fill="white"/>
  <path fill-rule="evenodd" clip-rule="evenodd" d="M16 15.0907C16 14.7825 16.243 14.5326 16.5427 14.5326L19.6123 14.5326L18.2056 12.9324C18.0046 12.7038 18.0219 12.3508 18.2443 12.1441C18.4666 11.9374 18.8098 11.9552 19.0108 12.1838L20.9784 14.4221C21.3175 14.8079 21.3092 15.3878 20.9593 15.7637L19.0002 17.8685C18.793 18.0911 18.4495 18.0989 18.2329 17.8857C18.0164 17.6726 18.0089 17.3193 18.2162 17.0966L19.5638 15.6488L16.5427 15.6488C16.243 15.6488 16 15.3989 16 15.0907Z" fill="white"/>
  <path fill-rule="evenodd" clip-rule="evenodd" d="M14.7949 13.7234C14.7949 14.0316 14.5519 14.2815 14.2522 14.2815L10.5796 14.2815L11.9862 15.8817C12.1872 16.1103 12.1699 16.4633 11.9476 16.67C11.7253 16.8767 11.3821 16.8589 11.1811 16.6302L9.21349 14.3919C8.8744 14.0062 8.88264 13.4263 9.23256 13.0504L11.1916 10.9456C11.3989 10.723 11.7424 10.7152 11.9589 10.9284C12.1754 11.1415 12.183 11.4948 11.9757 11.7175L10.6281 13.1653L14.2522 13.1653C14.5519 13.1653 14.7949 13.4152 14.7949 13.7234Z" fill="white"/>
</svg>
