<svg width="19" height="17" viewBox="0 0 19 17" fill="none" xmlns="http://www.w3.org/2000/svg">
  <path d="M0.30417 13.5234L3.80061 8.09093L0.30417 2.65845C-0.0811121 2.08053 -0.100376 1.49297 0.246378 0.895782C0.593132 0.298594 1.10363 0 1.77788 0H12.4089C12.8346 0 13.2208 0.110769 13.5675 0.332306C13.9143 0.553843 14.2129 0.828357 14.4633 1.15585L18.6821 7.07956C18.894 7.38725 19 7.72424 19 8.09053C19 8.45681 18.894 8.79407 18.6821 9.1023L14.4633 15.026C14.2129 15.3535 13.9143 15.628 13.5675 15.8496C13.2208 16.0711 12.8346 16.1819 12.4089 16.1819H1.77788C1.10363 16.1819 0.593132 15.8833 0.246378 15.2861C-0.100376 14.6889 -0.0811121 14.1013 0.30417 13.5234ZM1.77788 14.4481H12.7584L17.2662 8.09093L12.7584 1.73377H1.77788L5.88113 8.09093L1.77788 14.4481Z" fill="currentcolor"/>
  <circle cx="10.1329" cy="7.59974" r="2.53333" fill="currentcolor"/>
</svg>
