<?xml version="1.0" encoding="utf-8"?>
<!-- Generator: Adobe Illustrator 26.2.1, SVG Export Plug-In . SVG Version: 6.00 Build 0)  -->
<svg version="1.1" id="Layer_1" xmlns="http://www.w3.org/2000/svg" xmlns:xlink="http://www.w3.org/1999/xlink" x="0px" y="0px"
	 viewBox="0 0 32 32" style="enable-background:new 0 0 32 32;" xml:space="preserve">
<style type="text/css">
	.st0{fill:#C3CFF7;}
</style>
<path class="st0" d="M24.8,23.4c-0.4,0.4-1,0.4-1.4,0l-0.7-0.7c-0.4-0.4-0.4-1,0-1.4l3.8-3.8H13.2c-0.6,0-1-0.4-1-1v-1
	c0-0.6,0.4-1,1-1h13.3l-3.8-3.8c-0.4-0.4-0.4-1,0-1.4l0.7-0.7c0.4-0.4,1-0.4,1.4,0l6.7,6.7c0.4,0.4,0.4,1,0,1.4L24.8,23.4z
	 M1.7,17.5c-0.4,0-0.8-0.1-1-0.5c-0.3-0.3-0.4-0.6-0.4-1c0-0.4,0.2-0.8,0.4-1.1s0.7-0.4,1-0.4c0.4,0,0.8,0.1,1.1,0.4
	s0.4,0.6,0.4,1.1c0,0.4-0.1,0.8-0.4,1C2.5,17.4,2.1,17.5,1.7,17.5z M7.7,17.5c-0.4,0-0.8-0.1-1.1-0.5c-0.3-0.3-0.4-0.6-0.4-1
	c0-0.4,0.2-0.8,0.4-1.1c0.3-0.3,0.7-0.4,1.1-0.4c0.4,0,0.8,0.1,1.1,0.4c0.3,0.3,0.4,0.6,0.4,1.1c0,0.4-0.1,0.8-0.4,1
	C8.5,17.4,8.1,17.5,7.7,17.5z"/>
</svg>
