<svg width="16" height="15" viewBox="0 0 16 15" fill="none" xmlns="http://www.w3.org/2000/svg">
  <path d="M2.50313 11.9782H5.73297C5.91478 11.9782 6.06718 11.9164 6.19017 11.7926C6.31316 11.6689 6.37466 11.5156 6.37466 11.3328C6.37466 11.1499 6.31316 10.9978 6.19017 10.8766C6.06718 10.7554 5.91478 10.6948 5.73297 10.6948H2.50313L3.61539 9.56117C3.74373 9.43283 3.8079 9.28311 3.8079 9.11199C3.8079 8.94087 3.74373 8.79114 3.61539 8.66281C3.48706 8.53447 3.33733 8.4703 3.16621 8.4703C2.9951 8.4703 2.84537 8.53447 2.71703 8.66281L0.492507 10.8873C0.364169 11.0157 0.3 11.1654 0.3 11.3365C0.3 11.5076 0.364169 11.6574 0.492507 11.7857L2.71703 14.0102C2.84537 14.1386 2.9951 14.2027 3.16621 14.2027C3.33733 14.2027 3.48706 14.1386 3.61539 14.0102C3.74373 13.8819 3.8079 13.7286 3.8079 13.5503C3.8079 13.3721 3.74373 13.2188 3.61539 13.0905L2.50313 11.9782ZM13.4332 11.9782H15.1444C15.3583 11.9782 15.4135 11.9782 15.5722 11.9782C15.7861 11.9782 15.7861 11.9782 16 11.9782V1.28338C16 0.93045 15.8743 0.628321 15.623 0.376993C15.3717 0.125664 15.0696 0 14.7166 0H3.59401C3.24108 0 2.93895 0.125664 2.68762 0.376993C2.43629 0.628321 2.31063 0.93045 2.31063 1.28338V6.05327C2.45322 6.02475 2.59582 6.00693 2.73842 5.9998C2.88102 5.99267 3.02361 5.9891 3.16621 5.9891C3.23751 5.9891 3.30881 5.99029 3.38011 5.99267C3.45141 5.99504 3.52271 6.00098 3.59401 6.01049V1.28338H14.7166V10.6948H8.27834C8.28785 10.7661 8.29379 10.8374 8.29616 10.9087C8.29854 10.98 8.29973 11.0513 8.29973 11.1226C8.29973 11.2652 8.29616 11.4078 8.28903 11.5504C8.2819 11.693 8.26408 11.8356 8.23556 11.9782H13.4332ZM11.936 4.70572H6.37466C6.19285 4.70572 6.04045 4.64387 5.91746 4.52017C5.79447 4.39645 5.73297 4.24316 5.73297 4.06029C5.73297 3.87741 5.79447 3.72536 5.91746 3.60416C6.04045 3.48295 6.19285 3.42234 6.37466 3.42234H11.936C12.1178 3.42234 12.2702 3.48419 12.3932 3.6079C12.5162 3.73162 12.5777 3.88491 12.5777 4.06778C12.5777 4.25066 12.5162 4.4027 12.3932 4.52391C12.2702 4.64512 12.1178 4.70572 11.936 4.70572ZM11.936 8.34196H8.94142C8.7596 8.34196 8.6072 8.28011 8.48421 8.15641C8.36122 8.03269 8.29973 7.8794 8.29973 7.69653C8.29973 7.51365 8.36122 7.3616 8.48421 7.2404C8.6072 7.11919 8.7596 7.05858 8.94142 7.05858H11.936C12.1178 7.05858 12.2702 7.12043 12.3932 7.24414C12.5162 7.36786 12.5777 7.52115 12.5777 7.70402C12.5777 7.8869 12.5162 8.03894 12.3932 8.16015C12.2702 8.28136 12.1178 8.34196 11.936 8.34196Z" fill="currentColor"/>
</svg>
