<svg width="20" height="20" viewBox="0 0 20 20" fill="none" xmlns="http://www.w3.org/2000/svg">
  <circle cx="10" cy="10" r="10" opacity="0.1" fill="currentColor"/>
  <path fill-rule="evenodd" clip-rule="evenodd" d="M6 5C4.89543 5 4 5.89543 4 7C4 8.10457 4.89543 9 6 9H14C15.1046 9 16 8.10457 16 7C16 5.89543 15.1046 5 14 5H6ZM6 8C6.55228 8 7 7.55228 7 7C7 6.44772 6.55228 6 6 6C5.44772 6 5 6.44772 5 7C5 7.55228 5.44772 8 6 8Z" fill="#3354A5"/>
  <path fill-rule="evenodd" clip-rule="evenodd" d="M6 11C4.89543 11 4 11.8954 4 13C4 14.1046 4.89543 15 6 15H14C15.1046 15 16 14.1046 16 13C16 11.8954 15.1046 11 14 11H6ZM14 14C14.5523 14 15 13.5523 15 13C15 12.4477 14.5523 12 14 12C13.4477 12 13 12.4477 13 13C13 13.5523 13.4477 14 14 14Z" fill="#3354A5"/>
</svg>
