<svg width="23" height="23" viewBox="0 0 23 23" fill="none" xmlns="http://www.w3.org/2000/svg">
  <circle cx="11.5" cy="11.5" r="11.5" opacity="0.1" fill="currentColor"/>
  <path d="M6.71429 16.4286C6.71429 17.2143 7.35714 17.8571 8.14286 17.8571H13.8571C14.6429 17.8571 15.2857 17.2143 15.2857 16.4286V9.28571C15.2857 8.5 14.6429 7.85714 13.8571 7.85714H8.14286C7.35714 7.85714 6.71429 8.5 6.71429 9.28571V16.4286ZM8.85714 9.28571H13.1429C13.5357 9.28571 13.8571 9.60714 13.8571 10V15.7143C13.8571 16.1071 13.5357 16.4286 13.1429 16.4286H8.85714C8.46429 16.4286 8.14286 16.1071 8.14286 15.7143V10C8.14286 9.60714 8.46429 9.28571 8.85714 9.28571ZM13.5 5.71429L12.9929 5.20714C12.8643 5.07857 12.6786 5 12.4929 5H9.50714C9.32143 5 9.13571 5.07857 9.00714 5.20714L8.5 5.71429H6.71429C6.32143 5.71429 6 6.03571 6 6.42857C6 6.82143 6.32143 7.14286 6.71429 7.14286H15.2857C15.6786 7.14286 16 6.82143 16 6.42857C16 6.03571 15.6786 5.71429 15.2857 5.71429H13.5Z" fill="currentColor"/>
  <rect x="9.57129" y="10.7143" width="0.714286" height="4.28571" rx="0.357143" fill="currentColor"/>
  <rect x="11.7144" y="10.7143" width="0.714286" height="4.28571" rx="0.357143" fill="currentColor"/>
  </svg>
