<svg width="24" height="24" viewBox="0 0 24 24" fill="none" xmlns="http://www.w3.org/2000/svg">
  <circle cx="12" cy="12" r="10.7143"  opacity="0.1" fill="currentColor" stroke="#E5E9F6" stroke-width="1.42857"/>
  <path d="M13.8591 17.2185C13.5809 17.4933 13.1335 17.4933 12.8552 17.2185L12.3717 16.7409C12.0886 16.4613 12.0886 16.0042 12.3717 15.7245L15.0715 13.0581L5.57146 13.0581C5.17697 13.0581 4.85718 12.7383 4.85718 12.3438L4.85718 11.656C4.85718 11.2615 5.17697 10.9417 5.57146 10.9417L15.0715 10.9417L12.3717 8.27533C12.0886 7.99568 12.0886 7.53857 12.3717 7.25892L12.8552 6.78138C13.1335 6.5066 13.5809 6.5066 13.8591 6.78138L18.6283 11.4917C18.9115 11.7714 18.9115 12.2285 18.6283 12.5081L13.8591 17.2185Z" fill="#C3CFF6"/>
</svg>
