<?xml version="1.0" encoding="utf-8"?>
<!-- Generator: Adobe Illustrator 26.2.1, SVG Export Plug-In . SVG Version: 6.00 Build 0)  -->
<svg version="1.1" id="Layer_1" xmlns="http://www.w3.org/2000/svg" xmlns:xlink="http://www.w3.org/1999/xlink" x="0px" y="0px"
	 viewBox="0 0 24 24" style="enable-background:new 0 0 24 24;" xml:space="preserve">
<style type="text/css">
	.st0{opacity:0.1;stroke:#E5E9F6;stroke-width:1.4286;enable-background:new    ;}
	.st1{fill:#C3CFF6;}
</style>
<circle class="st0" cx="12" cy="12" r="10.7"/>
<path class="st1" d="M9.8,6.8c0.3-0.3,0.7-0.3,1,0l0.5,0.5c0.3,0.3,0.3,0.7,0,1l-2.7,2.7l9.5,0c0.4,0,0.7,0.3,0.7,0.7v0.7
	c0,0.4-0.3,0.7-0.7,0.7l-9.5,0l2.7,2.7c0.3,0.3,0.3,0.7,0,1l-0.5,0.5c-0.3,0.3-0.7,0.3-1,0l-4.8-4.7c-0.3-0.3-0.3-0.7,0-1L9.8,6.8z"
	/>
</svg>
