<svg width="24" height="24" viewBox="0 0 24 24" xmlns="http://www.w3.org/2000/svg">
  <circle cx="12" cy="12" r="12" opacity="0.1" />
  <path d="M16.9776 8.10086H10.5739C9.66582 8.10086 8.92969 8.83699 8.92969 9.74505V16.1488C8.92969 17.0568 9.66582 17.7929 10.5739 17.7929H16.9776C17.8857 17.7929 18.6218 17.0568 18.6218 16.1488V9.74505C18.6218 8.83699 17.8857 8.10086 16.9776 8.10086Z" stroke="#3354A5" fill="none" stroke-linejoin="round"/>
  <path d="M16.2988 8.10046L16.3132 7.40816C16.312 6.98012 16.1414 6.56996 15.8388 6.26729C15.5361 5.96461 15.1259 5.79403 14.6979 5.79282H8.46721C7.97804 5.79426 7.50931 5.98923 7.16341 6.33513C6.81751 6.68103 6.62254 7.14975 6.62109 7.63893V13.8696C6.62231 14.2976 6.79289 14.7078 7.09557 15.0104C7.39824 15.3131 7.80841 15.4837 8.23645 15.4849H8.92874" stroke="#3354A5" fill="none" stroke-linecap="round" stroke-linejoin="round"/>
</svg>
