<svg width="25" height="28" viewBox="0 0 25 28" fill="none" xmlns="http://www.w3.org/2000/svg">
  <path fill-rule="evenodd" clip-rule="evenodd" d="M24.5611 0.411325C24.7561 0.606765 24.7559 0.923347 24.5604 1.11843L22.1876 3.48697L24.5604 5.85551C24.7559 6.0506 24.7561 6.36718 24.5611 6.56262C24.366 6.75806 24.0494 6.75835 23.854 6.56326L21.4798 4.19344L19.1057 6.56326C18.9102 6.75835 18.5936 6.75806 18.3986 6.56262C18.2035 6.36718 18.2038 6.0506 18.3992 5.85551L20.7721 3.48697L18.3992 1.11843C18.2038 0.923347 18.2035 0.606765 18.3986 0.411325C18.5936 0.215886 18.9102 0.215598 19.1057 0.410682L21.4798 2.78051L23.854 0.410682C24.0494 0.215598 24.366 0.215886 24.5611 0.411325ZM1.33556 3.00004H16.6659V4.00004H1.84663C1.95252 6.41155 2.81535 8.73386 4.31964 10.6348C5.9277 12.6669 8.175 14.099 10.6989 14.6998C10.9242 14.7534 11.0831 14.9547 11.0831 15.1862V26.5667L15.6317 23.5399V15.1862C15.6317 14.9547 15.7906 14.7534 16.0159 14.6998C18.5398 14.099 20.7871 12.6669 22.3952 10.6348C22.9214 9.96986 23.3691 9.25335 23.7334 8.49949H24.8338C24.406 9.47885 23.8516 10.4058 23.1793 11.2554C21.5138 13.3602 19.2174 14.8723 16.6317 15.5747V23.8077C16.6317 23.9751 16.548 24.1313 16.4087 24.224L10.8601 27.9163C10.7067 28.0184 10.5095 28.0278 10.347 27.9408C10.1845 27.8537 10.0831 27.6844 10.0831 27.5V15.5747C7.49736 14.8723 5.20104 13.3602 3.53546 11.2554C1.78782 9.04687 0.83662 6.31484 0.835556 3.50023C0.835506 3.36759 0.888163 3.24037 0.981936 3.14656C1.07571 3.05275 1.20292 3.00004 1.33556 3.00004Z" fill="#000001"/>
</svg>
  