<svg xmlns="http://www.w3.org/2000/svg" width="15" height="14" viewBox="0 0 15 14" fill="none"><div xmlns="" id="in-page-channel-node-id" data-channel-name="in_page_channel_IrzanP"/>
  <path d="M5.86567 1.2112C6.29447 -0.403733 8.70553 -0.403733 9.13434 1.2112C9.39172 2.18052 10.508 2.69209 11.4648 2.27923C13.0589 1.59138 14.5622 3.38529 13.5028 4.71124C12.8669 5.50709 13.1426 6.65659 14.0783 7.11108C15.6373 7.86828 15.1008 10.1053 13.351 10.1437C12.3007 10.1668 11.5282 11.0887 11.7383 12.0683C12.0882 13.7003 9.91593 14.6959 8.7933 13.4179C8.11948 12.6509 6.88053 12.6509 6.2067 13.4179C5.08407 14.6959 2.91178 13.7003 3.26173 12.0683C3.47178 11.0887 2.6993 10.1668 1.64901 10.1437C-0.100833 10.1053 -0.637344 7.86828 0.921661 7.11108C1.85741 6.65659 2.1331 5.50709 1.49723 4.71124C0.437846 3.38529 1.94112 1.59138 3.53522 2.27923C4.49203 2.69209 5.60829 2.18052 5.86567 1.2112Z" opacity="0.2" fill="#FBC01D"/>
  <path d="M9.78801 4.65738L6.36223 8.53853L4.89404 6.98607" stroke="#26282D" stroke-linecap="round" stroke-linejoin="round"/>
<script xmlns=""/></svg>